<svg id="Layer_1" data-name="Layer 1" xmlns="http://www.w3.org/2000/svg" xmlns:xlink="http://www.w3.org/1999/xlink" viewBox="0 0 191.59 211.8"><defs><style>.cls-1,.cls-6{fill:none;stroke-miterlimit:10;}.cls-1{stroke:#333;}.cls-2{fill:#fafafa;}.cls-3{fill:#333;}.cls-4{isolation:isolate;}.cls-5{fill:#050606;}.cls-6{stroke:#231f20;}.cls-7,.cls-9{font-size:3.64px;font-family:BeVietnamPro-Medium, Be Vietnam Pro;font-weight:500;}.cls-8{letter-spacing:-0.02em;}.cls-9{letter-spacing:-0.04em;}.cls-10{letter-spacing:0em;}</style></defs><circle class="cls-1" cx="97.23" cy="79.58" r="65.87"/><circle class="cls-2" cx="62.72" cy="20.58" r="11.94"/><circle class="cls-2" cx="129" cy="20.58" r="11.94"/><circle class="cls-2" cx="159.72" cy="62.52" r="11.94"/><circle class="cls-2" cx="36.44" cy="62.52" r="11.94"/><circle class="cls-2" cx="39.87" cy="112.05" r="11.94"/><circle class="cls-2" cx="98.69" cy="145.46" r="11.94"/><circle class="cls-2" cx="153.1" cy="112.05" r="11.94"/><path d="M129.33,183.71a.27.27,0,0,0-.27.25h0a.26.26,0,0,0,.27.26h5.87a.26.26,0,0,0,.26-.26h0a.26.26,0,0,0-.25-.26h-5.88Z" transform="translate(-34.61 -41.26)"/><path d="M126,182.71v2.81l1.74,1.62,1.74-1.69a.27.27,0,0,1,.19-.08h5.89a.24.24,0,0,1,.26.24v4h4v-6.86a.13.13,0,0,0-.13-.13H126.14a.07.07,0,1,0-.1.1Zm-.52,2.92v-2.92a.63.63,0,0,1,.2-.46.64.64,0,0,1,.46-.19h13.54a.64.64,0,0,1,.66.64h0v7.12a.26.26,0,0,1-.26.26h-4.5a.25.25,0,0,1-.25-.25h0v-3.94h-5.54l-1.9,1.79h0a.27.27,0,0,1-.37,0h0l-2-1.87h0a.25.25,0,0,1-.08-.18Z" transform="translate(-34.61 -41.26)"/><path d="M140.59,183.69a.5.5,0,0,0-.25-.15v2.27a.56.56,0,0,0,.25-.14.59.59,0,0,0,.16-.38v-1.22a.55.55,0,0,0-.16-.38Zm-.51-.68h.13a1,1,0,0,1,.74.3,1.07,1.07,0,0,1,.32.75v1.24a1.07,1.07,0,0,1-.32.75,1.05,1.05,0,0,1-.74.3h-.13a.25.25,0,0,1-.26-.24v-2.84a.26.26,0,0,1,.25-.26Z" transform="translate(-34.61 -41.26)"/><path d="M127.86,180.93h-.3v1.13h.3Zm-.56-.52h.87a.25.25,0,0,1,.26.24v1.68a.26.26,0,0,1-.26.26h-.87a.27.27,0,0,1-.27-.26h0v-1.66a.26.26,0,0,1,.25-.26Z" transform="translate(-34.61 -41.26)"/><path d="M127.45,188.48a.26.26,0,0,0,.21.3.27.27,0,0,0,.31-.21v-1.08a.26.26,0,0,0-.52-.09v1.08Z" transform="translate(-34.61 -41.26)"/><path d="M141.09,190.09h-15.6v2.4h15.6v-2.4Zm-15.85-.52h16.12a.26.26,0,0,1,.26.26h0v2.95a.26.26,0,0,1-.25.26H125.24a.25.25,0,0,1-.25-.25h0v-2.93a.26.26,0,0,1,.25-.26Z" transform="translate(-34.61 -41.26)"/><path d="M138.19,184.31a.56.56,0,0,0-.35-.15.61.61,0,0,0-.37.15.52.52,0,0,0,0,.73.51.51,0,0,0,.37.15.47.47,0,0,0,.35-.15.5.5,0,0,0,0-.71Zm-.35-.67a1.12,1.12,0,0,1,.73.31,1.06,1.06,0,0,1,0,1.46,1.12,1.12,0,0,1-.73.31,1.08,1.08,0,0,1-.74-.31,1,1,0,0,1,0-1.45h0A1,1,0,0,1,137.84,183.64Z" transform="translate(-34.61 -41.26)"/><path d="M138.3,187.31h-.93a.14.14,0,0,0-.14.14v1a.14.14,0,0,0,.14.14h.93a.15.15,0,0,0,.14-.14v-.93a.17.17,0,0,0-.14-.14Zm-.93-.52h.93a.68.68,0,0,1,.66.66v1a.63.63,0,0,1-.2.47.66.66,0,0,1-.46.19h-.93a.65.65,0,0,1-.66-.66v-.93a.66.66,0,0,1,.19-.46.63.63,0,0,1,.47-.2Z" transform="translate(-34.61 -41.26)"/><path d="M126.74,191a.25.25,0,0,0-.26.26h0a.24.24,0,0,0,.24.26h13.15a.26.26,0,0,0,.26-.26h0a.27.27,0,0,0-.26-.26Z" transform="translate(-34.61 -41.26)"/><path class="cls-3" d="M190.74,155.48l-2.53-1.9,5.78-2.43,2.61,1.9-5.83,2.39Zm3,3.15-5.81,2.57V154l2.61,1.91h.27l3-1.21v3.89Zm-12.09-3.88,3,1.21h.2l2.61-1.92v7.19l-5.81-2.57v-3.89Zm-.2-3.56,5.78,2.43-.23.15-2.34,1.74-5.83-2.39,2.61-1.9Zm3.21-4.83,2.57,1.86-5.78,2.43-2.61-1.9,5.82-2.39Zm6.09,0,5.83,2.39-2.61,1.9-5.77-2.43,2.56-1.86Zm-3,7-5.68-2.4,5.68-2.38,5.67,2.38Zm9.48-.36-2.81-2,2.81-2a.23.23,0,0,0,.1-.21.29.29,0,0,0-.15-.19l-6.34-2.61a.22.22,0,0,0-.22,0L187.73,148l-2.86-2.08a.24.24,0,0,0-.23,0l-6.33,2.61a.23.23,0,0,0-.15.19.22.22,0,0,0,.09.21l2.81,2-2.81,2a.24.24,0,0,0-.09.21.23.23,0,0,0,.15.19l2.92,1.2v4.24a.2.2,0,0,0,.13.21l6.28,2.78h.14l6.27-2.78a.22.22,0,0,0,.14-.21v-4.23l2.92-1.2a.27.27,0,0,0,.14-.19.22.22,0,0,0-.09-.21Z" transform="translate(-34.61 -41.26)"/><image class="cls-4" width="512" height="512" transform="translate(148.83 51.61) scale(0.04)" xlink:href="mat-for-fitness.png"/><image class="cls-4" width="512" height="512" transform="translate(31.78 104.78) scale(0.03)" xlink:href="stats.png"/><path d="M80.46,107h-2A1.74,1.74,0,0,0,75,107h-.38v-5.57h3.72l2.13,3.18V107Zm-3.75,1.41a1.06,1.06,0,1,1,1.06-1.06,1.05,1.05,0,0,1-1.06,1.06Zm-11-2.12a1.06,1.06,0,1,1-1.07,1.06,1.06,1.06,0,0,1,1.07-1.06Zm13.13-5.4a.34.34,0,0,0-.29-.16H74.6V98.79a.35.35,0,0,0-.35-.35H62.89a.35.35,0,0,0-.35.35h0v8.56a.35.35,0,0,0,.35.35h1a1.75,1.75,0,0,0,3.49,0H68.6a.35.35,0,1,0,0-.7H67.39a1.74,1.74,0,1,0-3.48,0h-.7V99.16h10.7V107H69.82a.35.35,0,1,0,0,.7H75a1.74,1.74,0,0,0,3.48,0h2.36a.35.35,0,0,0,.34-.35h0v-2.86a.35.35,0,0,0-.06-.19Z" transform="translate(-34.61 -41.26)"/><path d="M64.45,102.43h1a.35.35,0,0,0,.3-.41.36.36,0,0,0-.3-.3h-1a.36.36,0,0,0-.29.41A.34.34,0,0,0,64.45,102.43Z" transform="translate(-34.61 -41.26)"/><path d="M72.69,101.72h-6a.36.36,0,0,0-.3.41.34.34,0,0,0,.3.3h6A.35.35,0,0,0,73,102,.36.36,0,0,0,72.69,101.72Z" transform="translate(-34.61 -41.26)"/><path d="M72.69,103.71h-1a.35.35,0,0,0-.41.3.36.36,0,0,0,.29.41h1.13A.36.36,0,0,0,73,104,.34.34,0,0,0,72.69,103.71Z" transform="translate(-34.61 -41.26)"/><path d="M64.45,104.42h6a.36.36,0,0,0,.3-.41.34.34,0,0,0-.3-.3h-6a.35.35,0,0,0-.29.41A.36.36,0,0,0,64.45,104.42Z" transform="translate(-34.61 -41.26)"/><path d="M75.94,103.93v-1.2h1.75l.76,1.2Zm1.9-1.9H75.59a.34.34,0,0,0-.35.35h0v1.89a.34.34,0,0,0,.35.34h3.53a.35.35,0,0,0,.3-.18.33.33,0,0,0,0-.36l-1.29-1.89A.34.34,0,0,0,77.84,102Z" transform="translate(-34.61 -41.26)"/><image class="cls-4" width="512" height="512" transform="translate(54.14 12) scale(0.03)" xlink:href="tag.png"/><path class="cls-5" d="M155.48,62.79c0-.59.61-1.08,1.41-1.18V65c-.8-.11-1.41-.59-1.41-1.19Zm16.28,1.07c0,.59-.61,1.08-1.41,1.18v-3.4c.8.11,1.41.6,1.41,1.19ZM159.69,65v-2.5a8.77,8.77,0,0,0,1.12-.29,11.84,11.84,0,0,0,1.64-.69,10.06,10.06,0,0,0,1.3-.8l1.48.78a15.76,15.76,0,0,0,1.67.76,5.53,5.53,0,0,0,.81.28v2.43a4.13,4.13,0,0,1-4,4.22A3.9,3.9,0,0,1,161,68h.52a.89.89,0,0,0,.73.44h1a.87.87,0,1,0,0-1.67h-1a.86.86,0,0,0-.78.55h-1a4.42,4.42,0,0,1-.72-2.41Zm10.66-4V59.73a5.44,5.44,0,0,0-2.11-3.67,7.55,7.55,0,0,0-4.62-1.51A6.92,6.92,0,0,0,159.14,56a6.66,6.66,0,0,0-2.24,3.66v1.26a2.1,2.1,0,0,0-2.09,1.86v1.06A2.11,2.11,0,0,0,157,65.72a2.64,2.64,0,0,0,1,1.74v1.75a.34.34,0,0,0,.34.34.36.36,0,0,0,.34-.34h0V67.85a2.6,2.6,0,0,0,1,.18h.47a4.62,4.62,0,0,0,1.35,1.18,4.44,4.44,0,0,0,4.51,0,4.94,4.94,0,0,0,2.45-4.3v-2.7h0v-.09h-.14a6.45,6.45,0,0,1-1.3-.45A30.48,30.48,0,0,1,164,60.2a.37.37,0,0,0-.38,0,9.77,9.77,0,0,1-2.8,1.48,9.53,9.53,0,0,1-1.27.34.3.3,0,0,0-.17.08.32.32,0,0,0-.26.32v2.7a5.07,5.07,0,0,0,.61,2.41h0a2,2,0,0,1-1-.24V61.54a5.08,5.08,0,0,1,10.11,0v7.72h0a.34.34,0,0,0,.67,0v-7.9a5.75,5.75,0,0,0-11.46,0v5.11a2.07,2.07,0,0,1-.36-1.16.33.33,0,0,0,0-.14V61.51h0V59.77a5.94,5.94,0,0,1,2-3.26,6.24,6.24,0,0,1,4.05-1.3,6.77,6.77,0,0,1,4.2,1.36,4.7,4.7,0,0,1,1.85,3.18v1.67h0v3.9a.33.33,0,0,0,.33.34h0a2.18,2.18,0,0,0,2.2-1.8V62.79a2.1,2.1,0,0,0-2.08-1.86Z" transform="translate(-34.61 -41.26)"/><path d="M128.59,238c-.78-.24-1.5-.43-2.2-.71a.87.87,0,0,1-.44-.65c.23-1.44.49-2.87.8-4.3a2.08,2.08,0,0,1,1.25-1.45,6.71,6.71,0,0,1,4.36-.87,8.8,8.8,0,0,0,2.85-.12,4.74,4.74,0,0,1,4.87,3.18c.26,1.1.37,2.23.57,3.34a.72.72,0,0,1-.48.91l-.12,0c-.66.18-1.32.38-2.06.6v6.53a.78.78,0,0,1-.56.87,15.37,15.37,0,0,1-8.24,0c-.47-.13-.59-.42-.59-.87V238Zm-.06-.87a4.84,4.84,0,0,0-.39-3.26c-.1-.16,0-.4-.06-.6.21.09.55.13.6.27a8.17,8.17,0,0,1,.58,2.22c.07,2.74.05,5.47,0,8.21,0,.64.23.87.8,1a17.12,17.12,0,0,0,6.46,0c.58-.11.79-.37.78-1v-8.21a3.39,3.39,0,0,1,.68-2.32c.1-.12.35-.1.54-.13,0,.16.07.38,0,.49-.75,1-.5,2.21-.54,3.34,1.75,0,2-.3,1.84-1.83,0-.3-.12-.6-.14-.87a3.59,3.59,0,0,0-3.25-3.66.7.7,0,0,0-.78.21,3.57,3.57,0,0,1-4.76,0,.85.85,0,0,0-.68-.2,3.59,3.59,0,0,0-3.32,3.67,5,5,0,0,1-.12.76c-.2,1.66,0,1.82,1.66,2Zm6.17-6.37h-2.84a2.54,2.54,0,0,0,2.84,0Z" transform="translate(-34.61 -41.26)"/><path class="cls-2" d="M128.53,237.14h-.11c-1.74-.15-1.86-.32-1.66-2,0-.26.12-.52.13-.77a3.58,3.58,0,0,1,3.31-3.67.89.89,0,0,1,.68.2,3.57,3.57,0,0,0,4.76,0,.7.7,0,0,1,.78-.21,3.61,3.61,0,0,1,3.25,3.66c0,.31.1.61.13.92.2,1.52-.11,1.84-1.82,1.83,0-1.14-.23-2.31.53-3.35.08-.1,0-.32,0-.49-.18,0-.43,0-.53.13a3.34,3.34,0,0,0-.68,2.32V244c0,.63-.2.87-.79,1a16.72,16.72,0,0,1-6.46,0c-.57-.1-.82-.32-.81-1,0-2.74.06-5.47,0-8.21a7.81,7.81,0,0,0-.57-2.22c0-.14-.4-.18-.61-.27a2,2,0,0,0,.06.6A4.76,4.76,0,0,1,128.53,237.14Z" transform="translate(-34.61 -41.26)"/><path class="cls-2" d="M134.7,230.78a2.54,2.54,0,0,1-2.84,0Z" transform="translate(-34.61 -41.26)"/><line class="cls-6" x1="86.75" y1="196.69" x2="51.8" y2="196.63"/><line class="cls-6" x1="145.57" y1="196.76" x2="110.63" y2="196.69"/><line class="cls-6" x1="98.63" y1="183.64" x2="98.7" y2="168.1"/><path d="M127.07,199.09h.4v2.15h1v.36h-1.37Z" transform="translate(-34.61 -41.26)"/><path d="M129.62,199.09H130l.94,2.51h-.43l-.2-.58h-1l-.21.58h-.43Zm-.18,1.57h.77l-.36-1.09h0Z" transform="translate(-34.61 -41.26)"/><path d="M131.22,199.09H132a1.33,1.33,0,0,1,.4,0,.61.61,0,0,1,.28.19.49.49,0,0,1,.12.37.71.71,0,0,1-.06.28,1,1,0,0,1-.15.2.42.42,0,0,1-.19.09l.17,0a.66.66,0,0,1,.17.12.83.83,0,0,1,.13.18,1.13,1.13,0,0,1,0,.26.85.85,0,0,1-.09.38.64.64,0,0,1-.25.24,1,1,0,0,1-.44.1h-.87Zm.4,1.06H132a.54.54,0,0,0,.22-.05.35.35,0,0,0,.13-.14.43.43,0,0,0,0-.19.3.3,0,0,0-.12-.28.53.53,0,0,0-.3-.07h-.36Zm0,1.11H132a.52.52,0,0,0,.27,0,.32.32,0,0,0,.13-.15.67.67,0,0,0,0-.2.38.38,0,0,0-.12-.28.44.44,0,0,0-.33-.11h-.39Z" transform="translate(-34.61 -41.26)"/><path d="M133.17,200.34a1.1,1.1,0,0,1,.09-.51,1.24,1.24,0,0,1,.66-.69,1.33,1.33,0,0,1,1,0,1.12,1.12,0,0,1,.4.28,1.62,1.62,0,0,1,.27.41,1.48,1.48,0,0,1,.09.51,1.52,1.52,0,0,1-.09.51,1.36,1.36,0,0,1-.26.41,1.21,1.21,0,0,1-.4.28,1.29,1.29,0,0,1-.51.1,1.24,1.24,0,0,1-.5-.1,1,1,0,0,1-.4-.28,1.22,1.22,0,0,1-.27-.41A1.3,1.3,0,0,1,133.17,200.34Zm.41,0a.83.83,0,0,0,.11.46.74.74,0,0,0,.3.33.77.77,0,0,0,.87,0,.72.72,0,0,0,.29-.33.93.93,0,0,0,.12-.46,1,1,0,0,0-.12-.47.72.72,0,0,0-.29-.33.85.85,0,0,0-.87,0,.74.74,0,0,0-.3.33A.86.86,0,0,0,133.58,200.34Z" transform="translate(-34.61 -41.26)"/><path d="M137.57,199.09h.4v1.53a1.09,1.09,0,0,1-.13.53.77.77,0,0,1-.34.35,1.06,1.06,0,0,1-.5.12,1.1,1.1,0,0,1-.51-.12.77.77,0,0,1-.34-.35,1.09,1.09,0,0,1-.13-.53v-1.55h.4v1.55a.71.71,0,0,0,.07.35.56.56,0,0,0,.21.22.59.59,0,0,0,.6,0,.61.61,0,0,0,.2-.22.71.71,0,0,0,.07-.35Z" transform="translate(-34.61 -41.26)"/><path d="M138.42,199.09h.87a.73.73,0,0,1,.38.08.75.75,0,0,1,.27.26.7.7,0,0,1,.09.4.65.65,0,0,1-.09.38.66.66,0,0,1-.21.23.63.63,0,0,1-.23.08l.61,1.08h-.44l-.58-1h-.32v1h-.39Zm.39,1.17h.38a.67.67,0,0,0,.34-.09.4.4,0,0,0,.14-.33.38.38,0,0,0-.14-.33.49.49,0,0,0-.34-.09h-.38Z" transform="translate(-34.61 -41.26)"/><path d="M199.86,166.75h.76a1.22,1.22,0,0,1,.43.08.67.67,0,0,1,.31.24.73.73,0,0,1,.11.43.76.76,0,0,1-.11.44.79.79,0,0,1-.31.26,1.22,1.22,0,0,1-.43.08h-.37v1h-.39Zm.39,1.2h.26a.61.61,0,0,0,.27,0,.3.3,0,0,0,.19-.14.36.36,0,0,0,.07-.26.35.35,0,0,0-.07-.26.36.36,0,0,0-.19-.13.61.61,0,0,0-.27,0h-.26Z" transform="translate(-34.61 -41.26)"/><path d="M202.34,166.75h.4l.95,2.51h-.43l-.21-.57h-1l-.21.57h-.43Zm-.18,1.58h.77l-.39-1.09h0Z" transform="translate(-34.61 -41.26)"/><path d="M205.12,168.9a1,1,0,0,0,.38-.05,1.34,1.34,0,0,0,.24-.12l.16.34a.9.9,0,0,1-.29.16,1.5,1.5,0,0,1-.51.07,1.38,1.38,0,0,1-.94-.37,1.3,1.3,0,0,1,0-1.85,1.34,1.34,0,0,1,.42-.28,1.33,1.33,0,0,1,.52-.09,1.3,1.3,0,0,1,.51.08.61.61,0,0,1,.29.14l-.16.34a1.75,1.75,0,0,0-.24-.11,1.21,1.21,0,0,0-.38-.06,1,1,0,0,0-.38.07.74.74,0,0,0-.27.19.72.72,0,0,0-.2.29,1.05,1.05,0,0,0,0,.7.79.79,0,0,0,.2.3,1,1,0,0,0,.27.19A.82.82,0,0,0,205.12,168.9Z" transform="translate(-34.61 -41.26)"/><path d="M207,168l1,1.28h-.48l-.87-1.14v1.14h-.4v-2.51h.4v1.11l.82-1.11H208Z" transform="translate(-34.61 -41.26)"/><path d="M209.07,166.75h.4l.95,2.51H210l-.21-.57h-1l-.21.57h-.42Zm-.19,1.58h.78l-.39-1.09h0Z" transform="translate(-34.61 -41.26)"/><path d="M211.73,167.88H213V168a1.22,1.22,0,0,1-.08.5,1.36,1.36,0,0,1-.26.41,1.09,1.09,0,0,1-.4.27,1,1,0,0,1-.49.1,1.19,1.19,0,0,1-.87-.38,1.17,1.17,0,0,1-.27-.42,1.43,1.43,0,0,1,0-1,1.26,1.26,0,0,1,.27-.42,1.44,1.44,0,0,1,.4-.28,1.23,1.23,0,0,1,.5-.09,1.14,1.14,0,0,1,.37,0l.29.11a1.92,1.92,0,0,1,.22.18,1.56,1.56,0,0,1,.16.2l-.37.18a.78.78,0,0,0-.27-.24.79.79,0,0,0-.4-.1.84.84,0,0,0-.61.27,1.11,1.11,0,0,0-.17.3,1.05,1.05,0,0,0,0,.7,1.11,1.11,0,0,0,.17.3,1.05,1.05,0,0,0,.27.2.8.8,0,0,0,.34.07,1.13,1.13,0,0,0,.32,0,.63.63,0,0,0,.24-.16.72.72,0,0,0,.17-.22.75.75,0,0,0,.06-.29h-.85Z" transform="translate(-34.61 -41.26)"/><path d="M213.38,166.75h.4v2.51h-.4Z" transform="translate(-34.61 -41.26)"/><path d="M214.65,167.13h0v2.13h-.39v-2.51h.55l1.22,2.13h0v-2.14h.39v2.52h-.56Z" transform="translate(-34.61 -41.26)"/><path d="M218,167.88h1.26V168a1.19,1.19,0,0,1-.35.91,1,1,0,0,1-.39.27,1,1,0,0,1-.49.1,1.23,1.23,0,0,1-.88-.38,1.29,1.29,0,0,1-.26-.42,1.43,1.43,0,0,1,0-1,1.41,1.41,0,0,1,.26-.42,1.8,1.8,0,0,1,.4-.28,1.28,1.28,0,0,1,.51-.09,1.17,1.17,0,0,1,.37,0l.28.11a2,2,0,0,1,.23.18,1.56,1.56,0,0,1,.16.2l-.37.18a.78.78,0,0,0-.27-.24.79.79,0,0,0-.4-.1.82.82,0,0,0-.61.27,1.11,1.11,0,0,0-.17.3,1.05,1.05,0,0,0,0,.7,1.11,1.11,0,0,0,.17.3,1.05,1.05,0,0,0,.27.2.8.8,0,0,0,.34.07,1.06,1.06,0,0,0,.31,0,.6.6,0,0,0,.25-.16.57.57,0,0,0,.16-.22.59.59,0,0,0,.07-.29h-.82Z" transform="translate(-34.61 -41.26)"/><path d="M62.84,235h1.48a1.43,1.43,0,0,1,.61.14,1.18,1.18,0,0,1,.46.37,1.49,1.49,0,0,1,0,1.27,1.2,1.2,0,0,1-.35.36.82.82,0,0,1-.38.13l1,1.75h-.73l-.87-1.67h-.51V239H62.9Zm.65,1.9h.61a.83.83,0,0,0,.54-.17.74.74,0,0,0,0-1.05.87.87,0,0,0-.54-.15h-.61Z" transform="translate(-34.61 -41.26)"/><path d="M66.3,235h2.44v.57h-1.8v1.16h1.74v.53H66.94v1.16h1.8V239H66.3Z" transform="translate(-34.61 -41.26)"/><path d="M70.33,235.52h-1V235H72v.57H71V239h-.63Z" transform="translate(-34.61 -41.26)"/><path d="M73.35,235H74l1.52,4h-.68l-.33-.87H72.84l-.33.87h-.69Zm-.3,2.53H74.3l-.62-1.74h0Z" transform="translate(-34.61 -41.26)"/><path d="M76,235h.64v4H76Z" transform="translate(-34.61 -41.26)"/><path d="M77.42,235h.64v3.48H79.6V239H77.42Z" transform="translate(-34.61 -41.26)"/><path d="M215,95.93h1.35v.36h-.95V97h.87v.36h-.87v1.08H215Z" transform="translate(-34.61 -41.26)"/><path d="M217.43,95.93h.4l.95,2.51h-.43l-.21-.57h-1l-.2.57h-.43Zm-.18,1.58H218l-.38-1.09h0Z" transform="translate(-34.61 -41.26)"/><path d="M219,95.93h.75a1.58,1.58,0,0,1,.38,0,.69.69,0,0,1,.3.2.52.52,0,0,1,.11.36.67.67,0,0,1-.06.28.48.48,0,0,1-.15.2.44.44,0,0,1-.19.1.55.55,0,0,1,.17,0,.45.45,0,0,1,.17.11.61.61,0,0,1,.17.45.69.69,0,0,1-.08.37.67.67,0,0,1-.26.24,1,1,0,0,1-.44.1H219Zm.4,1.06h.36a.36.36,0,0,0,.22,0,.36.36,0,0,0,.12-.15.54.54,0,0,0,0-.18.31.31,0,0,0-.12-.28.55.55,0,0,0-.31-.07h-.31Zm0,1.12h.41a.53.53,0,0,0,.25,0,.37.37,0,0,0,.13-.15.41.41,0,0,0,.05-.21.36.36,0,0,0-.12-.28.48.48,0,0,0-.33-.1h-.39Z" transform="translate(-34.61 -41.26)"/><path d="M221.09,95.93H222a.78.78,0,0,1,.37.09.55.55,0,0,1,.27.25.79.79,0,0,1,.1.4.86.86,0,0,1-.09.39.58.58,0,0,1-.22.22.43.43,0,0,1-.22.09l.61,1.07h-.45l-.57-1h-.32v1H221Zm.39,1.18h.38a.59.59,0,0,0,.34-.1.4.4,0,0,0,.13-.33.34.34,0,0,0-.13-.32.6.6,0,0,0-.34-.11h-.38Z" transform="translate(-34.61 -41.26)"/><path d="M223.26,95.93h.4v2.51h-.4Z" transform="translate(-34.61 -41.26)"/><path d="M225.42,98.08a1,1,0,0,0,.37,0,.68.68,0,0,0,.24-.12l.17.34a1.08,1.08,0,0,1-.3.16,1.46,1.46,0,0,1-.51.07,1.44,1.44,0,0,1-.51-.09,1.34,1.34,0,0,1-.42-.28,1.07,1.07,0,0,1-.28-.41,1.26,1.26,0,0,1,0-1,1.25,1.25,0,0,1,.28-.41,1.34,1.34,0,0,1,.42-.28,1.25,1.25,0,0,1,.51-.09,1.27,1.27,0,0,1,.51.08,1,1,0,0,1,.3.14l-.17.34a.74.74,0,0,0-.24-.11,1.19,1.19,0,0,0-.37-.06,1,1,0,0,0-.38.07.7.7,0,0,0-.29.19.79.79,0,0,0-.18.29,1,1,0,0,0-.06.36,1,1,0,0,0,.06.35,1.09,1.09,0,0,0,.23.29.81.81,0,0,0,.29.19A.88.88,0,0,0,225.42,98.08Z" transform="translate(-34.61 -41.26)"/><path d="M155.68,41.31h.4v2.15H157v.36h-1.35Z" transform="translate(-34.61 -41.26)"/><path d="M157.28,42.56a1.28,1.28,0,0,1,.09-.51,1.22,1.22,0,0,1,.27-.41,1.09,1.09,0,0,1,.4-.27,1.24,1.24,0,0,1,1.39.27,1.13,1.13,0,0,1,.27.41,1.35,1.35,0,0,1,0,1,1.29,1.29,0,0,1-.26.42,1.09,1.09,0,0,1-.4.27,1.21,1.21,0,0,1-1,0,1.09,1.09,0,0,1-.4-.27,1.14,1.14,0,0,1-.26-.42A1.48,1.48,0,0,1,157.28,42.56Zm.41,0a.92.92,0,0,0,.41.8.67.67,0,0,0,.43.12.71.71,0,0,0,.45-.12.84.84,0,0,0,.29-.33,1.12,1.12,0,0,0,.11-.47,1,1,0,0,0-.11-.46.78.78,0,0,0-.29-.33.9.9,0,0,0-.45-.13.83.83,0,0,0-.43.13.8.8,0,0,0-.3.33,1,1,0,0,0-.08.46Z" transform="translate(-34.61 -41.26)"/><path d="M161.28,42.45h1.26v.14a1.41,1.41,0,0,1-.09.49,1.36,1.36,0,0,1-.26.41,1.05,1.05,0,0,1-.39.27,1.25,1.25,0,0,1-.5.11,1.3,1.3,0,0,1-.51-.11,1.21,1.21,0,0,1-.39-.28,1.14,1.14,0,0,1-.26-.42,1.37,1.37,0,0,1,.26-1.42,1.19,1.19,0,0,1,.39-.27,1.3,1.3,0,0,1,.51-.11,1.5,1.5,0,0,1,.37.05,1.48,1.48,0,0,1,.29.12,1.22,1.22,0,0,1,.38.37L162,42a.9.9,0,0,0-.27-.24.91.91,0,0,0-.4-.1.84.84,0,0,0-.61.27,1,1,0,0,0-.23.65,1.13,1.13,0,0,0,.06.36.92.92,0,0,0,.17.29.86.86,0,0,0,.27.2.69.69,0,0,0,.34.07.86.86,0,0,0,.32,0,.63.63,0,0,0,.24-.16.72.72,0,0,0,.17-.22,1,1,0,0,0,.07-.29h-.82Z" transform="translate(-34.61 -41.26)"/><path d="M163,41.31h.39v2.51H163Z" transform="translate(-34.61 -41.26)"/><path d="M164.69,41.26a1.74,1.74,0,0,1,.39.05l.25.11.11.08-.19.32-.11-.07-.18-.08a.88.88,0,0,0-.23,0,.67.67,0,0,0-.31.07.24.24,0,0,0-.11.22.27.27,0,0,0,.06.17.7.7,0,0,0,.17.13l.27.13.27.13a1.12,1.12,0,0,1,.22.16.69.69,0,0,1,.22.51.65.65,0,0,1-.26.53,1.08,1.08,0,0,1-.29.13,1.27,1.27,0,0,1-.34,0,1.59,1.59,0,0,1-.43-.06,1.66,1.66,0,0,1-.31-.12l-.14-.08.22-.34.08.05.15.08.2.07h.24a.52.52,0,0,0,.34-.1.32.32,0,0,0,.12-.26.34.34,0,0,0-.08-.21.5.5,0,0,0-.2-.15l-.29-.15a2,2,0,0,1-.32-.17.58.58,0,0,1-.22-.22.62.62,0,0,1,0-.67.65.65,0,0,1,.28-.21A1,1,0,0,1,164.69,41.26Z" transform="translate(-34.61 -41.26)"/><path d="M166.38,41.67h-.65v-.36h1.7v.36h-.65v2.15h-.4Z" transform="translate(-34.61 -41.26)"/><path d="M167.8,41.31h.38v2.51h-.4Z" transform="translate(-34.61 -41.26)"/><path d="M169.92,43.47a.94.94,0,0,0,.37-.07.66.66,0,0,0,.24-.11l.17.34a1.18,1.18,0,0,1-.29.16,1.82,1.82,0,0,1-.52.08,1.3,1.3,0,0,1-.51-.11,1.17,1.17,0,0,1-.42-.27,1.07,1.07,0,0,1-.28-.41,1.32,1.32,0,0,1,0-1,1.25,1.25,0,0,1,.28-.41,1.32,1.32,0,0,1,.42-.27,1.3,1.3,0,0,1,.51-.11,1.82,1.82,0,0,1,.52.08.92.92,0,0,1,.29.16l-.17.34a.68.68,0,0,0-.24-.12,1.15,1.15,0,0,0-.37-.06,1,1,0,0,0-.38.07.77.77,0,0,0-.28.19.91.91,0,0,0-.19.29,1,1,0,0,0-.06.35.93.93,0,0,0,.25.65.87.87,0,0,0,.28.19A1,1,0,0,0,169.92,43.47Z" transform="translate(-34.61 -41.26)"/><path d="M171.94,41.26a1.58,1.58,0,0,1,.38.05l.26.11.11.08-.2.32-.1-.07-.18-.08a1,1,0,0,0-.24,0,.63.63,0,0,0-.3.07.24.24,0,0,0-.11.22.22.22,0,0,0,.06.17.7.7,0,0,0,.17.13l.27.13.26.13a1.19,1.19,0,0,1,.23.16.89.89,0,0,1,.16.22.72.72,0,0,1,.06.29.68.68,0,0,1-.26.53,1.08,1.08,0,0,1-.29.13,1.33,1.33,0,0,1-.34,0,1.61,1.61,0,0,1-.44-.06,1.57,1.57,0,0,1-.3-.12l-.14-.08.21-.34.08.05.16.08.2.07h.23a.57.57,0,0,0,.35-.1.36.36,0,0,0,.12-.26.34.34,0,0,0-.08-.21.5.5,0,0,0-.2-.15,2.1,2.1,0,0,0-.3-.15,1.87,1.87,0,0,1-.31-.17.8.8,0,0,1-.23-.22.63.63,0,0,1-.09-.33.6.6,0,0,1,.11-.34.62.62,0,0,1,.29-.21A1.07,1.07,0,0,1,171.94,41.26Z" transform="translate(-34.61 -41.26)"/><path d="M87.16,41.71h-.65v-.35h1.74v.35H87.6v2.16h-.44Z" transform="translate(-34.61 -41.26)"/><path d="M89,41.36h.41l1,2.51H90l-.19-.58H88.72l-.21.58h-.42ZM88.85,43h.78l-.38-1.09h0Z" transform="translate(-34.61 -41.26)"/><path d="M91.69,42.49H93v.15a1.33,1.33,0,0,1-.09.49,1.2,1.2,0,0,1-.26.4,1,1,0,0,1-.39.28,1.24,1.24,0,0,1-.5.1,1.14,1.14,0,0,1-.51-.11,1.09,1.09,0,0,1-.4-.27,1.36,1.36,0,0,1-.26-.41,1.48,1.48,0,0,1-.09-.51,1.43,1.43,0,0,1,.09-.5,1.29,1.29,0,0,1,.26-.42,1.22,1.22,0,0,1,.91-.38,1.57,1.57,0,0,1,.37,0,.77.77,0,0,1,.28.12,1.88,1.88,0,0,1,.23.16l.16.2-.37.19a.93.93,0,0,0-.27-.25.78.78,0,0,0-.4-.09.8.8,0,0,0-.34.07,1.05,1.05,0,0,0-.27.2,1.22,1.22,0,0,0-.17.29,1.13,1.13,0,0,0-.06.36,1,1,0,0,0,.06.35,1.11,1.11,0,0,0,.17.3.84.84,0,0,0,.61.27.81.81,0,0,0,.31-.06.58.58,0,0,0,.25-.15.53.53,0,0,0,.16-.23.59.59,0,0,0,.07-.29h-.82Z" transform="translate(-34.61 -41.26)"/><path d="M94.19,43.22a.58.58,0,0,1,.06-.26.56.56,0,0,1,.14-.2,1,1,0,0,1,.2-.15l.17-.09h.13l-.09-.07-.1-.14a1.51,1.51,0,0,1-.09-.18.61.61,0,0,1,0-.19.55.55,0,0,1,.09-.3.55.55,0,0,1,.25-.2.74.74,0,0,1,.39-.08.66.66,0,0,1,.36.08.5.5,0,0,1,.23.2.64.64,0,0,1,.08.3.43.43,0,0,1-.07.25.75.75,0,0,1-.15.2l-.18.13-.15.08.48.53.13-.14.16-.24.27.24-.08.12a1.34,1.34,0,0,1-.11.14l-.11.12.51.54H96.2l-.3-.32-.23.17a1.11,1.11,0,0,1-.29.14A1.14,1.14,0,0,1,95,44a.8.8,0,0,1-.4-.08.72.72,0,0,1-.28-.24A.66.66,0,0,1,94.19,43.22Zm.88-.5H95l-.13.07-.12.09a.94.94,0,0,0-.09.12.22.22,0,0,0,0,.16.29.29,0,0,0,0,.2.33.33,0,0,0,.15.11.34.34,0,0,0,.2,0,.41.41,0,0,0,.22,0,.68.68,0,0,0,.21-.1.53.53,0,0,0,.14-.12Zm.2-1.09a.28.28,0,0,0-.18,0,.22.22,0,0,0-.11.1.29.29,0,0,0,0,.13A.38.38,0,0,0,95,42l.08.13.08.11h.11l.13-.08.11-.13a.26.26,0,0,0,.05-.19.27.27,0,0,0-.08-.19.32.32,0,0,0-.17,0Z" transform="translate(-34.61 -41.26)"/><path d="M97.84,41.36h.4v2.15h1v.36H97.84Z" transform="translate(-34.61 -41.26)"/><path d="M100.38,41.36h.41l.95,2.51h-.43l-.21-.58h-1l-.21.58h-.42ZM100.23,43H101l-.39-1.09h0Z" transform="translate(-34.61 -41.26)"/><path d="M102,41.36h.75a1.06,1.06,0,0,1,.39.06.59.59,0,0,1,.29.18.53.53,0,0,1,.11.37.71.71,0,0,1-.06.28.66.66,0,0,1-.14.2.46.46,0,0,1-.2.09l.18.05a.61.61,0,0,1,.16.12.46.46,0,0,1,.13.18.75.75,0,0,1,0,.26.85.85,0,0,1-.09.38.6.6,0,0,1-.26.24,1,1,0,0,1-.44.1H102Zm.4,1.06h.36a.54.54,0,0,0,.22-.05.53.53,0,0,0,.12-.14.31.31,0,0,0,0-.19.33.33,0,0,0-.11-.28.6.6,0,0,0-.32-.07h-.31Zm0,1.11h.47a.47.47,0,0,0,.26-.05.34.34,0,0,0,.14-.15.67.67,0,0,0,0-.2.38.38,0,0,0-.12-.28.49.49,0,0,0-.33-.11h-.39Z" transform="translate(-34.61 -41.26)"/><path d="M104,41.36h1.51v.35h-1.12v.73h1.11v.35h-1.11v.72h1.12v.36H104Z" transform="translate(-34.61 -41.26)"/><path d="M106,41.36h.4v2.15h1v.36H106Z" transform="translate(-34.61 -41.26)"/><path d="M35.26,96.38h-.65V96h1.7v.35h-.65v2.15h-.4Z" transform="translate(-34.61 -41.26)"/><path d="M36.64,96h.92a.84.84,0,0,1,.38.08.57.57,0,0,1,.26.25.7.7,0,0,1,.1.4.76.76,0,0,1-.08.39.8.8,0,0,1-.22.23.62.62,0,0,1-.24.08l.62,1.07h-.45l-.57-1H37v1h-.4ZM37,97.2h.38a.52.52,0,0,0,.34-.1.47.47,0,0,0,0-.65.59.59,0,0,0-.34-.1H37Z" transform="translate(-34.61 -41.26)"/><path d="M39.39,96h.41l.94,2.5h-.41L40.12,98h-1l-.21.58h-.43Zm-.14,1.57H40l-.38-1.09h0Z" transform="translate(-34.61 -41.26)"/><path d="M41.37,96.39h0v2.14H41V96h.55l1.19,2.12h0V96h.4v2.5h-.56Z" transform="translate(-34.61 -41.26)"/><path d="M44.48,96a1.21,1.21,0,0,1,.38.06l.26.1.12.08-.2.32-.11-.07-.17-.08h-.24a.67.67,0,0,0-.31.07.27.27,0,0,0-.11.22.27.27,0,0,0,.06.17l.17.14.27.12c.09,0,.18.08.26.13a.94.94,0,0,1,.23.16.69.69,0,0,1,.16.22.72.72,0,0,1,.06.29.6.6,0,0,1-.26.52.71.71,0,0,1-.29.14,1,1,0,0,1-.34,0,1.58,1.58,0,0,1-.43,0,1.66,1.66,0,0,1-.31-.12.38.38,0,0,1-.13-.09l.21-.34.08.06.15.08.2.07a1,1,0,0,0,.24,0,.55.55,0,0,0,.35-.1.36.36,0,0,0,.11-.26.34.34,0,0,0-.08-.21.64.64,0,0,0-.2-.16,2.75,2.75,0,0,0-.3-.14,2.38,2.38,0,0,1-.31-.17.69.69,0,0,1-.23-.22.56.56,0,0,1-.08-.33.59.59,0,0,1,.1-.34.92.92,0,0,1,.25-.15A1.16,1.16,0,0,1,44.48,96Z" transform="translate(-34.61 -41.26)"/><path d="M45.68,96h.77a.92.92,0,0,1,.43.08.59.59,0,0,1,.3.24.73.73,0,0,1,.11.43.68.68,0,0,1-.11.42.63.63,0,0,1-.3.26.82.82,0,0,1-.43.09h-.37v1h-.4Zm.4,1.2h.53a.37.37,0,0,0,.19-.14.5.5,0,0,0,.08-.26.45.45,0,0,0-.08-.26.35.35,0,0,0-.19-.13.62.62,0,0,0-.27,0h-.26Z" transform="translate(-34.61 -41.26)"/><path d="M47.56,97.27a1.44,1.44,0,0,1,.1-.5,1.29,1.29,0,0,1,.26-.42,1.18,1.18,0,0,1,.4-.27,1.24,1.24,0,0,1,1,0,1.09,1.09,0,0,1,.4.27,1.17,1.17,0,0,1,.27.42,1.43,1.43,0,0,1,.09.5,1.54,1.54,0,0,1-.09.52,1.22,1.22,0,0,1-.27.41,1,1,0,0,1-.4.27,1.09,1.09,0,0,1-.5.1,1.13,1.13,0,0,1-.51-.1,1.09,1.09,0,0,1-.4-.27,1.36,1.36,0,0,1-.26-.41A1.54,1.54,0,0,1,47.56,97.27Zm.42,0a1,1,0,0,0,.11.47.85.85,0,0,0,.29.33.84.84,0,0,0,.44.13.87.87,0,0,0,.44-.13.8.8,0,0,0,.3-.33.93.93,0,0,0,.1-.47.91.91,0,0,0-.1-.46.86.86,0,0,0-.3-.33.68.68,0,0,0-.44-.12.75.75,0,0,0-.44.12.92.92,0,0,0-.29.33,1.06,1.06,0,0,0-.13.46Z" transform="translate(-34.61 -41.26)"/><path d="M50.44,96h.92a.84.84,0,0,1,.38.08.57.57,0,0,1,.26.25.7.7,0,0,1,.1.4.75.75,0,0,1-.09.39.77.77,0,0,1-.21.23.62.62,0,0,1-.24.08l.62,1.07h-.45l-.57-1h-.32v1h-.4Zm.4,1.17h.37a.49.49,0,0,0,.34-.1.45.45,0,0,0,0-.65.54.54,0,0,0-.33-.1h-.38Z" transform="translate(-34.61 -41.26)"/><path d="M53,96.38h-.66V96h1.75v.35h-.66v2.15H53Z" transform="translate(-34.61 -41.26)"/><path d="M45.06,166.75v2.51h-.4V167.2l-.08.35L44,169.06h-.4l-.54-1.51L43,167.2v2.06h-.41v-2.51h.55l.63,1.87v0l.63-1.87Z" transform="translate(-34.61 -41.26)"/><path d="M46.34,166.75h.41l.94,2.51h-.42l-.2-.57H46l-.21.57H45.4Zm-.18,1.58h.78l-.39-1.09h0Z" transform="translate(-34.61 -41.26)"/><path d="M48,166.75h.88a.78.78,0,0,1,.37.09.59.59,0,0,1,.27.25.79.79,0,0,1,.1.4.86.86,0,0,1-.09.39.66.66,0,0,1-.22.22.5.5,0,0,1-.23.09l.67,1.07h-.45l-.57-1h-.32v1H48Zm.41,1.18h.38a.56.56,0,0,0,.33-.1.38.38,0,0,0,.14-.33.41.41,0,0,0-.13-.33.67.67,0,0,0-.34-.1h-.38Z" transform="translate(-34.61 -41.26)"/><path d="M50.84,168l1,1.28h-.48l-.87-1.14v1.14h-.4v-2.51h.4v1.11l.82-1.11h.45Z" transform="translate(-34.61 -41.26)"/><path d="M52.1,166.75h1.52v.36H52.49v.71H53.6v.35H52.49v.72h1.13v.37H52.1Z" transform="translate(-34.61 -41.26)"/><path d="M54.6,167.11H54v-.36h1.7v.36H55v2.15h-.4Z" transform="translate(-34.61 -41.26)"/><path d="M56,166.75h.4v2.51H56Z" transform="translate(-34.61 -41.26)"/><path d="M57.3,167.13h0v2.13h-.4v-2.51h.56l1.21,2.13h0v-2.14h.4v2.52h-.56Z" transform="translate(-34.61 -41.26)"/><path d="M60.67,167.88H62V168a1.44,1.44,0,0,1-.1.5,1.55,1.55,0,0,1-.25.41,1.27,1.27,0,0,1-1.41.27,1.21,1.21,0,0,1-.4-.28,1.29,1.29,0,0,1-.26-.42,1.6,1.6,0,0,1,0-1,1.41,1.41,0,0,1,.26-.42,1.8,1.8,0,0,1,.4-.28,1.28,1.28,0,0,1,.51-.09,1.17,1.17,0,0,1,.37,0l.29.11a1.92,1.92,0,0,1,.22.18,1.63,1.63,0,0,1,.17.2l-.38.18a1,1,0,0,0-.26-.24.86.86,0,0,0-.41-.1,1,1,0,0,0-.34.07.86.86,0,0,0-.26.2.92.92,0,0,0-.18.3,1.05,1.05,0,0,0,0,.7.83.83,0,0,0,.18.3.86.86,0,0,0,.26.2.8.8,0,0,0,.34.07,1.06,1.06,0,0,0,.31,0,.71.71,0,0,0,.26-.16.69.69,0,0,0,.16-.22,1,1,0,0,0,.07-.29h-.83Z" transform="translate(-34.61 -41.26)"/><path d="M217.3,101a.48.48,0,0,1,.08-.16.58.58,0,0,1,.17-.18,1.61,1.61,0,0,1,.28-.17,1.21,1.21,0,0,1,.38-.06,1,1,0,0,1,.48.11.7.7,0,0,1,.31.28.71.71,0,0,1,.11.4.67.67,0,0,1-.06.28.69.69,0,0,1-.16.22.53.53,0,0,1-.21.11.5.5,0,0,1,.24.09.7.7,0,0,1,.21.24.77.77,0,0,1,.08.34.89.89,0,0,1-.14.47.9.9,0,0,1-.34.33,1.1,1.1,0,0,1-.53.11,1.33,1.33,0,0,1-.49-.09.93.93,0,0,1-.33-.26.81.81,0,0,1-.17-.28l.42-.21a.75.75,0,0,0,.1.2,1.54,1.54,0,0,0,.19.17.58.58,0,0,0,.28.07.6.6,0,0,0,.3-.07.41.41,0,0,0,.18-.19.4.4,0,0,0,.06-.26.41.41,0,0,0-.07-.26.45.45,0,0,0-.2-.16h-.33v-.34h.08a.69.69,0,0,0,.24-.05.44.44,0,0,0,.17-.16.38.38,0,0,0,.06-.23.43.43,0,0,0-.12-.31.48.48,0,0,0-.36-.12.45.45,0,0,0-.23,0,.34.34,0,0,0-.16.1.4.4,0,0,0-.1.12v.08Z" transform="translate(-34.61 -41.26)"/><path d="M220.68,101.45a.76.76,0,0,1,.44.11.92.92,0,0,1,.34.34.86.86,0,0,1,.13.49,1,1,0,0,1-.14.51,1.06,1.06,0,0,1-.37.36,1.19,1.19,0,0,1-1,0,1,1,0,0,1-.5-.89,1.22,1.22,0,0,1,.11-.56,1.59,1.59,0,0,1,.26-.41l.76-1h.54l-.92,1.12a.3.3,0,0,1,.13-.09A.58.58,0,0,1,220.68,101.45Zm-.12,1.55a.61.61,0,0,0,.3-.08.73.73,0,0,0,.22-.21.65.65,0,0,0,.08-.31.6.6,0,0,0-.08-.29.63.63,0,0,0-.22-.21.61.61,0,0,0-.3-.08.6.6,0,0,0-.29.08.63.63,0,0,0-.22.21.6.6,0,0,0-.08.29.65.65,0,0,0,.08.31.88.88,0,0,0,.22.21A.6.6,0,0,0,220.56,103Z" transform="translate(-34.61 -41.26)"/><path d="M223.06,101.45a.78.78,0,0,1,.44.11.92.92,0,0,1,.34.34,1,1,0,0,1,.13.49.84.84,0,0,1-.14.51,1.06,1.06,0,0,1-.37.36,1.19,1.19,0,0,1-1,0,.92.92,0,0,1-.37-.36,1.08,1.08,0,0,1-.14-.53,1.38,1.38,0,0,1,.12-.56,1.36,1.36,0,0,1,.26-.41l.77-1h.54l-.93,1.12a.42.42,0,0,1,.14-.09A.69.69,0,0,1,223.06,101.45Zm-.12,1.55a.61.61,0,0,0,.3-.08.73.73,0,0,0,.22-.21.55.55,0,0,0,.07-.31.59.59,0,0,0-.07-.29.63.63,0,0,0-.22-.21.61.61,0,0,0-.3-.08.6.6,0,0,0-.29.08.63.63,0,0,0-.22.21.6.6,0,0,0-.08.29.65.65,0,0,0,.08.31.88.88,0,0,0,.22.21.62.62,0,0,0,.33.08Z" transform="translate(-34.61 -41.26)"/><path d="M132.14,206.54a1.09,1.09,0,0,1-.5-.1.87.87,0,0,1-.35-.31.77.77,0,0,1-.13-.42.94.94,0,0,1,.07-.37.75.75,0,0,1,.19-.24,1.28,1.28,0,0,1,.27-.16,1.13,1.13,0,0,1-.2-.13.6.6,0,0,1-.14-.21.51.51,0,0,1-.06-.3.58.58,0,0,1,.11-.38.86.86,0,0,1,.31-.26,1.08,1.08,0,0,1,.43-.1,1,1,0,0,1,.43.1.79.79,0,0,1,.31.26.66.66,0,0,1,.1.38.65.65,0,0,1-.11.41.73.73,0,0,1-.29.23.92.92,0,0,1,.27.16.63.63,0,0,1,.19.24.81.81,0,0,1,0,.79,1,1,0,0,1-.35.31A1.09,1.09,0,0,1,132.14,206.54Zm0-.4a.5.5,0,0,0,.43-.24.47.47,0,0,0,.07-.25.48.48,0,0,0-.25-.43.54.54,0,0,0-.25-.06.51.51,0,0,0-.25.06.48.48,0,0,0-.25.43.57.57,0,0,0,.06.25.52.52,0,0,0,.19.17A.43.43,0,0,0,132.14,206.14Zm0-1.35a.35.35,0,0,0,.22-.06.33.33,0,0,0,.15-.16.36.36,0,0,0,.06-.2.4.4,0,0,0-.06-.22.57.57,0,0,0-.15-.16.59.59,0,0,0-.22-.05.5.5,0,0,0-.21.05.49.49,0,0,0-.16.16.4.4,0,0,0-.06.22.36.36,0,0,0,.06.2.35.35,0,0,0,.16.16A.37.37,0,0,0,132.14,204.79Z" transform="translate(-34.61 -41.26)"/><path d="M133.92,205.85a.27.27,0,0,0,.06.1.2.2,0,0,0,.09.11.39.39,0,0,0,.16.1h.23a.51.51,0,0,0,.41-.17.63.63,0,0,0,.14-.44.53.53,0,0,0-.14-.4.45.45,0,0,0-.36-.14.7.7,0,0,0-.25.05.66.66,0,0,0-.17.12.42.42,0,0,0-.09.14l-.39-.14.24-1.55h1.49v.4h-1.09l-.12.79.07-.06.18-.09h.26a.79.79,0,0,1,.4.1.7.7,0,0,1,.31.28,1,1,0,0,1,.13.51,1.13,1.13,0,0,1-.13.54.93.93,0,0,1-.35.36,1.07,1.07,0,0,1-.53.13,1.32,1.32,0,0,1-.39-.06,1,1,0,0,1-.28-.14,1.07,1.07,0,0,1-.18-.19.86.86,0,0,1-.1-.16Z" transform="translate(-34.61 -41.26)"/><path d="M42.37,100.8a.59.59,0,0,0-.29.07,1.12,1.12,0,0,0-.21.17l-.13.17-.05.09-.4-.18V101a.57.57,0,0,1,.12-.18,1,1,0,0,1,.2-.2,1,1,0,0,1,.34-.2,1.54,1.54,0,0,1,.42-.07,1.76,1.76,0,0,1,.45.07,1,1,0,0,1,.29.2,1.22,1.22,0,0,1,.17.29,1.33,1.33,0,0,1,0,.34.81.81,0,0,1-.09.37A1.62,1.62,0,0,1,43,102a3.11,3.11,0,0,1-.29.33l-.29.27-.24.2-.13.09H43.3v.41H41.37v-.37l.18-.14.31-.24.34-.3c.11-.11.23-.22.33-.34a3.43,3.43,0,0,0,.24-.33.62.62,0,0,0,.09-.32.46.46,0,0,0-.12-.37A.49.49,0,0,0,42.37,100.8Z" transform="translate(-34.61 -41.26)"/><path d="M43.72,101.89a2.11,2.11,0,0,1,.1-.66,1.29,1.29,0,0,1,.25-.46,1,1,0,0,1,.36-.27.91.91,0,0,1,.82,0,.77.77,0,0,1,.35.27,1.31,1.31,0,0,1,.26.46,2.1,2.1,0,0,1,.08.66,2.22,2.22,0,0,1-.08.68,1.4,1.4,0,0,1-.26.46.75.75,0,0,1-.35.26,1,1,0,0,1-.82,0,.83.83,0,0,1-.36-.26,1.38,1.38,0,0,1-.25-.46A2.24,2.24,0,0,1,43.72,101.89Zm.47,0a2.09,2.09,0,0,0,.08.61.88.88,0,0,0,.24.36.55.55,0,0,0,.33.11.5.5,0,0,0,.33-.12.77.77,0,0,0,.23-.36,2.19,2.19,0,0,0,0-1.19.86.86,0,0,0-.23-.36.51.51,0,0,0-.33-.13.49.49,0,0,0-.33.13.88.88,0,0,0-.24.36A2,2,0,0,0,44.19,101.89Z" transform="translate(-34.61 -41.26)"/><path d="M95.58,46a.5.5,0,0,0-.29.07,1.12,1.12,0,0,0-.22.16l-.13.18,0,.08-.4-.18v-.09a1.18,1.18,0,0,1,.11-.19,1.89,1.89,0,0,1,.2-.2,1.34,1.34,0,0,1,.31-.17,1,1,0,0,1,.42-.06,1.1,1.1,0,0,1,.44.07.83.83,0,0,1,.3.2.78.78,0,0,1,.16.28,1,1,0,0,1,0,.34.91.91,0,0,1-.08.37,2.77,2.77,0,0,1-.22.37,2.89,2.89,0,0,1-.29.32c-.09.1-.2.19-.29.28l-.24.19-.13.09h1.23v.41H94.53V48.1l.19-.14.3-.24.34-.3c.11-.1.23-.23.33-.34a2.13,2.13,0,0,0,.25-.34.64.64,0,0,0,.08-.3.47.47,0,0,0-.12-.39A.6.6,0,0,0,95.58,46Z" transform="translate(-34.61 -41.26)"/><path d="M98,46a.5.5,0,0,0-.29.07.83.83,0,0,0-.21.16l-.13.18v.08l-.4-.18v-.09a.72.72,0,0,1,.11-.19,1.26,1.26,0,0,1,.2-.2,1.17,1.17,0,0,1,.31-.17,1,1,0,0,1,.41-.06,1.18,1.18,0,0,1,.45.07.72.72,0,0,1,.29.2.68.68,0,0,1,.17.28,1.33,1.33,0,0,1,0,.34.78.78,0,0,1-.09.37,2.71,2.71,0,0,1-.21.37c-.09.11-.19.22-.29.32l-.3.28-.23.19-.13.09h1.23v.41H97V48.1l.18-.14.31-.24.34-.3c.11-.1.23-.23.33-.34a2.08,2.08,0,0,0,.24-.34.58.58,0,0,0,.11-.3.55.55,0,0,0-.12-.39A.59.59,0,0,0,98,46Z" transform="translate(-34.61 -41.26)"/><text class="cls-7" transform="translate(173.5 133.51)">20</text><text class="cls-7" transform="translate(95.21 210.77)"><tspan class="cls-8">6</tspan><tspan x="2.43" y="0">93</tspan></text><text class="cls-7" transform="translate(31.69 204.65)">1600</text><text class="cls-7" transform="translate(161.48 204.65)">999</text><text class="cls-7" transform="translate(126.68 7.21)">110</text><text class="cls-9" transform="translate(16.35 133.51)">7<tspan class="cls-10" x="2.02" y="0">0</tspan></text><path d="M188.21,239.36v-4.2h.93v2.05a.48.48,0,0,1,.14-.2,1.22,1.22,0,0,1,.73-.25,1.16,1.16,0,0,1,.63.18,1.21,1.21,0,0,1,.42.48,1.65,1.65,0,0,1,0,1.34,1.08,1.08,0,0,1-.42.48,1.16,1.16,0,0,1-1,.11,1.17,1.17,0,0,1-.3-.19.7.7,0,0,1-.2-.22v.4Zm2.09-1.25a.55.55,0,0,0-.08-.31.58.58,0,0,0-.2-.21.62.62,0,0,0-.59,0,.63.63,0,0,0-.22.21.65.65,0,0,0-.08.31.59.59,0,0,0,.29.52.57.57,0,0,0,.31.07.53.53,0,0,0,.28-.07.6.6,0,0,0,.21-.21.68.68,0,0,0,.08-.31Z" transform="translate(-34.61 -41.26)"/><path d="M193.59,239.36V239a1.09,1.09,0,0,1-.13.17,1,1,0,0,1-.3.21.91.91,0,0,1-.43.1,1.19,1.19,0,0,1-.63-.19,1.08,1.08,0,0,1-.43-.47,1.5,1.5,0,0,1,0-1.34,1.32,1.32,0,0,1,.43-.48,1.18,1.18,0,0,1,.63-.18,1.16,1.16,0,0,1,.42.08,1,1,0,0,1,.28.17.58.58,0,0,1,.16.19v-.36h.92v2.5Zm-1.17-1.28a.64.64,0,0,0,.08.3.59.59,0,0,0,.8.21.58.58,0,0,0,.2-.21.65.65,0,0,0,.08-.31.68.68,0,0,0-.08-.31.59.59,0,0,0-1,0,.61.61,0,0,0-.08.32Z" transform="translate(-34.61 -41.26)"/><path d="M196.22,236.78a3.42,3.42,0,0,1,.45,0,1.4,1.4,0,0,1,.35.1.53.53,0,0,1,.17.08l-.3.55a1.06,1.06,0,0,0-.21-.11.84.84,0,0,0-.35-.07.53.53,0,0,0-.25,0,.13.13,0,0,0-.1.13.16.16,0,0,0,.11.15,1.19,1.19,0,0,0,.32.1,2.26,2.26,0,0,1,.37.11.75.75,0,0,1,.32.24.59.59,0,0,1,.13.41.74.74,0,0,1-.12.43.69.69,0,0,1-.29.27,1.23,1.23,0,0,1-.41.13,3,3,0,0,1-.42.05,2.14,2.14,0,0,1-.5-.06,1.06,1.06,0,0,1-.34-.12l-.19-.1.31-.61a1.1,1.1,0,0,0,.26.15.91.91,0,0,0,.37.08.81.81,0,0,0,.31-.06.15.15,0,0,0,.1-.15.12.12,0,0,0-.05-.12.28.28,0,0,0-.15-.08.9.9,0,0,0-.22-.06l-.27-.08a.89.89,0,0,1-.25-.14.55.55,0,0,1-.2-.23.76.76,0,0,1-.08-.33.57.57,0,0,1,.17-.41.86.86,0,0,1,.42-.25A1.61,1.61,0,0,1,196.22,236.78Z" transform="translate(-34.61 -41.26)"/><path d="M198.22,236.33a.51.51,0,0,1-.52-.5h0a.5.5,0,0,1,.15-.37.51.51,0,0,1,.63-.09.5.5,0,0,1,.19.19.5.5,0,0,1-.08.64A.46.46,0,0,1,198.22,236.33Zm-.47,3v-2.5h.91v2.5Z" transform="translate(-34.61 -41.26)"/><path d="M200.67,238.7a.49.49,0,0,0,.29-.06l.15-.09.43.62-.17.11a1.76,1.76,0,0,1-.3.1,1.85,1.85,0,0,1-1.16-.11,1.19,1.19,0,0,1-.51-.46,1.45,1.45,0,0,1,0-1.4,1.22,1.22,0,0,1,.51-.47,1.61,1.61,0,0,1,.75-.16,1.63,1.63,0,0,1,.71.16.59.59,0,0,1,.17.1l-.44.63-.07-.06-.14-.07h-.22a.43.43,0,0,0-.27.08.57.57,0,0,0-.3.51.65.65,0,0,0,.08.31.56.56,0,0,0,.22.21A.5.5,0,0,0,200.67,238.7Z" transform="translate(-34.61 -41.26)"/><path d="M204,239.36v-.46a.66.66,0,0,1-.14.2,1.14,1.14,0,0,1-.3.23,1.12,1.12,0,0,1-.47.11,1.39,1.39,0,0,1-.63-.18,1.14,1.14,0,0,1-.44-.46,1.53,1.53,0,0,1,0-1.38,1.19,1.19,0,0,1,1.08-.64,1.17,1.17,0,0,1,.45.09,1.34,1.34,0,0,1,.3.21.51.51,0,0,1,.15.21v-.43h.65v2.5Zm-1.5-1.28a.79.79,0,0,0,.1.42.74.74,0,0,0,.65.37.69.69,0,0,0,.64-.38.75.75,0,0,0,.09-.41.76.76,0,0,0-.09-.42.7.7,0,0,0-.26-.28.72.72,0,0,0-.38-.1.78.78,0,0,0-.37.09.93.93,0,0,0-.28.28.8.8,0,0,0-.1.43Z" transform="translate(-34.61 -41.26)"/><path d="M205.93,239.36h-.65v-4.2h.65Z" transform="translate(-34.61 -41.26)"/><path d="M207.31,239.36h-.66v-4.2h.66Z" transform="translate(-34.61 -41.26)"/><path d="M209.12,238.77l.79-1.91h.65l-1.7,3.76h-.61l.57-1.27-1-2.5h.66Z" transform="translate(-34.61 -41.26)"/><circle cx="176.41" cy="197.71" r="0.45"/></svg>