<svg id="Layer_1" data-name="Layer 1" xmlns="http://www.w3.org/2000/svg" viewBox="0 0 171.55 189.66"><defs><style>.cls-1,.cls-6{fill:none;stroke-miterlimit:10;}.cls-1{stroke:#333;}.cls-2{fill:#fafafa;}.cls-3{fill:#333;}.cls-4{fill:#fff;}.cls-5{fill:#050606;}.cls-6{stroke:#231f20;}.cls-10,.cls-7,.cls-8,.cls-9{isolation:isolate;}.cls-10,.cls-7,.cls-9{font-size:3.26px;font-family:BeVietnamPro-Medium, Be Vietnam Pro;font-weight:500;}.cls-9{letter-spacing:-0.02em;}.cls-10{letter-spacing:-0.04em;}</style></defs><circle class="cls-1" cx="87.06" cy="71.26" r="58.98"/><circle class="cls-2" cx="56.16" cy="18.43" r="10.69"/><circle class="cls-2" cx="115.51" cy="18.43" r="10.69"/><circle class="cls-2" cx="143.01" cy="55.98" r="10.69"/><circle class="cls-2" cx="32.63" cy="55.98" r="10.69"/><circle class="cls-2" cx="35.7" cy="100.33" r="10.69"/><circle class="cls-2" cx="88.37" cy="130.25" r="10.69"/><circle class="cls-2" cx="137.09" cy="100.33" r="10.69"/><path d="M134.92,175.28a.24.24,0,0,0-.25.22h0a.23.23,0,0,0,.24.23h5.26a.23.23,0,0,0,.24-.23h0a.23.23,0,0,0-.23-.23h-5.26Z" transform="translate(-50.1 -47.72)"/><path d="M131.94,174.38v2.52l1.55,1.45,1.56-1.52a.28.28,0,0,1,.17-.07h5.28a.22.22,0,0,1,.23.2v3.6h3.58v-6.14a.12.12,0,0,0-.12-.12H132.06a.06.06,0,1,0-.09.09Zm-.47,2.62v-2.62a.54.54,0,0,1,.18-.41.58.58,0,0,1,.41-.17h12.12a.57.57,0,0,1,.59.55v0h0v6.38a.23.23,0,0,1-.24.23h-4a.22.22,0,0,1-.22-.22h0v-3.53h-5l-1.7,1.6h0a.24.24,0,0,1-.33,0h0l-1.79-1.67h0a.23.23,0,0,1-.08-.16Z" transform="translate(-50.1 -47.72)"/><path d="M145,175.26a.52.52,0,0,0-.22-.14v2A.61.61,0,0,0,145,177a.48.48,0,0,0,.14-.34V175.6A.48.48,0,0,0,145,175.26Zm-.46-.61h.12a.86.86,0,0,1,.66.27,1,1,0,0,1,.29.67v1.11a1,1,0,0,1-.29.67,1,1,0,0,1-.66.27h-.12a.22.22,0,0,1-.23-.21h0v-2.55a.23.23,0,0,1,.22-.23Z" transform="translate(-50.1 -47.72)"/><path d="M133.6,172.79h-.27v1h.27Zm-.5-.47h.78a.22.22,0,0,1,.23.22h0V174a.23.23,0,0,1-.23.23h-.78a.23.23,0,0,1-.24-.23h0v-1.49a.24.24,0,0,1,.22-.23Z" transform="translate(-50.1 -47.72)"/><path d="M133.23,179.55a.25.25,0,0,0,.19.27.25.25,0,0,0,.28-.19v-1a.23.23,0,0,0-.19-.27.25.25,0,0,0-.28.19Z" transform="translate(-50.1 -47.72)"/><path d="M145.45,181h-14v2.15h14Zm-14.2-.47h14.44a.23.23,0,0,1,.23.24h0v2.64a.23.23,0,0,1-.22.23H131.25a.22.22,0,0,1-.22-.22h0v-2.63a.23.23,0,0,1,.22-.23Z" transform="translate(-50.1 -47.72)"/><path d="M142.85,175.81a.53.53,0,0,0-.31-.13.54.54,0,0,0-.33.13.46.46,0,0,0,.33.79.44.44,0,0,0,.31-.13.45.45,0,0,0,0-.64h0Zm-.31-.6a1,1,0,0,1,.65.28,1,1,0,0,1,0,1.31,1,1,0,0,1-.65.28,1,1,0,0,1-.67-.28.91.91,0,0,1,0-1.27l0,0h0A.94.94,0,0,1,142.54,175.21Z" transform="translate(-50.1 -47.72)"/><path d="M143,178.5h-.83a.13.13,0,0,0-.13.12v.9a.13.13,0,0,0,.13.13H143a.13.13,0,0,0,.12-.13v-.83a.15.15,0,0,0-.12-.13Zm-.83-.47H143a.61.61,0,0,1,.59.59v.9a.56.56,0,0,1-.18.42.58.58,0,0,1-.41.17h-.83a.58.58,0,0,1-.6-.57v-.85a.66.66,0,0,1,.17-.41.55.55,0,0,1,.43-.18Z" transform="translate(-50.1 -47.72)"/><path d="M132.6,181.8a.23.23,0,0,0-.24.22v0h0a.22.22,0,0,0,.2.23h11.79a.24.24,0,0,0,.24-.23h0a.26.26,0,0,0-.24-.24Z" transform="translate(-50.1 -47.72)"/><path class="cls-3" d="M189.9,150l-2.26-1.7,5.17-2.18,2.34,1.7L189.93,150Zm2.69,2.82-5.2,2.3v-6.45l2.33,1.71H190l2.68-1.08v3.48Zm-10.83-3.47,2.69,1.08h.18l2.34-1.72v6.44l-5.21-2.3v-3.49Zm-.18-3.19,5.18,2.17-.21.14L184.46,150l-5.22-2.14,2.34-1.71Zm2.88-4.33,2.3,1.67-5.18,2.17-2.33-1.7,5.21-2.14Zm5.45,0,5.22,2.14-2.33,1.7-5.17-2.17,2.29-1.67Zm-2.68,6.27L182.14,146l5.09-2.13L192.3,146Zm8.48-.32L193.2,146l2.51-1.79a.2.2,0,0,0,.09-.19.23.23,0,0,0-.13-.17L190,141.5a.21.21,0,0,0-.19,0l-2.59,1.8-2.56-1.86a.2.2,0,0,0-.21,0l-5.67,2.34a.2.2,0,0,0-.13.17.18.18,0,0,0,.08.18l2.52,1.79-2.52,1.8a.18.18,0,0,0-.08.18.2.2,0,0,0,.13.17l2.62,1.08v3.79a.18.18,0,0,0,.11.19l5.63,2.49h.12l5.62-2.49a.2.2,0,0,0,.12-.19v-3.78l2.62-1.08a.22.22,0,0,0,.12-.17.21.21,0,0,0-.08-.19Z" transform="translate(-50.1 -47.72)"/><path class="cls-4" d="M201.7,102.55v9.73H183.37V93.94H201.7v8.47a.37.37,0,0,0-.36-.18h-2.9c-.06-.26-.1-.5-.16-.73a2.38,2.38,0,0,0-2.4-1.85c-3.15,0-6.29,0-9.44,0A2.74,2.74,0,0,0,184,101a3.82,3.82,0,0,0-.49,3.07,3.07,3.07,0,0,0,3.08,2.51c3,0,6,0,9,0a9.24,9.24,0,0,0,1-.06,6.07,6.07,0,0,0,4.19-2.43A6.43,6.43,0,0,0,201.7,102.55Z" transform="translate(-50.1 -47.72)"/><path d="M201.7,102.55a6.43,6.43,0,0,1-.85,1.54,6.07,6.07,0,0,1-4.19,2.43,9.24,9.24,0,0,1-1,.06c-3,0-6,0-9,0a3.07,3.07,0,0,1-3.08-2.51A3.82,3.82,0,0,1,184,101a2.74,2.74,0,0,1,2.43-1.34c3.15,0,6.29,0,9.44,0a2.38,2.38,0,0,1,2.4,1.85c.06.23.1.47.16.73h2.9a.37.37,0,0,1,.36.18Zm-7.12-2.39h-8.19a2.09,2.09,0,0,0-1.82.92,3.34,3.34,0,0,0-.25,3.72,2.3,2.3,0,0,0,2.19,1.3c2.62,0,5.24,0,7.86,0h.22A3.87,3.87,0,0,1,194.58,100.16Zm3.9,2.58c-.12.42-.21.82-.36,1.2a2,2,0,0,1-1.94,1.31c-.53,0-1.06,0-1.59,0l-.18,0a2.39,2.39,0,0,0,.93.69,2.6,2.6,0,0,0,1.51.06,5.63,5.63,0,0,0,3.67-2.28c.22-.31.39-.64.6-1Zm-3.47.84a1.34,1.34,0,0,0,1.47,1.16,1.54,1.54,0,0,0,1.2-1,2.8,2.8,0,0,0,.22-1.69,2.36,2.36,0,0,0-.69-1.45,2,2,0,0,0-3,.76h.18c.49,0,1,0,1.48,0a1.47,1.47,0,0,1,.51.08,1.42,1.42,0,0,1,.75,1.79c-.1.3-.13.33-.44.33H195Zm-.14-1.72c-.3,0-.58,0-.87,0a.28.28,0,0,0-.13.11,3.54,3.54,0,0,0,.16,2.69s.07.09.11.09h.93A2.34,2.34,0,0,1,194.87,101.86Zm.08,1.23h1.28c.47,0,.52-.07.43-.53v0a.78.78,0,0,0-.59-.65.76.76,0,0,0-.79.28A1.63,1.63,0,0,0,195,103.09Z" transform="translate(-50.1 -47.72)"/><path class="cls-4" d="M194.58,100.16a3.87,3.87,0,0,0,0,5.93h-.22c-2.62,0-5.24,0-7.86,0a2.3,2.3,0,0,1-2.19-1.3,3.34,3.34,0,0,1,.25-3.72,2.09,2.09,0,0,1,1.82-.92h8.19Z" transform="translate(-50.1 -47.72)"/><path class="cls-4" d="M198.48,102.74h2.64c-.21.35-.38.68-.6,1a5.63,5.63,0,0,1-3.67,2.28,2.6,2.6,0,0,1-1.51-.06,2.39,2.39,0,0,1-.93-.69l.18,0c.53,0,1.06,0,1.59,0a2,2,0,0,0,1.94-1.31C198.27,103.56,198.36,103.16,198.48,102.74Z" transform="translate(-50.1 -47.72)"/><path class="cls-4" d="M195,103.58h1.64c.31,0,.34,0,.44-.33a1.42,1.42,0,0,0-.75-1.79,1.47,1.47,0,0,0-.51-.08c-.49,0-1,0-1.48,0h-.18a2,2,0,0,1,3-.76,2.36,2.36,0,0,1,.69,1.45,2.8,2.8,0,0,1-.22,1.69,1.54,1.54,0,0,1-1.2,1A1.34,1.34,0,0,1,195,103.58Z" transform="translate(-50.1 -47.72)"/><path class="cls-4" d="M194.87,101.86a2.34,2.34,0,0,0,.2,2.9h-.93s-.09,0-.11-.09a3.54,3.54,0,0,1-.16-2.69.28.28,0,0,1,.13-.11C194.29,101.85,194.57,101.86,194.87,101.86Z" transform="translate(-50.1 -47.72)"/><path class="cls-4" d="M195,103.09a1.63,1.63,0,0,1,.33-.92.76.76,0,0,1,.79-.28.78.78,0,0,1,.59.65v0c.09.46,0,.53-.43.53Z" transform="translate(-50.1 -47.72)"/><path class="cls-4" d="M92.31,151.33v4H78.56V141.55H92.31v1.66s0,0,0,0a1.15,1.15,0,0,0-1.24-1H79.84a1.94,1.94,0,0,0-.34,0,1.14,1.14,0,0,0-.91,1.17v7.64a1.14,1.14,0,0,0,1.23,1.23h4a2,2,0,0,1-.37.91,3,3,0,0,0-.27.54,1,1,0,0,0,0,.31c0,.52,0,.52.52.52h3.82a.21.21,0,0,0,.22-.23,1.55,1.55,0,0,0-.33-1.22,1.74,1.74,0,0,1-.25-.49,2.79,2.79,0,0,1-.09-.34h4.09a1.14,1.14,0,0,0,1.14-.91S92.31,151.35,92.31,151.33Z" transform="translate(-50.1 -47.72)"/><path d="M92.31,151.33s0,0,0,.06a1.14,1.14,0,0,1-1.14.91H87.06a2.79,2.79,0,0,0,.09.34,1.74,1.74,0,0,0,.25.49,1.55,1.55,0,0,1,.33,1.22.21.21,0,0,1-.22.23H83.69c-.53,0-.53,0-.52-.52a1,1,0,0,1,0-.31,3,3,0,0,1,.27-.54,2,2,0,0,0,.37-.91h-4a1.14,1.14,0,0,1-1.23-1.23v-7.64a1.14,1.14,0,0,1,.91-1.17,1.94,1.94,0,0,1,.34,0H91.06a1.15,1.15,0,0,1,1.24,1s0,0,0,0ZM79,150.46H91.85s0-.06,0-.09v-7a.69.69,0,0,0-.74-.71H79.78a.83.83,0,0,0-.22,0,.67.67,0,0,0-.52.69v7.05Zm12.83.48H79.05a.75.75,0,0,0,.8.91H91.21a.67.67,0,0,0,.62-.52A2.33,2.33,0,0,0,91.87,150.94Zm-5.26,1.37H84.29a2.42,2.42,0,0,1-.55,1.28.67.67,0,0,0-.11.53h3.64a.69.69,0,0,0-.11-.53A2.45,2.45,0,0,1,86.61,152.31Z" transform="translate(-50.1 -47.72)"/><path class="cls-4" d="M79,150.46v-7.05a.67.67,0,0,1,.52-.69.83.83,0,0,1,.22,0H91.12a.69.69,0,0,1,.74.71v7s0,0,0,.09Zm1.15-1.39,0,0h-.4a.23.23,0,0,0-.26.22.25.25,0,0,0,.26.24h9.71l.16,0a.2.2,0,0,0,.16-.23.21.21,0,0,0-.19-.21h-.71s0,0,0-.07v-3.66a.15.15,0,0,1,0-.08l.67-.67v.55c0,.16.09.26.22.26a.23.23,0,0,0,.24-.26v-1.06c0-.19-.09-.28-.27-.28H88.6a.23.23,0,0,0-.17.24.19.19,0,0,0,.2.2h.56l-1.9,1.9-.47-.61c-.14-.19-.25-.2-.43-.05l-1.11,1-.7.62-.09-.13-1.08-1.63c-.15-.22-.27-.24-.47-.06-.85.7-1.69,1.41-2.55,2.11a.49.49,0,0,0-.2.45C80.2,148.28,80.19,148.68,80.19,149.07Zm10.41-1.35h.54a.23.23,0,1,0,0-.45c-.37,0-.73,0-1.1,0a.23.23,0,0,0-.25.23c0,.13.1.22.26.22Zm0-.91h.53c.16,0,.27-.09.27-.23a.23.23,0,0,0-.26-.23H90.05a.23.23,0,0,0-.25.22c0,.14.1.23.25.24Zm.46,1.37c-.23,0-.34.07-.35.22s.11.24.35.24.34-.08.34-.23S91.29,148.18,91.06,148.18Z" transform="translate(-50.1 -47.72)"/><path class="cls-4" d="M91.87,150.94a2.33,2.33,0,0,1,0,.38.67.67,0,0,1-.62.52H79.85a.75.75,0,0,1-.8-.91Z" transform="translate(-50.1 -47.72)"/><path class="cls-4" d="M86.61,152.31a2.45,2.45,0,0,0,.55,1.28.69.69,0,0,1,.11.53H83.63a.67.67,0,0,1,.11-.53,2.42,2.42,0,0,0,.55-1.28Z" transform="translate(-50.1 -47.72)"/><path d="M80.19,149.07c0-.39,0-.79,0-1.18a.49.49,0,0,1,.2-.45c.86-.7,1.7-1.41,2.55-2.11.2-.18.32-.16.47.06L84.49,147l.09.13.7-.62,1.11-1c.18-.15.29-.14.43.05l.47.61,1.9-1.9h-.56a.19.19,0,0,1-.2-.2.23.23,0,0,1,.17-.24h1.16c.18,0,.27.09.27.28v1.06a.23.23,0,0,1-.24.26c-.13,0-.22-.1-.22-.26v-.55l-.67.67a.15.15,0,0,0,0,.08V149s0,0,0,.07h.71a.21.21,0,0,1,.19.21.2.2,0,0,1-.16.23l-.16,0H79.76a.25.25,0,0,1-.26-.24.23.23,0,0,1,.26-.22h.4Zm8.23-3.31-.82.83a.3.3,0,0,0-.08.2c0,.72,0,1.44,0,2.17,0,0,0,.08,0,.13h.9Zm-1.37,3.33v-2.35s0-.07,0-.09l-.48-.65-.32.29a.23.23,0,0,0-.1.21v2.59Zm-4.12-3.16-.82.68a.21.21,0,0,0-.09.2V149a.57.57,0,0,0,0,.13h.9Zm.47,3.16h.9c0-.51,0-1,0-1.49a.31.31,0,0,0,0-.12c-.26-.39-.52-.79-.79-1.18l-.06-.08Zm2.27,0v-2.28h0l-.83.74a.14.14,0,0,0,0,.1c0,.45,0,.9,0,1.34a.11.11,0,0,0,.07.09Zm-5,0h.91v-2l-.88.74s0,.05,0,.08Z" transform="translate(-50.1 -47.72)"/><path d="M90.6,147.72h-.54c-.16,0-.26-.09-.26-.22a.23.23,0,0,1,.25-.23c.37,0,.73,0,1.1,0a.23.23,0,1,1,0,.45Z" transform="translate(-50.1 -47.72)"/><path d="M90.6,146.81h-.55c-.15,0-.26-.1-.25-.24a.23.23,0,0,1,.25-.22h1.09a.23.23,0,0,1,.26.23c0,.14-.11.22-.27.23Z" transform="translate(-50.1 -47.72)"/><path d="M91.06,148.18c.23,0,.34.07.34.23s-.11.23-.34.23-.35-.08-.35-.24S90.83,148.18,91.06,148.18Z" transform="translate(-50.1 -47.72)"/><path class="cls-4" d="M88.42,145.76v3.33h-.9c0-.05,0-.09,0-.13,0-.73,0-1.45,0-2.17a.3.3,0,0,1,.08-.2Z" transform="translate(-50.1 -47.72)"/><path class="cls-4" d="M87.05,149.09h-.91V146.5a.23.23,0,0,1,.1-.21l.32-.29.48.65s0,.06,0,.09v2.35Z" transform="translate(-50.1 -47.72)"/><path class="cls-4" d="M82.93,145.93v3.16H82a.57.57,0,0,1,0-.13v-2.15a.21.21,0,0,1,.09-.2Z" transform="translate(-50.1 -47.72)"/><path class="cls-4" d="M83.4,149.09v-2.87l.06.08c.27.39.53.79.79,1.18a.31.31,0,0,1,0,.12c0,.49,0,1,0,1.49Z" transform="translate(-50.1 -47.72)"/><path class="cls-4" d="M85.67,149.1h-.83a.11.11,0,0,1-.07-.09c0-.44,0-.89,0-1.34a.14.14,0,0,1,0-.1l.83-.74h0Z" transform="translate(-50.1 -47.72)"/><path class="cls-4" d="M80.65,149.09v-1.2s0-.07,0-.08l.88-.74v2Z" transform="translate(-50.1 -47.72)"/><path d="M91.16,106.59H89.37a1.56,1.56,0,0,0-3.1,0h-.34v-5h3.33l1.91,2.85v2.14Zm-3.36,1.26a.95.95,0,1,1,1-.95h0a.93.93,0,0,1-.93.95ZM78,106a1,1,0,0,1,.94,1,.94.94,0,0,1-1,.94,1,1,0,0,1,0-1.9Zm11.76-4.83a.31.31,0,0,0-.26-.14H85.91V99.24a.31.31,0,0,0-.31-.31H75.43a.31.31,0,0,0-.32.31h0v7.66a.32.32,0,0,0,.32.32h.89a1.57,1.57,0,0,0,3.13,0h1.09a.32.32,0,0,0,0-.63H79.46a1.56,1.56,0,1,0-3.12,0h-.63v-7h9.58v7H81.63a.32.32,0,0,0,0,.63h4.64a1.56,1.56,0,0,0,3.12,0H91.5a.32.32,0,0,0,.3-.32h0v-2.56a.34.34,0,0,0,0-.17Z" transform="translate(-50.1 -47.72)"/><path d="M76.82,102.5h.9a.31.31,0,0,0,.27-.35v0a.32.32,0,0,0-.27-.27h-.9a.33.33,0,0,0-.26.37A.32.32,0,0,0,76.82,102.5Z" transform="translate(-50.1 -47.72)"/><path d="M84.2,101.86H78.83a.32.32,0,0,0,0,.64H84.2a.33.33,0,0,0,.29-.34s0,0,0,0A.33.33,0,0,0,84.2,101.86Z" transform="translate(-50.1 -47.72)"/><path d="M84.2,103.64h-.89a.32.32,0,0,0-.37.26h0a.32.32,0,0,0,.26.37h1a.32.32,0,0,0,.27-.37h0A.32.32,0,0,0,84.2,103.64Z" transform="translate(-50.1 -47.72)"/><path d="M76.82,104.28H82.2a.32.32,0,0,0,.26-.37.3.3,0,0,0-.26-.27H76.82a.32.32,0,0,0-.26.36h0A.33.33,0,0,0,76.82,104.28Z" transform="translate(-50.1 -47.72)"/><path d="M87.11,103.84v-1.07h1.57l.68,1.07Zm1.7-1.7h-2a.31.31,0,0,0-.32.3h0v1.7a.31.31,0,0,0,.31.3H90a.32.32,0,0,0,.27-.16.31.31,0,0,0,0-.32l-1.16-1.7a.33.33,0,0,0-.26-.16Z" transform="translate(-50.1 -47.72)"/><path class="cls-4" d="M98.58,72.22V58.47h13.75V72.22Zm13.31-5.33a1.24,1.24,0,0,0-.4-.9l-5.61-5.6a1,1,0,0,0-1.18-.27l-2.85,1a.22.22,0,0,1-.27-.07l-1.93-1.93-.11-.1a.3.3,0,0,0-.35,0,.27.27,0,0,0-.16.29.46.46,0,0,0,.15.28c.65.67,1.31,1.32,2,2a.18.18,0,0,1,0,.22l-1,2.81a1.13,1.13,0,0,0,.3,1.27c1.85,1.84,3.7,3.68,5.54,5.54a1.26,1.26,0,0,0,1.85,0c.59-.62,1.21-1.21,1.81-1.82l1.76-1.75A1.25,1.25,0,0,0,111.89,66.89Z" transform="translate(-50.1 -47.72)"/><path d="M111.89,66.89a1.25,1.25,0,0,1-.39.91l-1.76,1.75c-.6.61-1.22,1.2-1.81,1.82a1.26,1.26,0,0,1-1.85,0c-1.84-1.86-3.69-3.7-5.54-5.54a1.13,1.13,0,0,1-.3-1.27l1-2.81a.18.18,0,0,0,0-.22c-.66-.66-1.32-1.31-2-2a.46.46,0,0,1-.15-.28.27.27,0,0,1,.16-.29.3.3,0,0,1,.35,0l.11.1L101.58,61a.22.22,0,0,0,.27.07l2.85-1a1,1,0,0,1,1.18.27l5.61,5.6A1.24,1.24,0,0,1,111.89,66.89ZM107,71.12a.58.58,0,0,0,.43-.2c1.19-1.2,2.39-2.39,3.58-3.58a.56.56,0,0,0,0-.89c-1.85-1.85-3.71-3.7-5.56-5.56a.49.49,0,0,0-.58-.14c-1,.34-1.92.66-2.88,1a.24.24,0,0,0-.15.16c-.33,1-.65,1.93-1,2.89a.46.46,0,0,0,.13.55l1.9,1.9,3.68,3.69A.62.62,0,0,0,107,71.12Z" transform="translate(-50.1 -47.72)"/><path class="cls-4" d="M107,71.12a.62.62,0,0,1-.44-.2l-3.68-3.69-1.9-1.9a.46.46,0,0,1-.13-.55c.33-1,.65-1.93,1-2.89a.24.24,0,0,1,.15-.16c1-.32,1.92-.64,2.88-1a.49.49,0,0,1,.58.14c1.85,1.86,3.71,3.71,5.56,5.56a.56.56,0,0,1,0,.89c-1.19,1.19-2.39,2.38-3.58,3.58A.58.58,0,0,1,107,71.12Zm-4.32-7.38a1.12,1.12,0,0,0,1.11,1.13A1.17,1.17,0,0,0,105,63.71a1.12,1.12,0,0,0-1.13-1.13A1.16,1.16,0,0,0,102.69,63.74Zm6.2,1.77a.34.34,0,0,0-.25-.37.35.35,0,0,0-.35.13l-2.93,2.92-.09.11a.32.32,0,0,0,0,.33.27.27,0,0,0,.28.16.57.57,0,0,0,.28-.14c.39-.37.77-.76,1.16-1.15.58-.58,1.17-1.16,1.75-1.75A1.46,1.46,0,0,0,108.89,65.51Zm-2.32,4.25a.74.74,0,0,0,.23-.16l2.89-2.88.1-.11a.32.32,0,0,0-.17-.5.33.33,0,0,0-.36.1l-3,3a.27.27,0,0,0-.07.08.33.33,0,0,0,0,.33A.37.37,0,0,0,106.57,69.76Z" transform="translate(-50.1 -47.72)"/><path d="M102.69,63.74a1.16,1.16,0,0,1,1.16-1.16A1.12,1.12,0,0,1,105,63.71a1.17,1.17,0,0,1-1.18,1.16A1.12,1.12,0,0,1,102.69,63.74Zm1.16-.5a.5.5,0,0,0-.5.5.46.46,0,0,0,.47.47.51.51,0,0,0,.5-.51A.46.46,0,0,0,103.85,63.24Z" transform="translate(-50.1 -47.72)"/><path d="M108.89,65.51a1.46,1.46,0,0,1-.15.24c-.58.59-1.17,1.17-1.75,1.75-.39.39-.77.78-1.16,1.15a.57.57,0,0,1-.28.14.27.27,0,0,1-.28-.16.32.32,0,0,1,0-.33l.09-.11,2.93-2.92a.35.35,0,0,1,.35-.13A.34.34,0,0,1,108.89,65.51Z" transform="translate(-50.1 -47.72)"/><path d="M106.57,69.76a.37.37,0,0,1-.35-.18.33.33,0,0,1,0-.33.27.27,0,0,1,.07-.08l3-3a.33.33,0,0,1,.36-.1.32.32,0,0,1,.17.5l-.1.11L106.8,69.6A.74.74,0,0,1,106.57,69.76Z" transform="translate(-50.1 -47.72)"/><path class="cls-4" d="M103.85,63.24a.46.46,0,0,1,.47.46.51.51,0,0,1-.5.51.46.46,0,0,1-.47-.47A.5.5,0,0,1,103.85,63.24Z" transform="translate(-50.1 -47.72)"/><path class="cls-5" d="M158.33,67c0-.52.55-1,1.26-1v3c-.71-.1-1.26-.52-1.26-1.06Zm14.58,1c0,.53-.55,1-1.26,1.06V66c.71.1,1.26.54,1.26,1.07ZM162.1,69V66.74a8.12,8.12,0,0,0,1-.25,10.61,10.61,0,0,0,1.47-.62,8.74,8.74,0,0,0,1.17-.72l1.32.7a14.38,14.38,0,0,0,1.5.68,4.37,4.37,0,0,0,.72.25V69a3.7,3.7,0,0,1-3.58,3.78,3.54,3.54,0,0,1-2.43-1.07h.47a.8.8,0,0,0,.65.39h.9a.78.78,0,1,0,.44-1.49.82.82,0,0,0-.44,0h-.9a.78.78,0,0,0-.7.49h-.89a4,4,0,0,1-.65-2.16Zm9.55-3.58V64.26A4.89,4.89,0,0,0,169.76,61a6.73,6.73,0,0,0-4.14-1.35,6.22,6.22,0,0,0-4,1.29,6,6,0,0,0-2,3.28v1.13A1.89,1.89,0,0,0,157.73,67v.94a1.89,1.89,0,0,0,2,1.69,2.39,2.39,0,0,0,.9,1.56v1.56a.3.3,0,0,0,.3.31.33.33,0,0,0,.31-.31h0V71.54a2.46,2.46,0,0,0,.89.16h.42a4.21,4.21,0,0,0,1.21,1,4,4,0,0,0,4,0A4.41,4.41,0,0,0,170,68.9V66.49h0V66.4h-.12a5.58,5.58,0,0,1-1.17-.4c-.92-.39-1.82-.83-2.7-1.31a.3.3,0,0,0-.34,0A8.74,8.74,0,0,1,163.11,66a9,9,0,0,1-1.13.31.26.26,0,0,0-.16.07.28.28,0,0,0-.23.28v2.42a4.53,4.53,0,0,0,.55,2.16h0a1.77,1.77,0,0,1-.9-.22V65.89a4.55,4.55,0,0,1,9,0V72.8h0a.3.3,0,0,0,.6,0V65.72a5.15,5.15,0,0,0-10.26,0V70.3a1.85,1.85,0,0,1-.32-1,.24.24,0,0,0,0-.12V65.86h0V64.3a5.36,5.36,0,0,1,1.79-2.92,5.6,5.6,0,0,1,3.63-1.16,6,6,0,0,1,3.76,1.22,4.2,4.2,0,0,1,1.65,2.84v1.5h0v3.49a.3.3,0,0,0,.29.3h0a2,2,0,0,0,2-1.61V67a1.88,1.88,0,0,0-1.86-1.66Z" transform="translate(-50.1 -47.72)"/><path d="M134.25,223.89c-.69-.22-1.34-.39-2-.64a.78.78,0,0,1-.39-.58c.21-1.29.44-2.57.72-3.85a1.86,1.86,0,0,1,1.12-1.3,6,6,0,0,1,3.9-.78,7.54,7.54,0,0,0,2.55-.11,4.25,4.25,0,0,1,4.36,2.85c.24,1,.33,2,.51,3a.65.65,0,0,1-.41.81h-.12c-.6.16-1.19.34-1.85.53v5.85a.7.7,0,0,1-.5.78,13.8,13.8,0,0,1-7.38,0,.68.68,0,0,1-.53-.78v-5.78Zm-.05-.78a4.33,4.33,0,0,0-.35-2.92c-.09-.14,0-.36,0-.54.19.08.49.12.53.24a7,7,0,0,1,.52,2c.07,2.45.05,4.9,0,7.35a.77.77,0,0,0,.72.9,15.19,15.19,0,0,0,5.78,0c.52-.1.71-.33.7-.9v-7.35a3.06,3.06,0,0,1,.61-2.08c.09-.1.32-.09.49-.11,0,.14.06.34,0,.44-.68.89-.45,2-.49,3,1.57,0,1.79-.27,1.65-1.64,0-.27-.11-.54-.13-.78a3.22,3.22,0,0,0-2.91-3.28.62.62,0,0,0-.69.19,3.2,3.2,0,0,1-4.27,0,.75.75,0,0,0-.61-.18,3.23,3.23,0,0,0-3,3.29,4,4,0,0,1-.11.68c-.17,1.48,0,1.63,1.49,1.79Zm5.53-5.71h-2.55A2.28,2.28,0,0,0,139.73,217.4Z" transform="translate(-50.1 -47.72)"/><path class="cls-2" d="M134.2,223.12h-.1c-1.56-.14-1.66-.29-1.48-1.79,0-.24.1-.47.11-.69a3.21,3.21,0,0,1,3-3.29.77.77,0,0,1,.6.18,3.2,3.2,0,0,0,4.27,0,.64.64,0,0,1,.7-.19,3.24,3.24,0,0,1,2.91,3.28,7.35,7.35,0,0,0,.11.82c.18,1.36-.1,1.65-1.63,1.64,0-1-.2-2.07.48-3,.07-.09,0-.28,0-.44-.16,0-.39,0-.48.12a3,3,0,0,0-.61,2.08v7.42c0,.56-.18.78-.7.89a14.85,14.85,0,0,1-5.79,0c-.51-.08-.73-.28-.72-.89,0-2.45,0-4.9,0-7.35a7.47,7.47,0,0,0-.51-2c0-.12-.36-.16-.55-.24a2,2,0,0,0,.05.54A4.28,4.28,0,0,1,134.2,223.12Z" transform="translate(-50.1 -47.72)"/><path class="cls-2" d="M139.73,217.42a2.28,2.28,0,0,1-2.55,0Z" transform="translate(-50.1 -47.72)"/><line class="cls-6" x1="77.68" y1="176.12" x2="46.38" y2="176.07"/><line class="cls-6" x1="130.34" y1="176.18" x2="99.06" y2="176.12"/><line class="cls-6" x1="88.31" y1="164.43" x2="88.38" y2="150.52"/><path d="M132.89,189.05h.36V191h.9v.32h-1.23Z" transform="translate(-50.1 -47.72)"/><path d="M135.18,189.05h.34l.84,2.24H136l-.18-.51h-.89l-.19.51h-.38Zm-.16,1.4h.68l-.32-1h0Z" transform="translate(-50.1 -47.72)"/><path d="M136.61,189.05h.7a1.09,1.09,0,0,1,.36,0,.59.59,0,0,1,.25.17.4.4,0,0,1,.1.33.7.7,0,0,1-.05.25l-.13.18a.38.38,0,0,1-.17.08h.15a.53.53,0,0,1,.15.11.48.48,0,0,1,.12.16.89.89,0,0,1,0,.23.77.77,0,0,1-.08.34.69.69,0,0,1-.23.22.89.89,0,0,1-.39.09h-.78Zm.36.95h.34a.41.41,0,0,0,.19-.05.34.34,0,0,0,.12-.12.48.48,0,0,0,0-.17.26.26,0,0,0-.11-.25.5.5,0,0,0-.27-.07h-.32Zm0,1h.34a.49.49,0,0,0,.24,0,.37.37,0,0,0,.12-.13v-.18a.33.33,0,0,0-.11-.25.37.37,0,0,0-.3-.1h-.35Z" transform="translate(-50.1 -47.72)"/><path d="M138.36,190.17a.9.9,0,0,1,.08-.46,1.09,1.09,0,0,1,.59-.62,1.24,1.24,0,0,1,.89,0,1,1,0,0,1,.36.25,1.47,1.47,0,0,1,.24.37,1.21,1.21,0,0,1,.08.46,1.38,1.38,0,0,1-.08.45,1.1,1.1,0,0,1-.23.37,1,1,0,0,1-.36.25,1.18,1.18,0,0,1-.46.09,1.12,1.12,0,0,1-.44-.09.9.9,0,0,1-.36-.25.91.91,0,0,1-.24-.37A1,1,0,0,1,138.36,190.17Zm.36,0a.76.76,0,0,0,.1.41.63.63,0,0,0,.27.29.69.69,0,0,0,.78,0,.73.73,0,0,0,.26-.29.87.87,0,0,0,.11-.41,1,1,0,0,0-.11-.42.7.7,0,0,0-.26-.3.78.78,0,0,0-.78,0,.66.66,0,0,0-.27.3A.75.75,0,0,0,138.72,190.17Z" transform="translate(-50.1 -47.72)"/><path d="M142.29,189.05h.36v1.37a1,1,0,0,1-.11.47.74.74,0,0,1-.31.32,1,1,0,0,1-.45.1,1,1,0,0,1-.45-.1.74.74,0,0,1-.31-.32.86.86,0,0,1-.11-.47V189h.36v1.39a.56.56,0,0,0,.06.31.52.52,0,0,0,.19.2.51.51,0,0,0,.53,0,.49.49,0,0,0,.18-.2.56.56,0,0,0,.06-.31Z" transform="translate(-50.1 -47.72)"/><path d="M143.06,189.05h.77a.61.61,0,0,1,.35.07.61.61,0,0,1,.32.59.57.57,0,0,1-.08.34.76.76,0,0,1-.19.21.65.65,0,0,1-.21.07l.55,1h-.39l-.52-.89h-.29v.89H143Zm.35,1h.34a.47.47,0,0,0,.3-.08.36.36,0,0,0,.13-.29.35.35,0,0,0-.13-.3.47.47,0,0,0-.3-.08h-.34Z" transform="translate(-50.1 -47.72)"/><path d="M198.07,160.09h.68a1,1,0,0,1,.38.07.56.56,0,0,1,.28.22.64.64,0,0,1,.1.38.7.7,0,0,1-.1.4.63.63,0,0,1-.28.23,1,1,0,0,1-.38.07h-.33v.9h-.35Zm.35,1.07h.23a.49.49,0,0,0,.24,0,.24.24,0,0,0,.17-.12.33.33,0,0,0,.07-.23.34.34,0,0,0-.07-.24.34.34,0,0,0-.17-.11.49.49,0,0,0-.24,0h-.23Z" transform="translate(-50.1 -47.72)"/><path d="M200.29,160.09h.36l.85,2.25h-.39l-.18-.51H200l-.19.51h-.38Zm-.16,1.41h.69l-.35-1h0Z" transform="translate(-50.1 -47.72)"/><path d="M202.78,162a1,1,0,0,0,.34-.05.84.84,0,0,0,.21-.11l.15.31a.94.94,0,0,1-.26.14,1.19,1.19,0,0,1-.46.06,1.25,1.25,0,0,1-.84-.33,1.16,1.16,0,0,1,0-1.64h0a1.22,1.22,0,0,1,.38-.26,1.39,1.39,0,0,1,.46-.08,1.21,1.21,0,0,1,.46.08.56.56,0,0,1,.26.12l-.15.31a.81.81,0,0,0-.21-.1,1,1,0,0,0-.34-.06.8.8,0,0,0-.34.07.51.51,0,0,0-.24.17.68.68,0,0,0-.18.26.94.94,0,0,0,0,.62.71.71,0,0,0,.18.27.81.81,0,0,0,.24.17A.79.79,0,0,0,202.78,162Z" transform="translate(-50.1 -47.72)"/><path d="M204.46,161.21l.9,1.15h-.43l-.78-1v1h-.36v-2.25h.36v1l.73-1h.48Z" transform="translate(-50.1 -47.72)"/><path d="M206.32,160.09h.35l.85,2.25h-.37l-.19-.51h-.89l-.19.51h-.38Zm-.17,1.41h.69l-.35-1h0Z" transform="translate(-50.1 -47.72)"/><path d="M208.7,161.1h1.13v.11a1,1,0,0,1-.07.45,1.05,1.05,0,0,1-.23.36,1,1,0,0,1-.36.25,1.08,1.08,0,0,1-.44.09A1.12,1.12,0,0,1,208,162a1.36,1.36,0,0,1-.24-.38,1.27,1.27,0,0,1,0-.9,1.31,1.31,0,0,1,.24-.37,1.23,1.23,0,0,1,.36-.25,1,1,0,0,1,.45-.08.92.92,0,0,1,.33,0l.26.09.2.17a.86.86,0,0,1,.14.18l-.33.16a.72.72,0,0,0-.24-.22.74.74,0,0,0-.36-.09.76.76,0,0,0-.55.24,1.43,1.43,0,0,0-.15.27,1,1,0,0,0,0,.63,1.17,1.17,0,0,0,.15.27,1.14,1.14,0,0,0,.25.18.77.77,0,0,0,.3.06,1.41,1.41,0,0,0,.29,0,.6.6,0,0,0,.21-.14.7.7,0,0,0,.15-.2.58.58,0,0,0,.06-.26h-.76Z" transform="translate(-50.1 -47.72)"/><path d="M210.17,160.09h.36v2.25h-.36Z" transform="translate(-50.1 -47.72)"/><path d="M211.31,160.43h0v1.91H211v-2.25h.5l1.09,1.91h0v-1.92h.35v2.26h-.5Z" transform="translate(-50.1 -47.72)"/><path d="M214.31,161.1h1.13v.11a1.13,1.13,0,0,1-.66,1.06,1.12,1.12,0,0,1-.44.09,1.17,1.17,0,0,1-.79-.34,1.14,1.14,0,0,1-.23-.38,1.27,1.27,0,0,1,0-.9,1.2,1.2,0,0,1,.23-.37,1.45,1.45,0,0,1,.36-.25,1,1,0,0,1,.46-.08.92.92,0,0,1,.33,0l.25.09.2.17a.9.9,0,0,1,.15.18l-.33.16a.75.75,0,0,0-.25-.22.73.73,0,0,0-.35-.09.76.76,0,0,0-.55.24.81.81,0,0,0-.15.27,1,1,0,0,0,0,.63.72.72,0,0,0,.15.27,1.08,1.08,0,0,0,.24.18.81.81,0,0,0,.31.06,1.22,1.22,0,0,0,.27,0,.59.59,0,0,0,.23-.14.56.56,0,0,0,.14-.2.58.58,0,0,0,.06-.26h-.73Z" transform="translate(-50.1 -47.72)"/><path d="M75.38,221.2h1.33a1.13,1.13,0,0,1,.54.13,1,1,0,0,1,.42.33,1.39,1.39,0,0,1,0,1.13,1.26,1.26,0,0,1-.32.33.8.8,0,0,1-.34.11l.9,1.57h-.66l-.78-1.49H76v1.47h-.58Zm.58,1.7h.55a.69.69,0,0,0,.48-.15.67.67,0,0,0,0-.94h0a.74.74,0,0,0-.48-.13H76Z" transform="translate(-50.1 -47.72)"/><path d="M78.48,221.2h2.18v.51H79.05v1h1.56v.47H79.05v1h1.61v.52H78.48Z" transform="translate(-50.1 -47.72)"/><path d="M82.09,221.67h-.9v-.47h2.39v.51h-.89v3.07h-.57Z" transform="translate(-50.1 -47.72)"/><path d="M84.79,221.2h.58l1.37,3.58h-.61l-.3-.78H84.34l-.3.78h-.62Zm-.27,2.27h1.12l-.55-1.56h0Z" transform="translate(-50.1 -47.72)"/><path d="M87.17,221.2h.57v3.58h-.57Z" transform="translate(-50.1 -47.72)"/><path d="M88.44,221.2H89v3.12h1.38v.46h-2Z" transform="translate(-50.1 -47.72)"/><path d="M211.63,96.68h1.2V97H212v.64h.78V98H212v1h-.35Z" transform="translate(-50.1 -47.72)"/><path d="M213.8,96.68h.36l.85,2.25h-.38l-.19-.51h-.9l-.18.51H213Zm-.16,1.41h.67l-.34-1h0Z" transform="translate(-50.1 -47.72)"/><path d="M215.21,96.68h.67a1,1,0,0,1,.34,0,.54.54,0,0,1,.27.18.51.51,0,0,1,.1.32.54.54,0,0,1-.06.25.46.46,0,0,1-.13.18.56.56,0,0,1-.17.09.38.38,0,0,1,.15,0,.31.31,0,0,1,.15.1.5.5,0,0,1,.15.4.54.54,0,0,1-.07.33.54.54,0,0,1-.23.22.89.89,0,0,1-.39.09h-.78Zm.36.95h.32a.31.31,0,0,0,.19,0,.3.3,0,0,0,.11-.14.43.43,0,0,0,0-.16.28.28,0,0,0-.11-.25.43.43,0,0,0-.27-.06h-.28Zm0,1h.36a.45.45,0,0,0,.23,0,.28.28,0,0,0,.11-.13.45.45,0,0,0,0-.19.33.33,0,0,0-.11-.25.4.4,0,0,0-.3-.09h-.34Z" transform="translate(-50.1 -47.72)"/><path d="M217.08,96.68h.81a.62.62,0,0,1,.33.08.49.49,0,0,1,.25.22.77.77,0,0,1,.09.36.85.85,0,0,1-.08.35.64.64,0,0,1-.2.2.5.5,0,0,1-.2.08l.55,1h-.41l-.51-.9h-.28v.9H217Zm.35,1h.34a.46.46,0,0,0,.3-.08.35.35,0,0,0,.12-.3.33.33,0,0,0-.12-.29.63.63,0,0,0-.3-.1h-.34Z" transform="translate(-50.1 -47.72)"/><path d="M219,96.68h.36v2.25H219Z" transform="translate(-50.1 -47.72)"/><path d="M221,98.6a.91.91,0,0,0,.33,0,.58.58,0,0,0,.21-.1l.15.3a.94.94,0,0,1-.26.14,1.47,1.47,0,0,1-.46.07,1.44,1.44,0,0,1-.46-.08,1.08,1.08,0,0,1-.37-.26.81.81,0,0,1-.25-.36,1.09,1.09,0,0,1,0-.9.9.9,0,0,1,.25-.36,1.08,1.08,0,0,1,.37-.26,1.44,1.44,0,0,1,.46-.08,1.24,1.24,0,0,1,.46.08.68.68,0,0,1,.26.12l-.15.31a.58.58,0,0,0-.21-.1,1,1,0,0,0-.33-.06.77.77,0,0,0-.34.07.56.56,0,0,0-.26.17.65.65,0,0,0-.17.26,1.13,1.13,0,0,0-.05.32,1.12,1.12,0,0,0,.05.31,1.09,1.09,0,0,0,.21.26.65.65,0,0,0,.26.17A.76.76,0,0,0,221,98.6Z" transform="translate(-50.1 -47.72)"/><path d="M158.51,47.77h.36V49.7h.82V50h-1.21Z" transform="translate(-50.1 -47.72)"/><path d="M159.94,48.89a1.44,1.44,0,0,1,.08-.46,1.11,1.11,0,0,1,.25-.36.92.92,0,0,1,.35-.24,1.1,1.1,0,0,1,1.25.24,1.08,1.08,0,0,1,.24.36,1.27,1.27,0,0,1,0,.9,1.14,1.14,0,0,1-.23.38,1.26,1.26,0,0,1-.36.24,1.09,1.09,0,0,1-.9,0,1.21,1.21,0,0,1-.35-.24,1,1,0,0,1-.24-.38A1.64,1.64,0,0,1,159.94,48.89Zm.37,0a.83.83,0,0,0,.37.72.58.58,0,0,0,.38.1.66.66,0,0,0,.41-.1.72.72,0,0,0,.25-.3.87.87,0,0,0,.1-.42.86.86,0,0,0-.1-.41.67.67,0,0,0-.25-.3.87.87,0,0,0-.41-.11.73.73,0,0,0-.38.11.71.71,0,0,0-.27.3.83.83,0,0,0-.07.41Z" transform="translate(-50.1 -47.72)"/><path d="M163.52,48.79h1.13v.13a1.32,1.32,0,0,1-.08.44,1.05,1.05,0,0,1-.23.36A1.07,1.07,0,0,1,164,50a1.13,1.13,0,0,1-.45.09,1.17,1.17,0,0,1-.45-.09,1,1,0,0,1-.35-.26.91.91,0,0,1-.24-.37,1.21,1.21,0,0,1,.24-1.27.85.85,0,0,1,.35-.24,1,1,0,0,1,.45-.1,1.1,1.1,0,0,1,.59.15,1,1,0,0,1,.34.33l-.3.18a1,1,0,0,0-.24-.22,1.12,1.12,0,0,0-.36-.09.77.77,0,0,0-.55.25.87.87,0,0,0-.2.58,1.13,1.13,0,0,0,.05.32,1.1,1.1,0,0,0,.15.26.64.64,0,0,0,.25.18.51.51,0,0,0,.3.06.71.71,0,0,0,.29,0,.6.6,0,0,0,.21-.14.59.59,0,0,0,.15-.2.77.77,0,0,0,.07-.26h-.74Z" transform="translate(-50.1 -47.72)"/><path d="M165.06,47.77h.35V50h-.35Z" transform="translate(-50.1 -47.72)"/><path d="M166.58,47.73a1.39,1.39,0,0,1,.35,0l.22.1.1.07-.17.29-.1-.06-.16-.08a.74.74,0,0,0-.21,0,.52.52,0,0,0-.27.07.19.19,0,0,0-.1.19.3.3,0,0,0,0,.16l.15.11.25.12.24.11a.9.9,0,0,1,.19.15.61.61,0,0,1,.2.45.59.59,0,0,1-.23.48,1.23,1.23,0,0,1-.26.12,1.6,1.6,0,0,1-.31,0,1.21,1.21,0,0,1-.38-.06,1,1,0,0,1-.28-.11l-.12-.07.19-.3.07,0,.14.07.18.07h.21a.56.56,0,0,0,.31-.09.3.3,0,0,0,.11-.23.33.33,0,0,0-.08-.19.42.42,0,0,0-.18-.14l-.26-.13a1.51,1.51,0,0,1-.28-.15.64.64,0,0,1-.2-.2.55.55,0,0,1,0-.6.67.67,0,0,1,.25-.19A.81.81,0,0,1,166.58,47.73Z" transform="translate(-50.1 -47.72)"/><path d="M168.09,48.09h-.58v-.32H169v.32h-.58V50h-.36Z" transform="translate(-50.1 -47.72)"/><path d="M169.36,47.77h.34V50h-.36Z" transform="translate(-50.1 -47.72)"/><path d="M171.26,49.71a.75.75,0,0,0,.33-.07.62.62,0,0,0,.22-.1l.15.31a.94.94,0,0,1-.26.14,1.49,1.49,0,0,1-.47.07,1.17,1.17,0,0,1-.45-.09,1.19,1.19,0,0,1-.38-.25.9.9,0,0,1-.25-.36,1.17,1.17,0,0,1,0-.9,1.15,1.15,0,0,1,.25-.37,1.36,1.36,0,0,1,.38-.24,1.4,1.4,0,0,1,.45-.1,1.5,1.5,0,0,1,.47.08A.94.94,0,0,1,172,48l-.15.3a.62.62,0,0,0-.22-.1.92.92,0,0,0-.33-.06,1,1,0,0,0-.34.06.85.85,0,0,0-.25.17,1.06,1.06,0,0,0-.17.26.86.86,0,0,0-.05.32.8.8,0,0,0,.22.58.85.85,0,0,0,.25.17A1,1,0,0,0,171.26,49.71Z" transform="translate(-50.1 -47.72)"/><path d="M173.07,47.73a1.32,1.32,0,0,1,.34,0l.23.1.1.07-.18.29-.09-.06-.16-.08h-.21a.5.5,0,0,0-.27.07.19.19,0,0,0-.1.19.19.19,0,0,0,.05.16.91.91,0,0,0,.16.11l.24.12.23.11a1.37,1.37,0,0,1,.21.15,1,1,0,0,1,.14.2.74.74,0,0,1,.05.25.6.6,0,0,1-.23.48,1.23,1.23,0,0,1-.26.12,1.5,1.5,0,0,1-.3,0,1.34,1.34,0,0,1-.4-.06,1,1,0,0,1-.27-.11l-.12-.07.19-.3.07,0,.14.07.18.07H173a.56.56,0,0,0,.31-.09.36.36,0,0,0,.11-.23.4.4,0,0,0-.07-.19.49.49,0,0,0-.18-.14l-.27-.13a1.51,1.51,0,0,1-.28-.15.8.8,0,0,1-.21-.2.61.61,0,0,1-.08-.3.54.54,0,0,1,.1-.3.61.61,0,0,1,.26-.19A.89.89,0,0,1,173.07,47.73Z" transform="translate(-50.1 -47.72)"/><path d="M97.16,48.13h-.58v-.31h1.55v.31h-.58v1.93h-.39Z" transform="translate(-50.1 -47.72)"/><path d="M98.81,47.82h.36l.9,2.24H99.7l-.17-.52h-1l-.18.52H98Zm-.14,1.46h.7l-.34-1h0Z" transform="translate(-50.1 -47.72)"/><path d="M101.21,48.83h1.18V49a1.32,1.32,0,0,1-.08.44,1.26,1.26,0,0,1-.24.36.81.81,0,0,1-.35.25,1.12,1.12,0,0,1-.44.09,1,1,0,0,1-.46-.1.88.88,0,0,1-.36-.24,1.1,1.1,0,0,1-.23-.37,1.38,1.38,0,0,1-.08-.45,1.33,1.33,0,0,1,.08-.45,1.08,1.08,0,0,1,1-.72,1.82,1.82,0,0,1,.33,0,.8.8,0,0,1,.25.11l.2.14.15.18-.33.17a.88.88,0,0,0-.25-.22.62.62,0,0,0-.35-.08.81.81,0,0,0-.31.06,1.08,1.08,0,0,0-.24.18,1.35,1.35,0,0,0-.15.26.87.87,0,0,0-.06.32.81.81,0,0,0,.06.31.89.89,0,0,0,.15.27.72.72,0,0,0,.55.24.62.62,0,0,0,.27-.05.48.48,0,0,0,.23-.13.6.6,0,0,0,.14-.21.48.48,0,0,0,.06-.26h-.73Z" transform="translate(-50.1 -47.72)"/><path d="M103.45,49.48a.46.46,0,0,1,.06-.23.44.44,0,0,1,.12-.18,1,1,0,0,1,.18-.13l.15-.09h.12l-.08-.06-.09-.12c0-.06-.06-.11-.08-.16a.48.48,0,0,1,0-.17.5.5,0,0,1,.08-.27.43.43,0,0,1,.22-.18.61.61,0,0,1,.35-.07.51.51,0,0,1,.32.07.41.41,0,0,1,.21.18.5.5,0,0,1,.07.27.46.46,0,0,1-.06.22.83.83,0,0,1-.13.18l-.17.11-.13.08.43.47.12-.12.14-.22.24.22-.07.1a.64.64,0,0,1-.1.13l-.1.11.46.48h-.46l-.27-.29-.2.16a1.23,1.23,0,0,1-.26.12,1,1,0,0,1-.34.09.73.73,0,0,1-.36-.07.68.68,0,0,1-.37-.63Zm.79-.45h-.06l-.12.07-.11.08-.08.1a.38.38,0,0,0,0,.15.28.28,0,0,0,0,.18.36.36,0,0,0,.14.1h.37a.66.66,0,0,0,.19-.09.69.69,0,0,0,.13-.11Zm.18-1a.21.21,0,0,0-.26.09.2.2,0,0,0,0,.11.27.27,0,0,0,0,.13l.07.12.07.09h.1l.12-.07.09-.11a.22.22,0,0,0,.05-.17.24.24,0,0,0-.07-.17.19.19,0,0,0-.15,0Z" transform="translate(-50.1 -47.72)"/><path d="M106.72,47.82h.36v1.92H108v.32h-1.25Z" transform="translate(-50.1 -47.72)"/><path d="M109,47.82h.37l.85,2.24h-.38l-.19-.52h-.9l-.18.52h-.38Zm-.13,1.46h.69l-.35-1h0Z" transform="translate(-50.1 -47.72)"/><path d="M110.45,47.82h.67a.85.85,0,0,1,.35,0,.54.54,0,0,1,.26.16.49.49,0,0,1,.09.33.53.53,0,0,1,0,.25.57.57,0,0,1-.12.18.48.48,0,0,1-.18.08l.16.05a.49.49,0,0,1,.14.11.4.4,0,0,1,.12.16.88.88,0,0,1,0,.23.81.81,0,0,1-.08.34.54.54,0,0,1-.24.21.86.86,0,0,1-.39.09h-.73Zm.35,1h.33a.67.67,0,0,0,.19-.05.41.41,0,0,0,.11-.12.25.25,0,0,0,0-.17.32.32,0,0,0-.1-.26.71.71,0,0,0-.28-.06h-.28Zm0,1h.42a.4.4,0,0,0,.24,0,.25.25,0,0,0,.12-.13.54.54,0,0,0,0-.18.39.39,0,0,0-.1-.25.47.47,0,0,0-.3-.1h-.35Z" transform="translate(-50.1 -47.72)"/><path d="M112.24,47.82h1.35v.31h-1v.65h1v.32h-1v.64h1v.32h-1.35Z" transform="translate(-50.1 -47.72)"/><path d="M114,47.82h.36v1.92h.89v.32H114Z" transform="translate(-50.1 -47.72)"/><path d="M50.69,97.08H50.1v-.34h1.53v.31H51V99h-.35Z" transform="translate(-50.1 -47.72)"/><path d="M51.92,96.74h.83a.83.83,0,0,1,.34.07.51.51,0,0,1,.23.23.61.61,0,0,1,.09.35.67.67,0,0,1-.07.35.8.8,0,0,1-.2.21.58.58,0,0,1-.21.07l.55,1h-.4l-.51-.9h-.33V99h-.35Zm.32,1.08h.34a.56.56,0,0,0,.31-.09.42.42,0,0,0,0-.59.56.56,0,0,0-.31-.09h-.34Z" transform="translate(-50.1 -47.72)"/><path d="M54.38,96.74h.37L55.59,99h-.36L55,98.53h-.9l-.19.52h-.38Zm-.12,1.41h.67l-.34-1h0Z" transform="translate(-50.1 -47.72)"/><path d="M56.16,97.09h0V99h-.33V96.74h.49l1.06,1.9h0v-1.9h.36V99h-.5Z" transform="translate(-50.1 -47.72)"/><path d="M58.94,96.74a1.27,1.27,0,0,1,.34.05l.24.09.1.08-.18.28-.09-.06-.16-.07H59a.67.67,0,0,0-.28.06.26.26,0,0,0-.1.2.22.22,0,0,0,.06.15l.15.13.24.1a.47.47,0,0,1,.23.12.77.77,0,0,1,.21.14.56.56,0,0,1,.14.2.58.58,0,0,1,.06.26.54.54,0,0,1-.24.46.5.5,0,0,1-.26.13.76.76,0,0,1-.3,0,.89.89,0,0,1-.66-.11.25.25,0,0,1-.12-.08l.19-.3.07.05.13.07.18.07h.22a.56.56,0,0,0,.31-.09.37.37,0,0,0,.1-.24.29.29,0,0,0-.07-.18.65.65,0,0,0-.18-.15,1.59,1.59,0,0,0-.27-.12l-.28-.16a.54.54,0,0,1-.28-.49.53.53,0,0,1,.09-.3,1.92,1.92,0,0,1,.62-.29Z" transform="translate(-50.1 -47.72)"/><path d="M60,96.74h.69a.83.83,0,0,1,.38.07.53.53,0,0,1,.27.22.64.64,0,0,1,.1.38.62.62,0,0,1-.1.38.61.61,0,0,1-.27.23.73.73,0,0,1-.38.08h-.34V99H60Zm.35,1.08h.48a.37.37,0,0,0,.17-.13.48.48,0,0,0,.07-.23.4.4,0,0,0-.07-.24.34.34,0,0,0-.17-.11.49.49,0,0,0-.24,0h-.24Z" transform="translate(-50.1 -47.72)"/><path d="M61.7,97.88a1.31,1.31,0,0,1,.32-.83,1.26,1.26,0,0,1,.36-.24,1.17,1.17,0,0,1,.9,0,1.21,1.21,0,0,1,.35.24,1.19,1.19,0,0,1,.25.38,1.38,1.38,0,0,1,.08.45,1.44,1.44,0,0,1-.08.46,1.05,1.05,0,0,1-.25.37.85.85,0,0,1-.35.24.89.89,0,0,1-.45.09.9.9,0,0,1-.46-.09,1,1,0,0,1-.36-.24,1.28,1.28,0,0,1-.23-.37A1.44,1.44,0,0,1,61.7,97.88Zm.38,0a.88.88,0,0,0,.09.42.73.73,0,0,0,.26.29.72.72,0,0,0,.4.12.78.78,0,0,0,.66-.41.78.78,0,0,0,.09-.42.73.73,0,0,0-.09-.41.71.71,0,0,0-.27-.3.6.6,0,0,0-.39-.11.71.71,0,0,0-.4.11,1.08,1.08,0,0,0-.26.3.93.93,0,0,0-.11.41Z" transform="translate(-50.1 -47.72)"/><path d="M64.28,96.74h.82a.77.77,0,0,1,.34.07.59.59,0,0,1,.24.23.7.7,0,0,1,.09.35.68.68,0,0,1-.09.35.72.72,0,0,1-.18.21.57.57,0,0,1-.22.07l.56,1h-.41l-.51-.9h-.28V99h-.36Zm.36,1.05H65a.4.4,0,0,0,.3-.09.41.41,0,0,0,0-.57h0A.44.44,0,0,0,65,97h-.34Z" transform="translate(-50.1 -47.72)"/><path d="M66.57,97.08H66v-.34h1.57v.31H67V99h-.39Z" transform="translate(-50.1 -47.72)"/><path d="M59.46,160.09v2.25H59.1v-1.85l-.07.32-.52,1.35h-.36l-.48-1.35-.05-.32v1.85h-.37v-2.25h.49l.57,1.67h0l.56-1.67Z" transform="translate(-50.1 -47.72)"/><path d="M60.61,160.09H61l.85,2.25h-.38l-.18-.51h-1l-.18.51h-.35Zm-.16,1.41h.69l-.34-1h0Z" transform="translate(-50.1 -47.72)"/><path d="M62.09,160.09h.79a.73.73,0,0,1,.33.08.6.6,0,0,1,.25.22.66.66,0,0,1,.08.36.62.62,0,0,1-.08.35.61.61,0,0,1-.19.2.49.49,0,0,1-.21.08l.6,1h-.4l-.51-.9h-.29v.9h-.37Zm.37,1.06h.34a.53.53,0,0,0,.3-.09.44.44,0,0,0,0-.59.59.59,0,0,0-.31-.09h-.34Z" transform="translate(-50.1 -47.72)"/><path d="M64.64,161.21l.89,1.15H65.1l-.78-1v1H64v-2.25h.35v1l.74-1h.4Z" transform="translate(-50.1 -47.72)"/><path d="M65.77,160.09h1.36v.32h-1v.64h1v.31h-1V162h1v.33H65.77Z" transform="translate(-50.1 -47.72)"/><path d="M68,160.41h-.53v-.32H69v.32h-.63v1.93H68Z" transform="translate(-50.1 -47.72)"/><path d="M69.26,160.09h.36v2.25h-.36Z" transform="translate(-50.1 -47.72)"/><path d="M70.42,160.43h0v1.91h-.36v-2.25h.5L71.65,162h0v-1.92H72v2.26H71.5Z" transform="translate(-50.1 -47.72)"/><path d="M73.44,161.1h1.19v.11a1.2,1.2,0,0,1-.09.45,1.65,1.65,0,0,1-.22.36,1.15,1.15,0,0,1-1.27.25,1.24,1.24,0,0,1-.35-.25,1.17,1.17,0,0,1-.24-.38,1.53,1.53,0,0,1,0-.9,1.47,1.47,0,0,1,.24-.37,1.24,1.24,0,0,1,.35-.25,1,1,0,0,1,.46-.08.91.91,0,0,1,.33,0l.26.09.2.17a1.43,1.43,0,0,1,.15.18l-.34.16a.67.67,0,0,0-.6-.31,1,1,0,0,0-.3.06,1.08,1.08,0,0,0-.24.18.92.92,0,0,0-.16.27,1,1,0,0,0,0,.63.92.92,0,0,0,.16.27,1.08,1.08,0,0,0,.24.18.77.77,0,0,0,.3.06,1.31,1.31,0,0,0,.28,0,.68.68,0,0,0,.23-.14.66.66,0,0,0,.14-.2.77.77,0,0,0,.07-.26h-.75Z" transform="translate(-50.1 -47.72)"/><path d="M213.68,101.22a.55.55,0,0,1,.08-.15.75.75,0,0,1,.15-.16.81.81,0,0,1,.59-.2.8.8,0,0,1,.43.1.62.62,0,0,1,.28.25.71.71,0,0,1,.1.35.58.58,0,0,1-.06.26.52.52,0,0,1-.14.19.5.5,0,0,1-.19.1.58.58,0,0,1,.22.08.65.65,0,0,1,.18.22.79.79,0,0,1,.08.3.86.86,0,0,1-.13.42.79.79,0,0,1-.3.3,1.15,1.15,0,0,1-.48.1,1.32,1.32,0,0,1-.44-.08,1,1,0,0,1-.29-.24.82.82,0,0,1-.16-.25l.38-.19a.51.51,0,0,0,.09.18.8.8,0,0,0,.17.15.45.45,0,0,0,.25.07.52.52,0,0,0,.27-.07.3.3,0,0,0,.16-.17.36.36,0,0,0,.05-.23.32.32,0,0,0-.06-.23.36.36,0,0,0-.18-.14h-.29v-.31h.07a.71.71,0,0,0,.21,0,.46.46,0,0,0,.16-.15.35.35,0,0,0,.05-.2.39.39,0,0,0-.11-.28.42.42,0,0,0-.32-.11.38.38,0,0,0-.21,0,.42.42,0,0,0-.14.09.31.31,0,0,0-.09.11v.07Z" transform="translate(-50.1 -47.72)"/><path d="M216.71,101.62a.7.7,0,0,1,.4.1.86.86,0,0,1,.42.74.94.94,0,0,1-.13.46,1,1,0,0,1-.33.32,1.09,1.09,0,0,1-.9,0,.89.89,0,0,1-.44-.8,1.08,1.08,0,0,1,.09-.5,1.41,1.41,0,0,1,.24-.36l.68-.9h.48l-.82,1,.11-.08A.65.65,0,0,1,216.71,101.62ZM216.6,103a.6.6,0,0,0,.27-.07.73.73,0,0,0,.2-.19.55.55,0,0,0,.07-.28.48.48,0,0,0-.07-.26.55.55,0,0,0-.47-.26.59.59,0,0,0-.26.07.58.58,0,0,0-.19.19.48.48,0,0,0-.07.26.55.55,0,0,0,.07.28.86.86,0,0,0,.19.19A.59.59,0,0,0,216.6,103Z" transform="translate(-50.1 -47.72)"/><path d="M218.84,101.62a.7.7,0,0,1,.4.1.86.86,0,0,1,.3.3.88.88,0,0,1,.12.44.77.77,0,0,1-.13.46.92.92,0,0,1-.33.32,1.06,1.06,0,0,1-.89,0,.81.81,0,0,1-.34-.32,1,1,0,0,1-.12-.48,1.25,1.25,0,0,1,.11-.5,1.05,1.05,0,0,1,.23-.36l.69-.9h.48l-.83,1,.12-.08Zm-.11,1.39a.6.6,0,0,0,.27-.07.73.73,0,0,0,.2-.19.46.46,0,0,0,.06-.28.58.58,0,0,0-.06-.26.55.55,0,0,0-.47-.26.52.52,0,0,0-.25.07.61.61,0,0,0-.2.19.48.48,0,0,0-.07.26.55.55,0,0,0,.07.28.73.73,0,0,0,.2.19.59.59,0,0,0,.29.07Z" transform="translate(-50.1 -47.72)"/><path d="M137.43,195.72a1.12,1.12,0,0,1-.44-.09.79.79,0,0,1-.32-.28.7.7,0,0,1-.11-.38.65.65,0,0,1,.06-.33.68.68,0,0,1,.17-.21.72.72,0,0,1,.24-.14l-.18-.12a.47.47,0,0,1-.12-.19.42.42,0,0,1-.06-.27.52.52,0,0,1,.1-.34.7.7,0,0,1,.28-.23.85.85,0,0,1,.38-.09.86.86,0,0,1,.39.09.77.77,0,0,1,.28.23.57.57,0,0,1,.08.34.6.6,0,0,1-.09.37.75.75,0,0,1-.26.21.84.84,0,0,1,.24.14.68.68,0,0,1,.17.21.75.75,0,0,1,0,.71.92.92,0,0,1-.31.28A1.08,1.08,0,0,1,137.43,195.72Zm0-.36a.44.44,0,0,0,.39-.22.4.4,0,0,0,.06-.22.42.42,0,0,0-.22-.38.46.46,0,0,0-.23-.06.43.43,0,0,0-.22.06.46.46,0,0,0-.17.6.44.44,0,0,0,.17.16A.43.43,0,0,0,137.43,195.36Zm0-1.21a.29.29,0,0,0,.2-.05.24.24,0,0,0,.13-.15.28.28,0,0,0,.06-.18.35.35,0,0,0-.06-.19.47.47,0,0,0-.13-.15.5.5,0,0,0-.39,0,.67.67,0,0,0-.14.15.34.34,0,0,0,0,.19.35.35,0,0,0,0,.18.29.29,0,0,0,.14.15A.45.45,0,0,0,137.43,194.15Z" transform="translate(-50.1 -47.72)"/><path d="M139,195.1a.41.41,0,0,0,.05.09.16.16,0,0,0,.08.1.42.42,0,0,0,.14.09h.21a.48.48,0,0,0,.37-.15.59.59,0,0,0,.12-.4.48.48,0,0,0-.12-.36.44.44,0,0,0-.33-.12.57.57,0,0,0-.22,0,.58.58,0,0,0-.15.11.35.35,0,0,0-.08.13l-.35-.13.21-1.39h1.34v.36h-1l-.11.71.07-.06.16-.08h.23a.74.74,0,0,1,.36.09.68.68,0,0,1,.28.25.83.83,0,0,1,.11.46.87.87,0,0,1-.11.48.85.85,0,0,1-.32.33.86.86,0,0,1-.47.11,1.34,1.34,0,0,1-.35,0,.85.85,0,0,1-.25-.13.65.65,0,0,1-.16-.17.42.42,0,0,1-.09-.14Z" transform="translate(-50.1 -47.72)"/><path d="M57.05,101a.58.58,0,0,0-.26.06.9.9,0,0,0-.18.15l-.12.16-.05.08-.35-.16v-.11a.44.44,0,0,1,.1-.16.77.77,0,0,1,.18-.18.87.87,0,0,1,.31-.18,1.19,1.19,0,0,1,.37-.06,1.45,1.45,0,0,1,.41.06.87.87,0,0,1,.26.18,1.1,1.1,0,0,1,.15.26,1.5,1.5,0,0,1,0,.3.73.73,0,0,1-.08.33,1.35,1.35,0,0,1-.17.34,2.55,2.55,0,0,1-.26.3l-.26.24-.22.18-.11.08h1.12v.37H56.16V103l.16-.13.28-.21.3-.27c.1-.1.21-.2.3-.31a3.06,3.06,0,0,0,.21-.29.6.6,0,0,0,.08-.29.38.38,0,0,0-.11-.33A.42.42,0,0,0,57.05,101Z" transform="translate(-50.1 -47.72)"/><path d="M58.26,102a2,2,0,0,1,.09-.59,1.11,1.11,0,0,1,.23-.41.87.87,0,0,1,.32-.24.79.79,0,0,1,.73,0A.7.7,0,0,1,60,101a1.27,1.27,0,0,1,.23.41,2.61,2.61,0,0,1,0,1.2A1.44,1.44,0,0,1,60,103a.75.75,0,0,1-.32.23.93.93,0,0,1-.73,0,.75.75,0,0,1-.32-.23,1.24,1.24,0,0,1-.23-.42A2,2,0,0,1,58.26,102Zm.42,0a2,2,0,0,0,.07.55.8.8,0,0,0,.22.32.45.45,0,0,0,.29.1.46.46,0,0,0,.3-.11.64.64,0,0,0,.21-.32,2.11,2.11,0,0,0,0-1.06.81.81,0,0,0-.21-.33.46.46,0,0,0-.3-.11.46.46,0,0,0-.29.11.83.83,0,0,0-.22.33A1.86,1.86,0,0,0,58.68,102Z" transform="translate(-50.1 -47.72)"/><path d="M104.7,52a.48.48,0,0,0-.26.06,1,1,0,0,0-.2.15l-.12.16v.07l-.35-.16v-.08a.91.91,0,0,1,.09-.17,1.53,1.53,0,0,1,.18-.18,1.08,1.08,0,0,1,.28-.15.82.82,0,0,1,.38-.06,1,1,0,0,1,.39.07.77.77,0,0,1,.27.17.82.82,0,0,1,.14.26,1.53,1.53,0,0,1-.07.63,1.81,1.81,0,0,1-.2.33,1.75,1.75,0,0,1-.26.29,3.07,3.07,0,0,1-.26.25l-.21.17-.12.08h1.11v.37h-1.73v-.38l.17-.12.27-.22.3-.27.3-.3a2.18,2.18,0,0,0,.22-.31.6.6,0,0,0,.07-.27A.4.4,0,0,0,105,52,.47.47,0,0,0,104.7,52Z" transform="translate(-50.1 -47.72)"/><path d="M106.86,52a.48.48,0,0,0-.26.06.65.65,0,0,0-.18.15l-.12.16v.07l-.36-.16v-.08A1,1,0,0,1,106,52a.77.77,0,0,1,.18-.18.76.76,0,0,1,.28-.15.74.74,0,0,1,.36-.06,1.14,1.14,0,0,1,.41.07.56.56,0,0,1,.26.17.61.61,0,0,1,.15.26,1.5,1.5,0,0,1,0,.3.73.73,0,0,1-.08.33,2.59,2.59,0,0,1-.19.33,3.58,3.58,0,0,1-.26.29l-.27.25-.2.17-.12.08h1.1v.37H106v-.38l.16-.12.28-.22.3-.27c.1-.09.21-.2.3-.3a2.11,2.11,0,0,0,.21-.31.52.52,0,0,0,.1-.27.47.47,0,0,0-.11-.34A.52.52,0,0,0,106.86,52Z" transform="translate(-50.1 -47.72)"/><text class="cls-7" transform="translate(155.35 119.55)">20</text><g class="cls-8"><text class="cls-9" transform="translate(85.25 188.73)">6</text><text class="cls-7" transform="translate(87.43 188.73)">93</text></g><text class="cls-7" transform="translate(28.38 183.25)">1600</text><text class="cls-7" transform="translate(144.59 183.25)">999</text><text class="cls-7" transform="translate(113.43 6.46)">110</text><g class="cls-8"><text class="cls-10" transform="translate(14.64 119.55)">7</text><text class="cls-7" transform="translate(16.45 119.55)">0</text></g><path d="M187.64,225.1v-3.76h.83v1.84a.46.46,0,0,1,.13-.18,1.06,1.06,0,0,1,.65-.22,1,1,0,0,1,.56.16,1.05,1.05,0,0,1,.38.43,1.48,1.48,0,0,1,0,1.2.93.93,0,0,1-.38.43,1.07,1.07,0,0,1-.89.1,1.24,1.24,0,0,1-.27-.17.86.86,0,0,1-.18-.2v.36Zm1.87-1.11a.53.53,0,0,0-.07-.28.66.66,0,0,0-.18-.19.55.55,0,0,0-.53,0,.61.61,0,0,0-.2.19.64.64,0,0,0-.07.28.54.54,0,0,0,.26.46.46.46,0,0,0,.28.06.44.44,0,0,0,.25-.06.5.5,0,0,0,.19-.19A.64.64,0,0,0,189.51,224Z" transform="translate(-50.1 -47.72)"/><path d="M192.45,225.1v-.32a.58.58,0,0,1-.11.15.83.83,0,0,1-.27.19.86.86,0,0,1-.39.09,1,1,0,0,1-.56-.17.91.91,0,0,1-.38-.42,1.33,1.33,0,0,1,0-1.2,1.21,1.21,0,0,1,.38-.43,1.13,1.13,0,0,1,.56-.16,1.22,1.22,0,0,1,.38.07,1,1,0,0,1,.25.15.55.55,0,0,1,.14.17v-.32h.83v2.24Zm-1-1.14a.52.52,0,0,0,.07.27.53.53,0,0,0,.72.19.61.61,0,0,0,.17-.19.57.57,0,0,0,.08-.28.69.69,0,0,0-.08-.28.52.52,0,0,0-.72-.16.44.44,0,0,0-.17.16.5.5,0,0,0-.07.29Z" transform="translate(-50.1 -47.72)"/><path d="M194.81,222.79h.4a1.68,1.68,0,0,1,.32.09.55.55,0,0,1,.15.08l-.27.49-.19-.1a.81.81,0,0,0-.31-.06.45.45,0,0,0-.23,0,.12.12,0,0,0-.09.11.19.19,0,0,0,.1.14,1.4,1.4,0,0,0,.29.09,1.39,1.39,0,0,1,.33.1.66.66,0,0,1,.29.21.54.54,0,0,1,.11.37.64.64,0,0,1-.1.38.55.55,0,0,1-.26.24,1.23,1.23,0,0,1-.37.12,2.32,2.32,0,0,1-.38,0,1.61,1.61,0,0,1-.44-.06.89.89,0,0,1-.31-.11l-.17-.08.28-.55a1,1,0,0,0,.23.13,1,1,0,0,0,.33.08.67.67,0,0,0,.28-.06.13.13,0,0,0,.09-.13.11.11,0,0,0,0-.11.27.27,0,0,0-.14-.07.66.66,0,0,0-.2-.06l-.24-.07a.94.94,0,0,1-.22-.12.46.46,0,0,1-.18-.21.59.59,0,0,1-.07-.29A.51.51,0,0,1,194,223a.78.78,0,0,1,.38-.23A1.93,1.93,0,0,1,194.81,222.79Z" transform="translate(-50.1 -47.72)"/><path d="M196.6,222.39a.44.44,0,0,1-.46-.45h0a.42.42,0,0,1,.13-.33.46.46,0,0,1,.56-.08.46.46,0,0,1,.17.17.46.46,0,0,1-.07.58A.44.44,0,0,1,196.6,222.39Zm-.42,2.69v-2.24H197v2.24Z" transform="translate(-50.1 -47.72)"/><path d="M198.79,224.51a.45.45,0,0,0,.26,0l.14-.08.38.55-.15.1-.27.09a1.62,1.62,0,0,1-1-.1,1,1,0,0,1-.45-.41,1.27,1.27,0,0,1,0-1.25,1.07,1.07,0,0,1,.45-.42,1.57,1.57,0,0,1,.68-.15,1.39,1.39,0,0,1,.63.15.38.38,0,0,1,.15.09l-.39.56-.06-.05-.13-.06h-.2a.36.36,0,0,0-.24.07.5.5,0,0,0-.27.45.54.54,0,0,0,.08.28.44.44,0,0,0,.19.19A.41.41,0,0,0,198.79,224.51Z" transform="translate(-50.1 -47.72)"/><path d="M201.78,225.1v-.41a.59.59,0,0,1-.13.18,1.09,1.09,0,0,1-.27.21,1.18,1.18,0,0,1-.42.1,1.34,1.34,0,0,1-.56-.16,1,1,0,0,1-.4-.42,1.4,1.4,0,0,1,0-1.23,1.1,1.1,0,0,1,1-.58.9.9,0,0,1,.4.09,1.27,1.27,0,0,1,.27.18.52.52,0,0,1,.14.19v-.38h.58v2.23ZM200.43,224a.78.78,0,0,0,.09.37.67.67,0,0,0,.58.34.65.65,0,0,0,.58-.34.69.69,0,0,0,.08-.37.67.67,0,0,0-.32-.63.67.67,0,0,0-.34-.09.8.8,0,0,0-.33.08,1,1,0,0,0-.25.25.86.86,0,0,0-.09.39Z" transform="translate(-50.1 -47.72)"/><path d="M203.5,225.1h-.58v-3.76h.58Z" transform="translate(-50.1 -47.72)"/><path d="M204.74,225.1h-.59v-3.76h.59Z" transform="translate(-50.1 -47.72)"/><path d="M206.36,224.58l.71-1.71h.58l-1.52,3.36h-.55l.51-1.13-.89-2.24h.59Z" transform="translate(-50.1 -47.72)"/><circle cx="157.96" cy="177.03" r="0.4"/></svg>