<?xml version="1.0" encoding="UTF-8"?>
<svg data-bbox="0 -0.004 254.25 279.145" viewBox="0 0 254.26 279.15" xmlns="http://www.w3.org/2000/svg" data-type="ugc">
    <g>
        <path stroke="#333333" fill="none" stroke-miterlimit="10" d="M216.46 105.61c0 48.28-39.14 87.42-87.42 87.42s-87.42-39.14-87.42-87.42 39.14-87.42 87.42-87.42 87.42 39.14 87.42 87.42z"/>
        <path fill="#fafafa" d="M99.08 27.32c0 8.754-7.096 15.85-15.85 15.85s-15.85-7.096-15.85-15.85 7.096-15.85 15.85-15.85 15.85 7.096 15.85 15.85z"/>
        <path fill="#fafafa" d="M187.05 27.32c0 8.754-7.096 15.85-15.85 15.85s-15.85-7.096-15.85-15.85 7.096-15.85 15.85-15.85 15.85 7.096 15.85 15.85z"/>
        <path fill="#fafafa" d="M227.81 82.97c0 8.754-7.096 15.85-15.85 15.85s-15.85-7.096-15.85-15.85 7.096-15.85 15.85-15.85 15.85 7.096 15.85 15.85z"/>
        <path fill="#fafafa" d="M64.21 82.97c0 8.754-7.096 15.85-15.85 15.85s-15.85-7.096-15.85-15.85 7.096-15.85 15.85-15.85 15.85 7.096 15.85 15.85z"/>
        <path fill="#fafafa" d="M68.76 148.7c0 8.754-7.096 15.85-15.85 15.85s-15.85-7.096-15.85-15.85 7.096-15.85 15.85-15.85 15.85 7.096 15.85 15.85z"/>
        <path fill="#fafafa" d="M146.82 193.03c0 8.754-7.096 15.85-15.85 15.85s-15.85-7.096-15.85-15.85 7.096-15.85 15.85-15.85 15.85 7.096 15.85 15.85z"/>
        <path fill="#fafafa" d="M219.02 148.7c0 8.754-7.096 15.85-15.85 15.85s-15.85-7.096-15.85-15.85 7.096-15.85 15.85-15.85 15.85 7.096 15.85 15.85z"/>
        <path d="M125.69 189.04a.34.34 0 0 0-.35.32.35.35 0 0 0 .35.35h7.79a.35.35 0 0 0 .35-.35.34.34 0 0 0-.32-.35h-7.82Z"/>
        <path d="M121.27 187.71v3.72l2.32 2.14 2.31-2.24a.39.39 0 0 1 .25-.1h7.82a.33.33 0 0 1 .34.32v5.25h5.29v-9.1a.18.18 0 0 0-.18-.17h-18.09a.28.28 0 0 0 0 .13Zm-.68 3.86v-3.87a.83.83 0 0 1 .26-.61.86.86 0 0 1 .61-.25h18a.85.85 0 0 1 .87.85v9.45a.34.34 0 0 1-.34.34h-6a.34.34 0 0 1-.34-.33v-5.23h-7.35l-2.52 2.38a.33.33 0 0 1-.48 0l-2.6-2.48a.33.33 0 0 1-.11-.25Z"/>
        <path d="M140.64 189.01a.7.7 0 0 0-.33-.2v3a.92.92 0 0 0 .33-.19.78.78 0 0 0 .21-.51v-1.54a.71.71 0 0 0-.21-.5Zm-.67-.9h.17a1.34 1.34 0 0 1 1 .4 1.38 1.38 0 0 1 .42 1v1.65a1.38 1.38 0 0 1-.42 1 1.34 1.34 0 0 1-1 .4h-.17a.33.33 0 0 1-.35-.32v-3.77a.33.33 0 0 1 .32-.34Z"/>
        <path d="M123.75 185.35h-.41v1.5h.41Zm-.75-.69h1.15a.34.34 0 0 1 .35.32v2.22a.35.35 0 0 1-.35.35H123a.34.34 0 0 1-.35-.35v-2.19a.34.34 0 0 1 .32-.35Z"/>
        <path d="M123.2 195.37a.35.35 0 0 0 .28.4.36.36 0 0 0 .41-.28v-1.43a.351.351 0 0 0-.69-.13v1.44Z"/>
        <path d="M141.31 197.5H120.6v3.19h20.7v-3.19Zm-21-.69h21.38a.35.35 0 0 1 .35.35v3.92a.33.33 0 0 1-.32.34h-21.45a.34.34 0 0 1-.34-.33v-3.89a.35.35 0 0 1 .34-.35Z"/>
        <path d="M137.46 189.84a.68.68 0 0 0-1 0 .68.68 0 0 0 0 1 .77.77 0 0 0 .48.2.69.69 0 0 0 .5-1.15Zm-.48-.89a1.38 1.38 0 0 1 1 2.35 1.47 1.47 0 0 1-1 .4 1.41 1.41 0 0 1-1-.4 1.37 1.37 0 0 1 0-1.93 1.41 1.41 0 0 1 1-.42Z"/>
        <path d="M137.6 193.82h-1.24a.18.18 0 0 0-.18.18v1.3a.19.19 0 0 0 .18.18h1.24a.19.19 0 0 0 .18-.18v-1.24a.19.19 0 0 0-.18-.19Zm-1.24-.7h1.24a.92.92 0 0 1 .88.88v1.3a.84.84 0 0 1-.27.61.82.82 0 0 1-.61.25h-1.24a.87.87 0 0 1-.87-.86v-1.24a.83.83 0 0 1 .26-.61.84.84 0 0 1 .61-.27Z"/>
        <path d="M122.26 198.76a.35.35 0 0 0-.35.35.34.34 0 0 0 .32.35h17.45a.35.35 0 0 0 .34-.35.35.35 0 0 0-.34-.35Z"/>
        <path d="m207.19 151.57-3.35-2.52 7.66-3.22 3.47 2.52-7.73 3.22Zm4 4.19-7.71 3.41v-9.54l3.47 2.55h.36l3.91-1.61v5.16Zm-16-5.16 3.92 1.61h.26l3.46-2.54v9.53l-7.74-3.41v-5.15Zm-.26-4.72 7.66 3.22-.3.21-3.2 2.31-7.73-3.18 3.47-2.52Zm4.16-6.41 3.41 2.48-7.66 3.22-3.47-2.52 7.73-3.18Zm8.09 0 7.74 3.18-3.47 2.52-7.65-3.22 3.4-2.48Zm-4 9.25-7.52-3.15 7.54-3.17 7.53 3.17Zm12.58-.47-3.67-2.68 3.72-2.69a.33.33 0 0 0 .13-.29.35.35 0 0 0-.2-.24l-8.4-3.47a.34.34 0 0 0-.31 0l-3.8 2.76-3.8-2.76a.32.32 0 0 0-.3 0l-8.41 3.47a.31.31 0 0 0-.19.24.3.3 0 0 0 .12.29l3.73 2.69-3.73 2.71a.26.26 0 0 0-.12.27.32.32 0 0 0 .19.26l3.88 1.59v5.62a.3.3 0 0 0 .17.29l8.33 3.68h.19l8.32-3.68a.3.3 0 0 0 .19-.29v-5.61l3.87-1.59a.36.36 0 0 0 .2-.26.3.3 0 0 0-.13-.27Z" fill="#333333"/>
        <path d="M60.84 87.24h-2.66a2.32 2.32 0 0 0-4.63 0h-.46v-7.4h4.93l2.83 4.22v3.18Zm-5 1.88a1.42 1.42 0 1 1 1.41-1.42 1.42 1.42 0 0 1-1.41 1.42Zm-14.63-2.83a1.42 1.42 0 1 1-1.41 1.41 1.41 1.41 0 0 1 1.41-1.41Zm17.43-7.16a.47.47 0 0 0-.38-.21h-5.17v-2.58a.47.47 0 0 0-.46-.46H37.52a.46.46 0 0 0-.46.46V87.7a.46.46 0 0 0 .46.47h1.39a2.31 2.31 0 1 0 4.62 0h1.56a.47.47 0 1 0 0-.93h-1.6a2.32 2.32 0 0 0-4.63 0h-.92v-10.4h14.2v10.4h-5.42a.47.47 0 0 0 0 .93h6.83a2.32 2.32 0 0 0 4.63 0h3.12a.47.47 0 0 0 .46-.47v-3.79a.38.38 0 0 0-.08-.25Z"/>
        <path d="M39.6 81.17h1.35a.47.47 0 0 0 .4-.54.47.47 0 0 0-.4-.39H39.6a.47.47 0 0 0 0 .93Z"/>
        <path d="M50.53 80.24h-8a.47.47 0 0 0-.4.54.47.47 0 0 0 .4.39h8a.47.47 0 0 0 .39-.54.47.47 0 0 0-.39-.39Z"/>
        <path d="M50.53 82.87h-1.35a.48.48 0 0 0-.54.4.47.47 0 0 0 .4.54.33.33 0 0 0 .14 0h1.35a.47.47 0 0 0 .39-.54.47.47 0 0 0-.39-.4Z"/>
        <path d="M39.6 83.81h8a.48.48 0 0 0 0-.94h-8a.47.47 0 0 0-.39.54.47.47 0 0 0 .39.4Z"/>
        <path d="M54.85 83.16v-1.59h2.31l1 1.58Zm2.52-2.52h-3a.47.47 0 0 0-.46.46v2.52a.47.47 0 0 0 .46.47h4.72a.49.49 0 0 0 .4-.73l-1.71-2.51a.45.45 0 0 0-.41-.21Z"/>
        <path d="M160.39 28.57c0-.78.81-1.43 1.88-1.57v4.51c-1.07-.14-1.88-.79-1.88-1.57ZM182 29.98c0 .79-.81 1.44-1.87 1.58v-4.51c1.06.14 1.87.78 1.87 1.57Zm-16 1.48v-3.31a10.78 10.78 0 0 0 1.48-.4 13.39 13.39 0 0 0 2.18-.91 14.56 14.56 0 0 0 1.73-1.06l2 1a19.68 19.68 0 0 0 2.21 1 7.14 7.14 0 0 0 1.07.37v3.23a5.46 5.46 0 0 1-5.31 5.6 5.14 5.14 0 0 1-3.63-1.5h.68a1.15 1.15 0 0 0 1 .58h1.27a1.16 1.16 0 1 0 0-2.21h-1.27a1.17 1.17 0 0 0-1 .73h-1.35a5.69 5.69 0 0 1-.95-3.2Zm14.09-5.31v-1.64a7.13 7.13 0 0 0-2.8-4.87 9.82 9.82 0 0 0-6.13-2 9.18 9.18 0 0 0-5.9 1.93 8.88 8.88 0 0 0-3 4.87v1.66a2.77 2.77 0 0 0-2.74 2.47v1.39a2.79 2.79 0 0 0 2.83 2.48 3.57 3.57 0 0 0 1.35 2.31v2.31a.45.45 0 1 0 .9 0v-1.8a3.54 3.54 0 0 0 1.28.24h.62a6.26 6.26 0 0 0 1.79 1.57 5.9 5.9 0 0 0 6 0 6.56 6.56 0 0 0 3.25-5.71v-3.69h-.19a8.13 8.13 0 0 1-1.72-.59 39.86 39.86 0 0 1-3.86-2 .5.5 0 0 0-.5 0 12.88 12.88 0 0 1-3.72 2 11.12 11.12 0 0 1-1.69.46.37.37 0 0 0-.22.1.44.44 0 0 0-.35.43v3.58a6.73 6.73 0 0 0 .81 3.2 2.7 2.7 0 0 1-1.28-.32v-7.62a6.74 6.74 0 0 1 13.41 0v10.24a.46.46 0 0 0 .52.38.47.47 0 0 0 .37-.38V26.67a7.63 7.63 0 0 0-15.2 0v6.78a2.63 2.63 0 0 1-.49-1.53.6.6 0 0 0 0-.19v-4.77a.14.14 0 0 0 0-.09v-2.3a7.94 7.94 0 0 1 2.66-4.34 8.35 8.35 0 0 1 5.38-1.72 9 9 0 0 1 5.57 1.8 6.23 6.23 0 0 1 2.44 4.26v7.39a.45.45 0 0 0 .44.45h.06a2.9 2.9 0 0 0 2.91-2.4v-1.44a2.79 2.79 0 0 0-2.8-2.47Z" fill="#050606"/>
        <path d="M124.72 261.07c-1-.32-2-.56-2.93-.93a1.15 1.15 0 0 1-.57-.87c.3-1.92.64-3.81 1.05-5.71a2.77 2.77 0 0 1 1.66-1.92 8.92 8.92 0 0 1 5.78-1.16 11.48 11.48 0 0 0 3.79-.16c2.64-.33 5.87 1.68 6.47 4.22.34 1.46.48 3 .75 4.44a1 1 0 0 1-.63 1.2h-.17c-.88.24-1.75.51-2.73.8v8.67a1 1 0 0 1-.75 1.15 20.25 20.25 0 0 1-10.92 0c-.63-.17-.79-.55-.79-1.15v-8.58Zm-.08-1.15a6.48 6.48 0 0 0-.55-4.35c-.13-.2 0-.53-.08-.79.27.11.73.17.79.35a10.44 10.44 0 0 1 .77 2.95c.09 3.63.07 7.26 0 10.89 0 .86.31 1.16 1.06 1.3a22.92 22.92 0 0 0 8.58 0c.77-.15 1-.5 1-1.32v-10.88a4.49 4.49 0 0 1 .9-3.08c.13-.15.46-.12.71-.17 0 .22.09.51 0 .66-1 1.37-.66 2.92-.71 4.43 2.31 0 2.68-.4 2.44-2.43-.06-.41-.16-.8-.19-1.16a4.76 4.76 0 0 0-4.27-4.85.93.93 0 0 0-1 .27 4.73 4.73 0 0 1-6.31 0 1.15 1.15 0 0 0-.91-.26 4.76 4.76 0 0 0-4.4 4.87 7.07 7.07 0 0 1-.16 1c-.26 2.2-.07 2.42 2.2 2.63Zm8.18-8.45h-3.73a3.37 3.37 0 0 0 3.77 0Z"/>
        <path d="M124.64 259.95h-.15c-2.31-.21-2.46-.43-2.2-2.62 0-.35.15-.68.16-1a4.76 4.76 0 0 1 4.4-4.87 1.17 1.17 0 0 1 .91.27 4.75 4.75 0 0 0 6.31 0 .92.92 0 0 1 1-.28 4.79 4.79 0 0 1 4.31 4.86 10.1 10.1 0 0 0 .18 1.21c.25 2-.15 2.44-2.43 2.43 0-1.52-.3-3.06.7-4.44.11-.14 0-.43 0-.66-.23 0-.56 0-.7.17a4.53 4.53 0 0 0-.9 3.09V269c0 .83-.27 1.16-1 1.32a22.51 22.51 0 0 1-8.58 0c-.75-.14-1.09-.43-1.08-1.28.06-3.65.09-7.28 0-10.91a9.94 9.94 0 0 0-.75-2.94c-.07-.19-.53-.25-.81-.36a2.4 2.4 0 0 0 .08.8 6.28 6.28 0 0 1 .55 4.32Z" fill="#fafafa"/>
        <path d="M132.82 251.5a3.33 3.33 0 0 1-3.77 0Z" fill="#fafafa"/>
        <path stroke="#231f20" fill="none" stroke-miterlimit="10" d="m115.13 261.03-46.38-.08"/>
        <path stroke="#231f20" fill="none" stroke-miterlimit="10" d="m193.18 261.12-46.37-.09"/>
        <path stroke="#231f20" fill="none" stroke-miterlimit="10" d="m130.9 243.71.08-20.62"/>
        <path d="M122.7 209.45h.53v2.85h1.28v.47h-1.81Z"/>
        <path d="M126.09 209.45h.55l1.24 3.32h-.56l-.27-.76h-1.37l-.28.76h-.57Zm-.24 2.09h1l-.49-1.45Z"/>
        <path d="M128.21 209.45h1a1.77 1.77 0 0 1 .52.06.93.93 0 0 1 .39.26.71.71 0 0 1 .15.48.91.91 0 0 1-.08.37.68.68 0 0 1-.2.27.56.56 0 0 1-.24.13l.22.07a.62.62 0 0 1 .22.15 1 1 0 0 1 .17.24 1 1 0 0 1 0 .35 1 1 0 0 1-.12.49.75.75 0 0 1-.33.33 1.17 1.17 0 0 1-.58.12h-1.16Zm.53 1.41h.48a.53.53 0 0 0 .28-.07.47.47 0 0 0 .18-.19 1.14 1.14 0 0 0 .06-.25.4.4 0 0 0-.17-.37.79.79 0 0 0-.4-.1h-.47Zm0 1.48h.55a.83.83 0 0 0 .34-.07.49.49 0 0 0 .18-.2 1.22 1.22 0 0 0 0-.27.54.54 0 0 0-.15-.38.66.66 0 0 0-.44-.14h-.52Z"/>
        <path d="M130.79 211.11a1.59 1.59 0 0 1 .13-.68 1.64 1.64 0 0 1 .87-.92 1.77 1.77 0 0 1 1.32 0 1.8 1.8 0 0 1 .53.37 1.64 1.64 0 0 1 .36.55 2 2 0 0 1 .12.68 1.89 1.89 0 0 1-.12.67 1.82 1.82 0 0 1-.35.56 1.68 1.68 0 0 1-.53.37 1.89 1.89 0 0 1-.67.12 1.93 1.93 0 0 1-.67-.12 1.63 1.63 0 0 1-.88-.93 1.69 1.69 0 0 1-.11-.67Zm.54 0a1.31 1.31 0 0 0 .15.61 1 1 0 0 0 .39.44 1.06 1.06 0 0 0 1.16 0 1 1 0 0 0 .39-.44 1.11 1.11 0 0 0 .15-.61 1.12 1.12 0 0 0-.15-.62.93.93 0 0 0-.39-.44 1.15 1.15 0 0 0-1.16 0 1 1 0 0 0-.39.44 1.32 1.32 0 0 0-.15.62Z"/>
        <path d="M136.64 209.45h.52v2a1.45 1.45 0 0 1-.16.71 1.08 1.08 0 0 1-.46.46 1.38 1.38 0 0 1-.67.16 1.48 1.48 0 0 1-.68-.16 1.17 1.17 0 0 1-.45-.46 1.35 1.35 0 0 1-.16-.71v-2.06h.51v2.06a1 1 0 0 0 .1.46.74.74 0 0 0 .28.3.8.8 0 0 0 .79 0 .76.76 0 0 0 .26-.3.92.92 0 0 0 .11-.46Z"/>
        <path d="M137.76 209.45h1.15a.94.94 0 0 1 .5.11.9.9 0 0 1 .36.34 1 1 0 0 1 .13.53.94.94 0 0 1-.12.51.92.92 0 0 1-.29.3.64.64 0 0 1-.3.11l.81 1.42h-.59l-.76-1.38h-.43v1.38h-.52Zm.52 1.56h.51a.9.9 0 0 0 .45-.13.52.52 0 0 0 .17-.44.51.51 0 0 0-.17-.43.72.72 0 0 0-.45-.13h-.51Z"/>
        <path d="M219.29 166.57h1a1.6 1.6 0 0 1 .57.11.83.83 0 0 1 .4.32 1 1 0 0 1 .15.57 1 1 0 0 1-.15.58.94.94 0 0 1-.4.34 1.42 1.42 0 0 1-.57.12h-.5v1.29h-.52Zm.52 1.6h.35a.76.76 0 0 0 .36-.06.45.45 0 0 0 .25-.18.57.57 0 0 0 .1-.35.55.55 0 0 0-.1-.35.49.49 0 0 0-.25-.17 1.09 1.09 0 0 0-.36 0h-.35Z"/>
        <path d="M222.59 166.57h.5l1.26 3.33h-.57l-.27-.76h-1.37l-.28.76h-.56Zm-.25 2.1h1l-.52-1.45Z"/>
        <path d="M226.28 169.39a1.68 1.68 0 0 0 .5-.07 1.91 1.91 0 0 0 .32-.16l.22.45a1.39 1.39 0 0 1-.4.21 1.88 1.88 0 0 1-.67.1 1.83 1.83 0 0 1-1.25-.5 1.85 1.85 0 0 1-.37-.54 1.88 1.88 0 0 1 0-1.36 1.72 1.72 0 0 1 .37-.55 2 2 0 0 1 .56-.37 1.62 1.62 0 0 1 .69-.12 1.88 1.88 0 0 1 .67.1 1 1 0 0 1 .4.2l-.22.45a1 1 0 0 0-.32-.15 1.22 1.22 0 0 0-.5-.08 1.06 1.06 0 0 0-.5.09.94.94 0 0 0-.37.25 1.08 1.08 0 0 0-.26.38 1.42 1.42 0 0 0 0 .94 1.16 1.16 0 0 0 .26.39 1.37 1.37 0 0 0 .37.26 1.42 1.42 0 0 0 .5.08Z"/>
        <path d="m228.82 168.16 1.33 1.7h-.64l-1.15-1.51v1.51h-.54v-3.29h.54v1.47l1.09-1.47h.64Z"/>
        <path d="M231.51 166.57h.58l1.26 3.33h-.58l-.28-.76h-1.4l-.27.76h-.57Zm-.24 2.1h1l-.51-1.45Z"/>
        <path d="M235.09 168.04h1.68v.18a1.84 1.84 0 0 1-.12.66 1.62 1.62 0 0 1-.35.54 1.35 1.35 0 0 1-.52.36 1.48 1.48 0 0 1-.66.14 1.63 1.63 0 0 1-1.15-.51 1.77 1.77 0 0 1-.35-.55 1.8 1.8 0 0 1 0-1.33 1.71 1.71 0 0 1 .35-.56 1.8 1.8 0 0 1 .53-.37 1.53 1.53 0 0 1 .67-.12 1.63 1.63 0 0 1 .49.05 2.5 2.5 0 0 1 .38.15 2.25 2.25 0 0 1 .3.24l.21.26-.49.24a1.22 1.22 0 0 0-.36-.32 1.19 1.19 0 0 0-.53-.13 1.09 1.09 0 0 0-.81.36 1.54 1.54 0 0 0-.23.39 1.33 1.33 0 0 0 .23 1.33 1 1 0 0 0 .36.27.87.87 0 0 0 .45.09 1.23 1.23 0 0 0 .42-.07.75.75 0 0 0 .32-.21.73.73 0 0 0 .22-.3 1 1 0 0 0 .09-.38h-1.13Z"/>
        <path d="M237.23 166.57h.54v3.33h-.54Z"/>
        <path d="M238.92 167.03v2.83h-.52v-3.29h.74l1.61 2.82v-2.82h.52v3.34h-.74Z"/>
        <path d="M243.41 168.04h1.68v.18a1.61 1.61 0 0 1-.46 1.2 1.35 1.35 0 0 1-.52.36 1.51 1.51 0 0 1-.66.14 1.63 1.63 0 0 1-1.15-.51 1.77 1.77 0 0 1-.35-.55 1.8 1.8 0 0 1 0-1.33 1.71 1.71 0 0 1 .35-.56 1.8 1.8 0 0 1 .53-.37 2.08 2.08 0 0 1 1.15-.07 2.62 2.62 0 0 1 .39.15 3.15 3.15 0 0 1 .3.24 2.56 2.56 0 0 1 .2.26l-.48.24a1.07 1.07 0 0 0-.89-.45 1.08 1.08 0 0 0-.81.36 1.29 1.29 0 0 0-.23.39 1.38 1.38 0 0 0 0 .94 1.18 1.18 0 0 0 .23.39 1 1 0 0 0 .36.27.87.87 0 0 0 .45.09 1.14 1.14 0 0 0 .41-.07.72.72 0 0 0 .33-.21.84.84 0 0 0 .22-.3.79.79 0 0 0 .09-.38h-1.09Z"/>
        <path d="M37.46 257.04h2a1.87 1.87 0 0 1 .8.18 1.41 1.41 0 0 1 .61.5 1.91 1.91 0 0 1 0 1.68 1.51 1.51 0 0 1-.46.48 1.12 1.12 0 0 1-.5.18l1.32 2.31h-1l-1.14-2.21h-.68v2.18h-.86Zm.86 2.52h.77a1.13 1.13 0 0 0 .71-.22.78.78 0 0 0 .29-.69.8.8 0 0 0-.29-.71 1.2 1.2 0 0 0-.71-.2h-.81Z"/>
        <path d="M42.09 257.04h3.2v.76H42.9v1.54h2.31v.69H42.9v1.54h2.39v.76h-3.2Z"/>
        <path d="M47.39 257.8h-1.38v-.76h3.61v.76h-1.38v4.63h-.85Z"/>
        <path d="M51.4 257.04h.87l2 5.3h-.9l-.44-1.15h-2.2l-.44 1.15h-.91Zm-.39 3.36h1.65l-.82-2.31Z"/>
        <path d="M54.87 257.04h.85v5.3h-.85Z"/>
        <path d="M56.8 257.04h.86v4.62h2v.68h-2.9Z"/>
        <path d="M239.44 72.57h1.79v.47h-1.26v1h1.12v.48h-1.16v1.43h-.53Z"/>
        <path d="M242.61 72.57h.53l1.26 3.33h-.56l-.28-.76h-1.37l-.27.76h-.57Zm-.24 2.09h1l-.51-1.44Z"/>
        <path d="M244.75 72.57h1a1.75 1.75 0 0 1 .51.07.94.94 0 0 1 .39.25.72.72 0 0 1 .15.49.8.8 0 0 1-.08.37.7.7 0 0 1-.19.26.5.5 0 0 1-.26.13.81.81 0 0 1 .22.07.76.76 0 0 1 .23.15.81.81 0 0 1 .17.24.83.83 0 0 1 .06.35 1 1 0 0 1-.11.5.78.78 0 0 1-.35.32 1.29 1.29 0 0 1-.58.13h-1.15Zm.53 1.41h.47a.57.57 0 0 0 .29-.07.47.47 0 0 0 .17-.2.49.49 0 0 0 0-.24.42.42 0 0 0-.16-.37.73.73 0 0 0-.41-.09h-.42Zm0 1.48h.54a.65.65 0 0 0 .34-.07.55.55 0 0 0 .17-.2.43.43 0 0 0 .06-.27.46.46 0 0 0-.15-.37.63.63 0 0 0-.44-.14h-.52Z"/>
        <path d="M247.47 72.57h1.15a1 1 0 0 1 .5.11.9.9 0 0 1 .36.34 1.08 1.08 0 0 1 .12.53 1 1 0 0 1-.11.51.83.83 0 0 1-.29.3.79.79 0 0 1-.3.12l.81 1.42h-.62l-.76-1.39h-.43v1.39h-.52Zm.52 1.56h.5a.79.79 0 0 0 .45-.13.52.52 0 0 0 .15-.43.46.46 0 0 0-.18-.42.64.64 0 0 0-.45-.14h-.5Z"/>
        <path d="M250.36 72.57h.52v3.33h-.52Z"/>
        <path d="M253.21 75.4a1.67 1.67 0 0 0 .5-.06.94.94 0 0 0 .31-.17l.23.45a1.06 1.06 0 0 1-.39.21 2 2 0 0 1-.68.11 2 2 0 0 1-.69-.13 1.84 1.84 0 0 1-.55-.37 1.53 1.53 0 0 1-.37-.54 1.75 1.75 0 0 1 0-1.37 1.53 1.53 0 0 1 .37-.54 1.84 1.84 0 0 1 .55-.37 1.8 1.8 0 0 1 .69-.13 2 2 0 0 1 .68.11 1.41 1.41 0 0 1 .39.19l-.23.45a.89.89 0 0 0-.31-.15 1.51 1.51 0 0 0-1 0 1.08 1.08 0 0 0-.38.26 1.17 1.17 0 0 0-.24.38 1.09 1.09 0 0 0-.08.47 1.27 1.27 0 0 0 .08.48 1.57 1.57 0 0 0 .3.38 1.19 1.19 0 0 0 .38.25 1.32 1.32 0 0 0 .44.09Z"/>
        <path d="M160.66.07h.53v2.84h1.27v.49h-1.8Z"/>
        <path d="M162.79 1.72a1.53 1.53 0 0 1 .12-.67 1.82 1.82 0 0 1 .35-.56 1.58 1.58 0 0 1 .53-.35 1.65 1.65 0 0 1 1.85.35 1.58 1.58 0 0 1 .36.56 1.9 1.9 0 0 1 .13.67 2 2 0 0 1-.13.68 1.71 1.71 0 0 1-.35.56 1.77 1.77 0 0 1-.53.36 1.79 1.79 0 0 1-1.34 0 1.77 1.77 0 0 1-.53-.36 1.71 1.71 0 0 1-.35-.56 1.77 1.77 0 0 1-.11-.68Zm.54 0a1.21 1.21 0 0 0 .15.62 1.18 1.18 0 0 0 .39.44 1.09 1.09 0 0 0 1.17 0 1.1 1.1 0 0 0 .39-.44 1.2 1.2 0 0 0 .14-.62 1.3 1.3 0 0 0-.14-.61 1 1 0 0 0-1-.6 1 1 0 0 0-.58.16 1.18 1.18 0 0 0-.39.44 1.16 1.16 0 0 0-.1.61Z"/>
        <path d="M168.09 1.57h1.68v.18a1.84 1.84 0 0 1-.12.66 1.64 1.64 0 0 1-.34.55 1.86 1.86 0 0 1-.52.36 1.53 1.53 0 0 1-.66.13 1.56 1.56 0 0 1-.68-.13 1.64 1.64 0 0 1-.52-.37 1.82 1.82 0 0 1-.35-.56 1.8 1.8 0 0 1 0-1.33 1.77 1.77 0 0 1 .35-.55 1.38 1.38 0 0 1 .52-.37 1.7 1.7 0 0 1 1.16-.07 1.26 1.26 0 0 1 .38.15 1.71 1.71 0 0 1 .51.49l-.48.25a1.42 1.42 0 0 0-.36-.33 1.24 1.24 0 0 0-.53-.12 1 1 0 0 0-.81.35 1.25 1.25 0 0 0-.31.86 1.09 1.09 0 0 0 .08.47 1.23 1.23 0 0 0 .23.4 1 1 0 0 0 .36.26 1 1 0 0 0 .45.1 1.41 1.41 0 0 0 .41-.07.93.93 0 0 0 .33-.21 1.29 1.29 0 0 0 .22-.3 1.24 1.24 0 0 0 .09-.38h-1.09Z"/>
        <path d="M170.31.07h.52V3.4h-.52Z"/>
        <path d="M172.62 0a1.74 1.74 0 0 1 .85.21l.15.1-.26.43-.13-.1-.25-.1a.81.81 0 0 0-.31 0 .9.9 0 0 0-.4.09.33.33 0 0 0-.15.29.27.27 0 0 0 .08.23.84.84 0 0 0 .23.18l.36.17.34.16a1.66 1.66 0 0 1 .3.22.91.91 0 0 1-.05 1.38 1.13 1.13 0 0 1-.39.17 1.33 1.33 0 0 1-.45.07 2.1 2.1 0 0 1-.56-.08 1.92 1.92 0 0 1-.42-.16l-.18-.11.28-.45.11.07.21.11.26.09h.31a.75.75 0 0 0 .46-.13.45.45 0 0 0 .16-.35.39.39 0 0 0-.11-.27.75.75 0 0 0-.26-.21l-.4-.2a2.32 2.32 0 0 1-.41-.24.86.86 0 0 1-.3-.3.82.82 0 0 1 0-.88 1.1 1.1 0 0 1 .38-.29 1.3 1.3 0 0 1 .55-.1Z"/>
        <path d="M174.87.57H174v-.5h2.25v.5h-.85V3.4h-.53Z"/>
        <path d="M176.75.07h.5V3.4h-.52Z"/>
        <path d="M179.56 2.92a1.22 1.22 0 0 0 .5-.08.89.89 0 0 0 .31-.15l.23.45a1.47 1.47 0 0 1-.39.21 2 2 0 0 1-.68.1 1.63 1.63 0 0 1-.69-.13 2 2 0 0 1-.55-.36 1.57 1.57 0 0 1-.37-.55 1.69 1.69 0 0 1 0-1.36 1.45 1.45 0 0 1 .37-.54 1.67 1.67 0 0 1 .55-.37 1.64 1.64 0 0 1 .69-.14 2.24 2.24 0 0 1 .68.1 1.47 1.47 0 0 1 .39.21l-.23.45a.89.89 0 0 0-.28-.19 1.22 1.22 0 0 0-.5-.08 1.08 1.08 0 0 0-.5.09 1 1 0 0 0-.38.26.88.88 0 0 0-.24.38 1 1 0 0 0-.08.46 1.27 1.27 0 0 0 .32.87 1.39 1.39 0 0 0 .38.25 1.22 1.22 0 0 0 .47.12Z"/>
        <path d="M182.24 0a1.46 1.46 0 0 1 .51.07 1.43 1.43 0 0 1 .34.14l.15.1-.27.43-.13-.1-.24-.1a.81.81 0 0 0-.31 0 1 1 0 0 0-.41.09.38.38 0 0 0-.15.29.36.36 0 0 0 .08.23 1.08 1.08 0 0 0 .24.18l.35.17.35.16a1.66 1.66 0 0 1 .3.22 1 1 0 0 1 .21.29.91.91 0 0 1-.27 1.09 1 1 0 0 1-.38.17 1.37 1.37 0 0 1-.45.07 2.32 2.32 0 0 1-.58-.08 2 2 0 0 1-.4-.16l-.19-.11.28-.45.12.07.21.11a1.14 1.14 0 0 0 .26.09h.3a.73.73 0 0 0 .46-.13.43.43 0 0 0 .17-.35.39.39 0 0 0-.11-.27.75.75 0 0 0-.26-.21l-.4-.2a2.32 2.32 0 0 1-.41-.22 1.14 1.14 0 0 1-.32-.3.92.92 0 0 1-.11-.43.74.74 0 0 1 .15-.45.9.9 0 0 1 .38-.29 1.41 1.41 0 0 1 .53-.12Z"/>
        <path d="M69.74.57h-.87V.12h2.31v.45h-.86v2.88h-.58Z"/>
        <path d="M72.22.12h.55l1.26 3.33h-.57l-.25-.76h-1.4l-.28.76h-.57Zm-.24 2.12h1L72.47.8Z"/>
        <path d="M75.75 1.63h1.68v.19a1.84 1.84 0 0 1-.12.66 1.58 1.58 0 0 1-.35.53 1.28 1.28 0 0 1-.52.37 1.65 1.65 0 0 1-.66.13 1.55 1.55 0 0 1-.69-.14 1.38 1.38 0 0 1-.53-.37 1.46 1.46 0 0 1-.34-.54 1.79 1.79 0 0 1 0-1.34 1.62 1.62 0 0 1 .36-.55 1.55 1.55 0 0 1 1.2-.49 2.63 2.63 0 0 1 .49 0 1.43 1.43 0 0 1 .38.17 1.29 1.29 0 0 1 .3.22 1.71 1.71 0 0 1 .21.26l-.49.24a1.07 1.07 0 0 0-.35-.32 1.13 1.13 0 0 0-.54-.08 1.22 1.22 0 0 0-.45.1 1.1 1.1 0 0 0-.35.26 1.47 1.47 0 0 0-.24.4 1.85 1.85 0 0 0-.08.47 1.77 1.77 0 0 0 .08.46 1.41 1.41 0 0 0 .24.39 1.12 1.12 0 0 0 .8.37 1 1 0 0 0 .42-.08.83.83 0 0 0 .32-.2.78.78 0 0 0 .22-.3.87.87 0 0 0 .1-.39h-1.09Z"/>
        <path d="M79.09 2.57a.71.71 0 0 1 .07-.35.83.83 0 0 1 .19-.26 1.21 1.21 0 0 1 .26-.2l.23-.12h.17l-.13-.07-.14-.19a1 1 0 0 1-.12-.23 1 1 0 0 1 0-.25.67.67 0 0 1 .12-.39.74.74 0 0 1 .35-.28 1.3 1.3 0 0 1 .51-.11 1.17 1.17 0 0 1 .49.11.72.72 0 0 1 .4.67.54.54 0 0 1-.08.33.9.9 0 0 1-.21.27l-.24.17-.2.11.64.69.17-.18a2.27 2.27 0 0 0 .22-.32l.36.33-.1.15-.15.18-.15.16.68.72h-.68l-.4-.43-.3.24a2.32 2.32 0 0 1-.39.18 1.61 1.61 0 0 1-.49.07 1.24 1.24 0 0 1-.53-.12.8.8 0 0 1-.37-.31.8.8 0 0 1-.18-.57Zm1.15-.66h-.15l-.16.08-.16.13a.65.65 0 0 0-.13.16.37.37 0 0 0 0 .21.48.48 0 0 0 .07.26.45.45 0 0 0 .19.15 1.74 1.74 0 0 0 .57-.05l.28-.13a.93.93 0 0 0 .21-.15Zm.27-1.46a.45.45 0 0 0-.23 0 .34.34 0 0 0-.15.14.28.28 0 0 0 0 .18.31.31 0 0 0 0 .19l.1.17.12.16h.14l.17-.12.15-.17a.45.45 0 0 0 .07-.25.32.32 0 0 0-.14-.18.51.51 0 0 0-.22 0Z"/>
        <path d="M83.9.12h.53v2.86h1.27v.47h-1.8Z"/>
        <path d="M87.28.12h.54l1.27 3.33h-.57l-.28-.76h-1.36l-.28.76h-.56Zm-.19 2.12h1L87.58.8Z"/>
        <path d="M89.39.12h1a1.43 1.43 0 0 1 .5.09.79.79 0 0 1 .4.24.71.71 0 0 1 .15.48 1.11 1.11 0 0 1-.08.37.79.79 0 0 1-.2.27.6.6 0 0 1-.25.13l.23.07a.62.62 0 0 1 .22.15.67.67 0 0 1 .16.24.84.84 0 0 1 .07.35 1 1 0 0 1-.12.49.8.8 0 0 1-.35.33 1.11 1.11 0 0 1-.57.12h-1.16Zm.53 1.45h.48a.58.58 0 0 0 .29-.06.74.74 0 0 0 .16-.19.53.53 0 0 0 0-.25.43.43 0 0 0-.15-.37.87.87 0 0 0-.42-.1h-.42Zm0 1.48h.63a.63.63 0 0 0 .33-.06.61.61 0 0 0 .19-.2 1.22 1.22 0 0 0 0-.27.5.5 0 0 0-.15-.38.65.65 0 0 0-.44-.14h-.52Z"/>
        <path d="M92.09.12h2v.45H92.6v1h1.49v.46h-1.47v1h1.49v.47h-2Z"/>
        <path d="M94.79.12h.53v2.86h1.28v.47h-1.81Z"/>
        <path d="M.86 73.14H0v-.46h2.25v.46h-.86v2.85H.86Z"/>
        <path d="M2.69 72.68h1.22a1 1 0 0 1 .5.1.82.82 0 0 1 .35.34 1.08 1.08 0 0 1 .14.53 1.17 1.17 0 0 1-.12.52.92.92 0 0 1-.29.3.67.67 0 0 1-.31.1L5 75.99h-.6l-.75-1.37h-.43v1.37h-.53Zm.53 1.56h.5a.73.73 0 0 0 .45-.14.47.47 0 0 0 .18-.43.5.5 0 0 0-.18-.44.84.84 0 0 0-.44-.13h-.51Z"/>
        <path d="M6.34 72.68h.55l1.2 3.31h-.55l-.27-.76H5.93l-.28.76h-.56Zm-.18 2.09h1l-.51-1.46Z"/>
        <path d="M8.97 73.16v2.83h-.5v-3.31h.74l1.57 2.82v-2.82h.53v3.31h-.74Z"/>
        <path d="M13.09 72.57a1.43 1.43 0 0 1 .51.07l.35.14.15.1-.27.43a.71.71 0 0 0-.14-.1l-.23-.1a.81.81 0 0 0-.31 0 .73.73 0 0 0-.41.09.36.36 0 0 0-.16.29.43.43 0 0 0 .09.22.71.71 0 0 0 .23.19l.36.16a.78.78 0 0 1 .34.17 1.29 1.29 0 0 1 .3.22.75.75 0 0 1 .21.29.73.73 0 0 1 .08.38.81.81 0 0 1-.35.7 1 1 0 0 1-.38.18 1.7 1.7 0 0 1-.45 0 2.1 2.1 0 0 1-.56-.07 1.92 1.92 0 0 1-.42-.16.66.66 0 0 1-.17-.12l.27-.45.11.08.21.11.26.09h.31a.72.72 0 0 0 .47-.14.43.43 0 0 0 0-.61.78.78 0 0 0-.26-.22l-.4-.19a2.32 2.32 0 0 1-.41-.22.79.79 0 0 1-.3-.3.68.68 0 0 1-.12-.44.74.74 0 0 1 .14-.43 1.08 1.08 0 0 1 .34-.21 1.13 1.13 0 0 1 .61-.15Z"/>
        <path d="M14.69 72.68h1a1.35 1.35 0 0 1 .56.1.81.81 0 0 1 .41.32 1 1 0 0 1 .15.57 1 1 0 0 1-.15.57.76.76 0 0 1-.41.34 1.2 1.2 0 0 1-.56.12h-.49v1.29h-.51Zm.53 1.59h.35a1 1 0 0 0 .34 0 .44.44 0 0 0 .26-.18.66.66 0 0 0 0-.7.48.48 0 0 0-.26-.17 1 1 0 0 0-.34 0h-.35Z"/>
        <path d="M17.19 74.33a1.89 1.89 0 0 1 .12-.67 1.82 1.82 0 0 1 .35-.56 1.58 1.58 0 0 1 .53-.35 1.62 1.62 0 0 1 1.33 0 1.58 1.58 0 0 1 .53.35 1.82 1.82 0 0 1 .35.56 1.9 1.9 0 0 1 .13.67 2 2 0 0 1-.13.68 1.62 1.62 0 0 1-.31.56 1.31 1.31 0 0 1-.53.37 1.41 1.41 0 0 1-.67.13 1.54 1.54 0 0 1-.67-.13 1.31 1.31 0 0 1-.53-.37 1.62 1.62 0 0 1-.35-.54 1.77 1.77 0 0 1-.15-.7Zm.55 0a1.31 1.31 0 0 0 .14.62 1.18 1.18 0 0 0 .39.44 1 1 0 0 0 .58.16 1 1 0 0 0 1-.6 1.2 1.2 0 0 0 .14-.62 1.19 1.19 0 0 0-.14-.61 1.1 1.1 0 0 0-.39-.44.94.94 0 0 0-.59-.16 1 1 0 0 0-.58.16 1.18 1.18 0 0 0-.39.44 1.29 1.29 0 0 0-.16.61Z"/>
        <path d="M21 72.68h1.23a1 1 0 0 1 .49.1.82.82 0 0 1 .35.34 1 1 0 0 1 .14.53 1.06 1.06 0 0 1-.13.52.89.89 0 0 1-.28.3.67.67 0 0 1-.31.1l.82 1.42h-.6l-.75-1.37h-.43v1.37H21Zm.53 1.56h.5a.73.73 0 0 0 .45-.14.5.5 0 0 0 .19-.43.53.53 0 0 0-.19-.44.84.84 0 0 0-.44-.13h-.51Z"/>
        <path d="M24.42 73.14h-.86v-.46h2.31v.46H25v2.85h-.58Z"/>
        <path d="M13.87 166.57v3.33h-.53v-2.74l-.11.48-.73 2h-.52l-.72-2-.1-.48v2.74h-.53v-3.33h.73l.83 2.49.83-2.49Z"/>
        <path d="M15.57 166.57h.52l1.25 3.33h-.55l-.26-.76h-1.38l-.28.76h-.56Zm-.25 2.1h1l-.51-1.45Z"/>
        <path d="M17.72 166.57h1.15a1.06 1.06 0 0 1 .5.12.82.82 0 0 1 .36.33 1.13 1.13 0 0 1 .13.54 1.16 1.16 0 0 1-.12.51.92.92 0 0 1-.29.3.68.68 0 0 1-.31.11l.89 1.42h-.59l-.76-1.38h-.43v1.38h-.53Zm.53 1.56h.51a.77.77 0 0 0 .44-.12.5.5 0 0 0 .18-.44.52.52 0 0 0-.17-.44.81.81 0 0 0-.45-.13h-.51Z"/>
        <path d="m21.53 168.16 1.33 1.7h-.63l-1.14-1.51v1.51h-.53v-3.29h.53v1.47l1.07-1.47h.6Z"/>
        <path d="M23.21 166.57h2v.48h-1.48v.95h1.47v.46h-1.47v1h1.49v.48h-2Z"/>
        <path d="M26.53 167.01h-.86v-.44h2.26v.48h-.84v2.85h-.53Z"/>
        <path d="M28.41 166.57h.53v3.33h-.53Z"/>
        <path d="M30.09 167.03v2.83h-.53v-3.29h.74l1.61 2.82v-2.82h.53v3.34h-.74Z"/>
        <path d="M34.58 168.04h1.69v.18a1.65 1.65 0 0 1-.13.66 1.87 1.87 0 0 1-.33.54 1.66 1.66 0 0 1-1.86.36 1.5 1.5 0 0 1-.53-.37 1.77 1.77 0 0 1-.35-.55 1.93 1.93 0 0 1-.12-.67 1.84 1.84 0 0 1 .14-.62 1.71 1.71 0 0 1 .35-.56 1.8 1.8 0 0 1 .53-.37 2.08 2.08 0 0 1 1.12-.07 2.74 2.74 0 0 1 .4.15 2.17 2.17 0 0 1 .29.24 2.75 2.75 0 0 1 .22.26l-.5.24a1.53 1.53 0 0 0-.35-.32 1.13 1.13 0 0 0-.54-.13 1 1 0 0 0-.45.1 1.1 1.1 0 0 0-.35.26 1.18 1.18 0 0 0-.23.39 1.42 1.42 0 0 0 0 .94 1.09 1.09 0 0 0 .23.39 1.31 1.31 0 0 0 .35.27.87.87 0 0 0 .45.09 1.14 1.14 0 0 0 .41-.07.81.81 0 0 0 .34-.21.84.84 0 0 0 .22-.3 1.24 1.24 0 0 0 .09-.38h-1.1Z"/>
        <path d="M242.44 79.21a.68.68 0 0 1 .1-.21 1.31 1.31 0 0 1 .23-.24 1.57 1.57 0 0 1 .37-.22 1.51 1.51 0 0 1 .51-.08 1.3 1.3 0 0 1 .64.14 1 1 0 0 1 .41.37 1 1 0 0 1 .14.53.84.84 0 0 1-.08.38 1 1 0 0 1-.21.29.82.82 0 0 1-.28.14.73.73 0 0 1 .32.12.84.84 0 0 1 .27.32.86.86 0 0 1 .11.45 1.24 1.24 0 0 1-.64 1.06 1.37 1.37 0 0 1-.69.15 1.65 1.65 0 0 1-.66-.13 1.31 1.31 0 0 1-.44-.33 1.11 1.11 0 0 1-.22-.38l.56-.28a.71.71 0 0 0 .13.26 1.48 1.48 0 0 0 .26.24.78.78 0 0 0 .37.09.86.86 0 0 0 .39-.09.6.6 0 0 0 .24-.26.68.68 0 0 0 .09-.35.59.59 0 0 0-.1-.34.75.75 0 0 0-.26-.21 1.09 1.09 0 0 0-.36 0h-.08v-.45h.1a.64.64 0 0 0 .31-.07.61.61 0 0 0 .24-.21.65.65 0 0 0 .08-.31.63.63 0 0 0-.17-.41.67.67 0 0 0-.47-.16.81.81 0 0 0-.31 0 .57.57 0 0 0-.21.13 1 1 0 0 0-.13.16v.11Z"/>
        <path d="M246.92 79.87a1.1 1.1 0 0 1 .59.15 1.08 1.08 0 0 1 .45.45 1.28 1.28 0 0 1 .18.66 1.3 1.3 0 0 1-.69 1.14 1.5 1.5 0 0 1-1.37 0 1.11 1.11 0 0 1-.49-.47 1.26 1.26 0 0 1-.18-.71 1.59 1.59 0 0 1 .15-.74 2.34 2.34 0 0 1 .34-.54l1-1.26h.72l-1.23 1.48a.62.62 0 0 1 .19-.12.91.91 0 0 1 .34-.04Zm-.15 2a.65.65 0 0 0 .39-.1.78.78 0 0 0 .29-.28.8.8 0 0 0 .11-.4.77.77 0 0 0-.11-.39.78.78 0 0 0-.29-.28.74.74 0 0 0-.39-.11.77.77 0 0 0-.39.11.86.86 0 0 0-.29.28.76.76 0 0 0-.1.39.7.7 0 0 0 .1.4.86.86 0 0 0 .29.28.67.67 0 0 0 .39.15Z"/>
        <path d="M250.09 79.87a1.13 1.13 0 0 1 .59.15 1.15 1.15 0 0 1 .45.45 1.19 1.19 0 0 1 .17.66 1.15 1.15 0 0 1-.18.67 1.5 1.5 0 0 1-.5.47 1.53 1.53 0 0 1-1.38 0 1.14 1.14 0 0 1-.48-.47 1.35 1.35 0 0 1-.19-.71 1.72 1.72 0 0 1 .15-.74 2.38 2.38 0 0 1 .35-.54l1.02-1.24h.71l-1.22 1.48a.57.57 0 0 1 .18-.12.93.93 0 0 1 .33-.06Zm-.15 2a.67.67 0 0 0 .39-.1.78.78 0 0 0 .29-.28.79.79 0 0 0 .1-.4.76.76 0 0 0-.1-.39.78.78 0 0 0-.29-.28.77.77 0 0 0-.39-.11.8.8 0 0 0-.4.11.83.83 0 0 0-.28.28.77.77 0 0 0-.11.39.8.8 0 0 0 .11.4.83.83 0 0 0 .28.28.77.77 0 0 0 .44.1Z"/>
        <path d="M126.82 275.26h2.55v.43l-1.92 3.38h-.68l1.89-3.27h-1.84Z"/>
        <path d="M131.09 279.14a1.28 1.28 0 0 1-.66-.15 1.19 1.19 0 0 1-.47-.39 1 1 0 0 1-.18-.58 1 1 0 0 1 .11-.47.81.81 0 0 1 .25-.33 1.13 1.13 0 0 1 .35-.21 1 1 0 0 1-.27-.17.88.88 0 0 1-.27-.67.8.8 0 0 1 .16-.52.92.92 0 0 1 .4-.33 1.29 1.29 0 0 1 .58-.13 1.25 1.25 0 0 1 .57.13 1 1 0 0 1 .4.33 1 1 0 0 1 0 1.06.93.93 0 0 1-.38.3 1.31 1.31 0 0 1 .36.21 1 1 0 0 1 .25.33 1 1 0 0 1 .09.47.92.92 0 0 1-.17.58 1.1 1.1 0 0 1-.46.39 1.26 1.26 0 0 1-.66.15Zm0-.54a.81.81 0 0 0 .34-.08.84.84 0 0 0 .23-.23.69.69 0 0 0 .09-.34.63.63 0 0 0-.09-.33.76.76 0 0 0-.23-.24.82.82 0 0 0-.34-.09.69.69 0 0 0-.34.09.66.66 0 0 0-.33.57.69.69 0 0 0 .09.34.88.88 0 0 0 .24.23.68.68 0 0 0 .34.05Zm0-1.78a.6.6 0 0 0 .29-.08.8.8 0 0 0 .2-.21.6.6 0 0 0 .08-.29.54.54 0 0 0-.08-.28.53.53 0 0 0-.21-.21.54.54 0 0 0-.28-.08.6.6 0 0 0-.29.08.53.53 0 0 0-.21.21.57.57 0 0 0-.08.28.74.74 0 0 0 .08.29 1 1 0 0 0 .21.21.6.6 0 0 0 .29.08Z"/>
        <path d="M132.98 275.92a.53.53 0 0 1 .11-.21 1.08 1.08 0 0 1 .59-.44 1.24 1.24 0 0 1 .51-.08 1.26 1.26 0 0 1 .63.14.89.89 0 0 1 .41.36 1 1 0 0 1 .15.54 1 1 0 0 1-.08.38 1.06 1.06 0 0 1-.22.29.7.7 0 0 1-.27.14.53.53 0 0 1 .31.13.78.78 0 0 1 .27.3.83.83 0 0 1 .11.46 1.06 1.06 0 0 1-.17.62 1.19 1.19 0 0 1-.46.43 1.52 1.52 0 0 1-.69.16 1.35 1.35 0 0 1-.66-.14 1.16 1.16 0 0 1-.44-.32 1.14 1.14 0 0 1-.23-.38l.56-.28a.77.77 0 0 0 .14.25.75.75 0 0 0 .26.24.62.62 0 0 0 .35.1.9.9 0 0 0 .4-.09.69.69 0 0 0 .25-.26.81.81 0 0 0 .08-.34.53.53 0 0 0-.1-.35.58.58 0 0 0-.31-.2.92.92 0 0 0-.36-.07h-.03v-.45h.09a.64.64 0 0 0 .31-.07.43.43 0 0 0 .23-.19.51.51 0 0 0 .1-.32.56.56 0 0 0-.17-.4.6.6 0 0 0-.48-.17.76.76 0 0 0-.3 0 .74.74 0 0 0-.22.14l-.12.15v.11Z"/>
        <path d="M129.42 219.34a1.54 1.54 0 0 1-.66-.14 1.26 1.26 0 0 1-.46-.4 1.06 1.06 0 0 1-.17-.57 1 1 0 0 1 .09-.48.93.93 0 0 1 .26-.33 2.5 2.5 0 0 1 .35-.21 1.06 1.06 0 0 1-.26-.17.63.63 0 0 1-.2-.28.74.74 0 0 1-.08-.39.85.85 0 0 1 .15-.51 1.1 1.1 0 0 1 .42-.35 1.34 1.34 0 0 1 .56-.12 1.43 1.43 0 0 1 .58.12 1.15 1.15 0 0 1 .41.35 1 1 0 0 1 .14.51.82.82 0 0 1-.16.54 1 1 0 0 1-.38.3 2.12 2.12 0 0 1 .36.21.93.93 0 0 1 .26.33 1 1 0 0 1 .1.48 1.06 1.06 0 0 1-.17.57 1.24 1.24 0 0 1-.48.4 1.48 1.48 0 0 1-.66.14Zm0-.53a.72.72 0 0 0 .58-.32.59.59 0 0 0 .08-.34.65.65 0 0 0-.32-.57.77.77 0 0 0-.34-.08.76.76 0 0 0-.33.08.65.65 0 0 0-.33.57.69.69 0 0 0 .09.34.76.76 0 0 0 .24.23.66.66 0 0 0 .33.09Zm0-1.79a.55.55 0 0 0 .29-.08.53.53 0 0 0 .21-.21.55.55 0 0 0 .07-.28.59.59 0 0 0-.07-.29 1 1 0 0 0-.21-.21.73.73 0 0 0-.29-.07.64.64 0 0 0-.27.07.6.6 0 0 0-.21.21.44.44 0 0 0-.08.29.4.4 0 0 0 .08.28.47.47 0 0 0 .21.21.53.53 0 0 0 .27.08Z"/>
        <path d="M131.79 218.42a.54.54 0 0 0 .07.13.42.42 0 0 0 .13.16.72.72 0 0 0 .21.12.76.76 0 0 0 .3 0 .63.63 0 0 0 .59-.26.83.83 0 0 0 .2-.59.8.8 0 0 0-.19-.53.57.57 0 0 0-.48-.18.66.66 0 0 0-.33.07.69.69 0 0 0-.23.16.45.45 0 0 0-.11.17l-.52-.18.32-2.06h2v.54h-1.46l-.16 1 .1-.08a.8.8 0 0 1 .23-.11 1 1 0 0 1 .35 0 1.09 1.09 0 0 1 .95.5 1.33 1.33 0 0 1 .16.67 1.49 1.49 0 0 1-.16.72 1.25 1.25 0 0 1-.46.48 1.58 1.58 0 0 1-.71.17 1.86 1.86 0 0 1-.52-.07 1.11 1.11 0 0 1-.37-.2 1.36 1.36 0 0 1-.24-.24 1.59 1.59 0 0 1-.13-.22Z"/>
        <path d="m20.3 172.76-.65.36v-.55l.93-.53h.32v3.82h-.6Z"/>
        <path d="M21.51 173.91a2.38 2.38 0 0 1 .13-.88 1.6 1.6 0 0 1 .32-.62 1.51 1.51 0 0 1 .47-.36 1.35 1.35 0 0 1 1.58.36 1.92 1.92 0 0 1 .32.62 3.14 3.14 0 0 1 0 1.77 2 2 0 0 1-.32.61 1.41 1.41 0 0 1-.48.36 1.69 1.69 0 0 1-.55.12 1.75 1.75 0 0 1-.55-.12 1.51 1.51 0 0 1-.47-.36 1.63 1.63 0 0 1-.32-.61 2.47 2.47 0 0 1-.13-.89Zm.61 0a2.19 2.19 0 0 0 .12.8 1.14 1.14 0 0 0 .31.47.66.66 0 0 0 .43.15.65.65 0 0 0 .44-.15 1.14 1.14 0 0 0 .31-.47 2.7 2.7 0 0 0 .1-.8 2.64 2.64 0 0 0-.1-.79 1.17 1.17 0 0 0-.31-.48.6.6 0 0 0-.44-.16.58.58 0 0 0-.43.16 1.17 1.17 0 0 0-.31.48 2.14 2.14 0 0 0-.15.79Z"/>
        <path d="M24.88 173.91a2.93 2.93 0 0 1 .13-.88 1.64 1.64 0 0 1 .34-.62 1.26 1.26 0 0 1 .47-.36 1.3 1.3 0 0 1 1.09 0 1.26 1.26 0 0 1 .47.36 1.79 1.79 0 0 1 .34.62 3.54 3.54 0 0 1 0 1.77 1.84 1.84 0 0 1-.34.61 1.26 1.26 0 0 1-.47.36 1.3 1.3 0 0 1-1.09 0 1.38 1.38 0 0 1-.47-.36 1.68 1.68 0 0 1-.34-.61 3 3 0 0 1-.13-.89Zm.63 0a2.7 2.7 0 0 0 .1.8 1.16 1.16 0 0 0 .32.47.68.68 0 0 0 .43.15.69.69 0 0 0 .44-.15 1 1 0 0 0 .3-.47 2.19 2.19 0 0 0 .12-.8 2.14 2.14 0 0 0-.12-.79 1 1 0 0 0-.3-.48.59.59 0 0 0-.44-.16.58.58 0 0 0-.43.16 1.1 1.1 0 0 0-.32.48 2.64 2.64 0 0 0-.1.79Z"/>
        <path d="M10.3 79.01a.86.86 0 0 0-.39.09 1.51 1.51 0 0 0-.28.22l-.18.23-.06.12-.53-.23v-.14a1.94 1.94 0 0 1 .15-.24 1.72 1.72 0 0 1 .27-.27 1.29 1.29 0 0 1 .46-.25 1.35 1.35 0 0 1 .56-.09 1.49 1.49 0 0 1 .59.09 1.27 1.27 0 0 1 .39.26 1.63 1.63 0 0 1 .22.38 1.43 1.43 0 0 1 .07.46 1.36 1.36 0 0 1-.12.48 1.86 1.86 0 0 1-.29.49 3.86 3.86 0 0 1-.38.44l-.38.35-.32.26-.18.13h1.63v.54H8.97v-.49l.24-.19.4-.31.45-.41a3.73 3.73 0 0 0 .44-.45 3.61 3.61 0 0 0 .33-.44.88.88 0 0 0 .11-.42.56.56 0 0 0-.16-.49.68.68 0 0 0-.48-.12Z"/>
        <path d="M12.09 80.46a2.88 2.88 0 0 1 .12-.88 1.92 1.92 0 0 1 .34-.61 1.26 1.26 0 0 1 .47-.36 1.23 1.23 0 0 1 1.07-.04 1 1 0 0 1 .47.36 1.74 1.74 0 0 1 .34.61 3.22 3.22 0 0 1 .12.88 3.42 3.42 0 0 1-.12.9 1.84 1.84 0 0 1-.34.61 1.1 1.1 0 0 1-.47.35 1.38 1.38 0 0 1-1.09 0 1.35 1.35 0 0 1-.47-.35 2 2 0 0 1-.34-.61 3.05 3.05 0 0 1-.1-.86Zm.62 0a2.82 2.82 0 0 0 .11.81 1.14 1.14 0 0 0 .31.47.78.78 0 0 0 .44.15.72.72 0 0 0 .44-.16 1 1 0 0 0 .3-.48 2.83 2.83 0 0 0 0-1.58 1.06 1.06 0 0 0-.3-.47.62.62 0 0 0-.44-.18.65.65 0 0 0-.44.18 1.14 1.14 0 0 0-.31.47 2.65 2.65 0 0 0-.11.79Z"/>
        <path d="M80.91 6.22a.66.66 0 0 0-.39.09 1.18 1.18 0 0 0-.28.22 1.3 1.3 0 0 0-.18.23l-.06.12-.53-.25v-.12a2.07 2.07 0 0 1 .15-.25 1.33 1.33 0 0 1 .27-.26 1.34 1.34 0 0 1 .4-.23 1.52 1.52 0 0 1 .56-.08 1.49 1.49 0 0 1 .59.09 1.16 1.16 0 0 1 .39.26 1 1 0 0 1 .22.38 1.43 1.43 0 0 1 .07.46 1.36 1.36 0 0 1-.12.48 2.43 2.43 0 0 1-.29.49 3 3 0 0 1-.38.42 4.36 4.36 0 0 1-.38.37l-.32.26-.18.13h1.64v.54h-2.57v-.5l.24-.18.41-.33a5.21 5.21 0 0 0 .45-.39c.15-.14.3-.3.44-.45a2.83 2.83 0 0 0 .32-.45.93.93 0 0 0 .12-.41.62.62 0 0 0-.17-.5.71.71 0 0 0-.42-.14Z"/>
        <path d="M84.09 6.22a.7.7 0 0 0-.4.09 1.13 1.13 0 0 0-.27.22l-.18.23v.12l-.53-.25v-.12a1.28 1.28 0 0 1 .15-.25 1.33 1.33 0 0 1 .27-.26 1.34 1.34 0 0 1 .4-.23 1.52 1.52 0 0 1 .56-.08 1.49 1.49 0 0 1 .59.09 1.16 1.16 0 0 1 .39.26 1.11 1.11 0 0 1 .22.38 1.43 1.43 0 0 1 .07.46 1.36 1.36 0 0 1-.12.48 2.43 2.43 0 0 1-.29.49 3 3 0 0 1-.38.42 4.43 4.43 0 0 1-.39.37l-.31.26-.18.13h1.63v.54h-2.55v-.5l.24-.18.4-.33c.15-.11.3-.25.46-.39a6 6 0 0 0 .43-.45 2.36 2.36 0 0 0 .33-.45.84.84 0 0 0 .14-.41.62.62 0 0 0-.17-.5.69.69 0 0 0-.51-.14Z"/>
        <path d="m168.82 6.57-.63.36v-.59l1-.58h.32v3.81h-.61Z"/>
        <path d="M172.15 5.71v2.47h.47v.53h-.42v.86h-.62v-.81h-1.59v-.48l1.48-2.52Zm-.61 2.47V6.57l-1 1.62Z"/>
        <path d="M172.95 7.66a2.65 2.65 0 0 1 .13-.88 1.65 1.65 0 0 1 .33-.61 1.5 1.5 0 0 1 .46-.37 1.22 1.22 0 0 1 .56-.11 1.12 1.12 0 0 1 .54.11 1.58 1.58 0 0 1 .48.37 2 2 0 0 1 .32.61 2.93 2.93 0 0 1 .13.88 3 3 0 0 1-.13.9 1.82 1.82 0 0 1-.32.6 1.38 1.38 0 0 1-.48.36 1.25 1.25 0 0 1-.54.12 1.38 1.38 0 0 1-.56-.12 1.23 1.23 0 0 1-.46-.36 1.36 1.36 0 0 1-.32-.59 2.73 2.73 0 0 1-.14-.91Zm.61 0a2.72 2.72 0 0 0 .12.8 1 1 0 0 0 .31.47.71.71 0 0 0 .44.17.68.68 0 0 0 .43-.17 1.25 1.25 0 0 0 .31-.47 2.7 2.7 0 0 0 .1-.8 2.57 2.57 0 0 0-.1-.78 1.14 1.14 0 0 0-.31-.49.67.67 0 0 0-.43-.16.7.7 0 0 0-.44.16 1.21 1.21 0 0 0-.31.49 2.59 2.59 0 0 0-.12.78Z"/>
        <path d="M229.09 174.83c0 .05 0 .1.07.14l.13.15a.72.72 0 0 0 .21.12.76.76 0 0 0 .3 0 .68.68 0 0 0 .54-.23.86.86 0 0 0 .2-.59.64.64 0 0 0-.19-.52.6.6 0 0 0-.47-.2.72.72 0 0 0-.33.07.73.73 0 0 0-.22.16.75.75 0 0 0-.13.18l-.52-.18.33-2.06h2v.54h-1.45l-.16 1 .09-.09.24-.12a1 1 0 0 1 .34 0 1.17 1.17 0 0 1 .55.13 1 1 0 0 1 .4.39 1.33 1.33 0 0 1 .16.67 1.45 1.45 0 0 1-.16.71 1.12 1.12 0 0 1-.46.48 1.47 1.47 0 0 1-.71.18 1.89 1.89 0 0 1-.52-.09 1.09 1.09 0 0 1-.37-.19 1 1 0 0 1-.24-.23l-.13-.23Z"/>
        <path d="M231.58 173.84a2.93 2.93 0 0 1 .13-.88 1.76 1.76 0 0 1 .33-.62 1.22 1.22 0 0 1 .48-.36 1.27 1.27 0 0 1 1.08 0 1.22 1.22 0 0 1 .48.36 1.92 1.92 0 0 1 .32.62 3.14 3.14 0 0 1 0 1.77 1.63 1.63 0 0 1-.32.61 1.22 1.22 0 0 1-.48.36 1.28 1.28 0 0 1-1.08 0 1.22 1.22 0 0 1-.48-.36 1.51 1.51 0 0 1-.33-.61 3 3 0 0 1-.13-.89Zm.61 0a2.72 2.72 0 0 0 .12.8 1.14 1.14 0 0 0 .31.47.65.65 0 0 0 .44.15.66.66 0 0 0 .43-.15 1 1 0 0 0 .31-.47 2.72 2.72 0 0 0 .12-.8 2.66 2.66 0 0 0-.12-.79 1 1 0 0 0-.31-.48.67.67 0 0 0-.43-.16.65.65 0 0 0-.44.16 1.17 1.17 0 0 0-.31.48 2.63 2.63 0 0 0-.09.79Z"/>
        <path d="M203.84 262.89v-5.57h1.25v2.71a.53.53 0 0 1 .19-.25 1.57 1.57 0 0 1 1-.34 1.53 1.53 0 0 1 .83.25 1.62 1.62 0 0 1 .56.63 2.18 2.18 0 0 1 0 1.77 1.45 1.45 0 0 1-.56.64 1.54 1.54 0 0 1-1.34.15 1.31 1.31 0 0 1-.4-.26.73.73 0 0 1-.26-.29v.54Zm2.77-1.65a.87.87 0 0 0-.1-.42.9.9 0 0 0-.27-.28.8.8 0 0 0-1.07.28.88.88 0 0 0-.11.42.81.81 0 0 0 .38.68.83.83 0 0 0 .79 0 .73.73 0 0 0 .27-.28.8.8 0 0 0 .11-.4Z"/>
        <path d="M210.98 262.89v-.55a2.15 2.15 0 0 1-.18.24 1.34 1.34 0 0 1-.4.27 1.1 1.1 0 0 1-.56.13 1.61 1.61 0 0 1-.85-.24 1.57 1.57 0 0 1-.56-.64 2 2 0 0 1 0-1.77 1.69 1.69 0 0 1 .56-.63 1.62 1.62 0 0 1 .85-.25 1.5 1.5 0 0 1 .55.11 1.28 1.28 0 0 1 .37.23.72.72 0 0 1 .21.25v-.47h1.22v3.32Zm-1.56-1.7a.91.91 0 0 0 .1.4.79.79 0 0 0 1.07.28.64.64 0 0 0 .26-.28.84.84 0 0 0 .11-.41.87.87 0 0 0-.11-.41.7.7 0 0 0-.65-.38.78.78 0 0 0-.68.38 1 1 0 0 0-.1.42Z"/>
        <path d="M214.46 259.47a4 4 0 0 1 .6.05 2.23 2.23 0 0 1 .46.13.74.74 0 0 1 .24.11l-.41.72-.28-.14a1.18 1.18 0 0 0-.46-.09.92.92 0 0 0-.33.06.17.17 0 0 0-.13.17.22.22 0 0 0 .14.21 2 2 0 0 0 .43.13 4.58 4.58 0 0 1 .49.15 1 1 0 0 1 .42.31.81.81 0 0 1 .17.54 1 1 0 0 1-.15.58 1 1 0 0 1-.39.36 1.78 1.78 0 0 1-.54.17 2.67 2.67 0 0 1-.56.06 3 3 0 0 1-.66-.07 1.93 1.93 0 0 1-.46-.16l-.24-.14.4-.81a1.22 1.22 0 0 0 .35.2 1 1 0 0 0 .49.12 1 1 0 0 0 .41-.09.23.23 0 0 0 .14-.19.2.2 0 0 0-.07-.16.4.4 0 0 0-.2-.11 1.47 1.47 0 0 0-.3-.08l-.35-.1a1.38 1.38 0 0 1-.33-.2.71.71 0 0 1-.27-.3 1 1 0 0 1-.1-.44.7.7 0 0 1 .22-.54 1.14 1.14 0 0 1 .55-.34 2 2 0 0 1 .72-.11Z"/>
        <path d="M217.09 258.88a.68.68 0 0 1-.69-.67.66.66 0 0 1 .2-.49.67.67 0 0 1 .49-.21.73.73 0 0 1 .35.09.78.78 0 0 1 .25.26.67.67 0 0 1-.1.84.63.63 0 0 1-.5.18Zm-.62 4v-3.31h1.21v3.32Z"/>
        <path d="M220.37 262.02a.84.84 0 0 0 .38-.08 1.2 1.2 0 0 0 .21-.13l.56.84a1.71 1.71 0 0 1-.23.13 1.82 1.82 0 0 1-.39.14 2.4 2.4 0 0 1-1.54-.15 1.54 1.54 0 0 1-.68-.61 2 2 0 0 1 0-1.86 1.54 1.54 0 0 1 .68-.61 2 2 0 0 1 1-.22 2.29 2.29 0 0 1 .93.2 1.28 1.28 0 0 1 .23.14l-.57.84-.11-.09-.18-.09h-.29a.66.66 0 0 0-.36.11.74.74 0 0 0-.39.68.83.83 0 0 0 .1.41.78.78 0 0 0 .29.28.63.63 0 0 0 .36.07Z"/>
        <path d="M224.73 262.89v-.61a.83.83 0 0 1-.19.26 1.35 1.35 0 0 1-.4.31 1.38 1.38 0 0 1-.63.14 1.62 1.62 0 0 1-.83-.23 1.64 1.64 0 0 1-.59-.61 2.05 2.05 0 0 1 0-1.84 1.59 1.59 0 0 1 1.43-.84 1.42 1.42 0 0 1 .61.12 1.6 1.6 0 0 1 .4.28.8.8 0 0 1 .2.28v-.58h.85v3.32Zm-2-1.7a1 1 0 0 0 .14.55.94.94 0 0 0 .86.5.92.92 0 0 0 .85-.51 1 1 0 0 0 .12-.54 1.09 1.09 0 0 0-.12-.56 1 1 0 0 0-.35-.37.87.87 0 0 0-.5-.13 1.11 1.11 0 0 0-.5.12 1.27 1.27 0 0 0-.36.37 1 1 0 0 0-.14.57Z"/>
        <path d="M227.35 262.89h-.87v-5.57h.87Z"/>
        <path d="M229.18 262.89h-.87v-5.57h.87Z"/>
        <path d="m231.58 262.11 1-2.54h.86l-2.26 5h-.8l.76-1.68-1.33-3.32h.88Z"/>
        <path d="M234.72 262.38a.6.6 0 1 1-1.2 0 .6.6 0 0 1 1.2 0z"/>
        <path d="m211.76 267.47-.91.49v-.82l1.31-.74h.45v5.34h-.85Z"/>
        <path d="M215.4 267.04a1 1 0 0 0-.55.14 1.24 1.24 0 0 0-.39.3 2.43 2.43 0 0 0-.24.32l-.09.16-.74-.32a.73.73 0 0 1 .07-.19 2.39 2.39 0 0 1 .21-.34 1.52 1.52 0 0 1 .39-.37 1.82 1.82 0 0 1 .56-.31 2.44 2.44 0 0 1 1.6 0 1.39 1.39 0 0 1 .54.36 1.48 1.48 0 0 1 .31.53 2.67 2.67 0 0 1 .1.63 2.09 2.09 0 0 1-.15.7 4.62 4.62 0 0 1-.41.67 6.09 6.09 0 0 1-.53.61l-.54.5-.47.37-.23.17h2.31v.76h-3.6v-.69l.34-.27.57-.45.64-.55c.22-.21.41-.42.6-.63a4 4 0 0 0 .46-.62 1.09 1.09 0 0 0 .17-.58.85.85 0 0 0-.24-.7 1 1 0 0 0-.69-.2Z"/>
        <path d="M217.93 269.07a3.87 3.87 0 0 1 .17-1.22 2.4 2.4 0 0 1 .48-.87 1.83 1.83 0 0 1 2.18-.51 1.84 1.84 0 0 1 .66.51 2.43 2.43 0 0 1 .46.87 3.88 3.88 0 0 1 .18 1.22 3.75 3.75 0 0 1-.18 1.25 2.31 2.31 0 0 1-.46.86 1.78 1.78 0 0 1-.66.49 1.83 1.83 0 0 1-1.52 0 1.71 1.71 0 0 1-.66-.49 2.22 2.22 0 0 1-.48-.86 4 4 0 0 1-.17-1.25Zm.87 0a3 3 0 0 0 .16 1.16 1.36 1.36 0 0 0 .43.66 1 1 0 0 0 .61.22 1 1 0 0 0 .61-.22 1.61 1.61 0 0 0 .43-.66 4.22 4.22 0 0 0 0-2.23 1.58 1.58 0 0 0-.43-.67.93.93 0 0 0-.61-.23.91.91 0 0 0-.61.23 1.37 1.37 0 0 0-.43.68 2.94 2.94 0 0 0-.16 1.06Z"/>
        <path d="M222.67 269.07a3.87 3.87 0 0 1 .17-1.22 2.35 2.35 0 0 1 .46-.87 1.87 1.87 0 0 1 1.43-.68 1.93 1.93 0 0 1 1.43.68 2.6 2.6 0 0 1 .46.87 3.9 3.9 0 0 1 .16 1.22 4.05 4.05 0 0 1-.16 1.25 2.47 2.47 0 0 1-.46.86 1.62 1.62 0 0 1-.67.49 1.81 1.81 0 0 1-1.53 0 1.87 1.87 0 0 1-.66-.49 2.31 2.31 0 0 1-.46-.86 4 4 0 0 1-.17-1.25Zm.85 0a3.51 3.51 0 0 0 .17 1.16 1.5 1.5 0 0 0 .42.66 1 1 0 0 0 .62.22 1 1 0 0 0 .61-.22 1.52 1.52 0 0 0 .43-.66 4 4 0 0 0 0-2.23 1.49 1.49 0 0 0-.43-.67.88.88 0 0 0-.61-.23.93.93 0 0 0-.62.23 1.5 1.5 0 0 0-.42.68 3.21 3.21 0 0 0-.2 1.06Z"/>
        <path d="M41.34 266.97a1.17 1.17 0 0 0-.55.13 1.3 1.3 0 0 0-.39.31 1.08 1.08 0 0 0-.24.32l-.1.16-.74-.33a1.07 1.07 0 0 1 .07-.19 3.78 3.78 0 0 1 .22-.33 2 2 0 0 1 .38-.38 2.68 2.68 0 0 1 .57-.32 2.27 2.27 0 0 1 .78-.11 2.34 2.34 0 0 1 .82.13 1.53 1.53 0 0 1 .54.37 1.48 1.48 0 0 1 .31.53 2.23 2.23 0 0 1 .09.63 1.65 1.65 0 0 1-.15.69 3.3 3.3 0 0 1-.4.67 7.72 7.72 0 0 1-.53.61 6.77 6.77 0 0 1-.56.51c-.17.15-.32.26-.45.36l-.23.18h2.31v.66h-3.63v-.68l.35-.28a5.54 5.54 0 0 0 .55-.44c.21-.17.43-.35.65-.56s.41-.4.6-.61a3.14 3.14 0 0 0 .46-.64 1.15 1.15 0 0 0 .17-.57.91.91 0 0 0-.23-.7.94.94 0 0 0-.67-.12Z"/>
        <path d="M43.84 268.98a4 4 0 0 1 .18-1.24 2.39 2.39 0 0 1 .46-.86 2.06 2.06 0 0 1 .67-.51 1.82 1.82 0 0 1 .76-.16 1.87 1.87 0 0 1 .77.16 1.89 1.89 0 0 1 .65.51 2.58 2.58 0 0 1 .47.86 4.58 4.58 0 0 1 0 2.49 2.37 2.37 0 0 1-.47.85 1.75 1.75 0 0 1-.65.5 1.87 1.87 0 0 1-.77.16 1.82 1.82 0 0 1-.76-.16 1.74 1.74 0 0 1-.67-.5 2.35 2.35 0 0 1-.46-.85 3.82 3.82 0 0 1-.18-1.25Zm.87 0a3.28 3.28 0 0 0 .15 1.16 1.67 1.67 0 0 0 .44.67 1 1 0 0 0 .61.21 1.08 1.08 0 0 0 .62-.21 1.69 1.69 0 0 0 .42-.67 4.56 4.56 0 0 0 0-2.32 1.69 1.69 0 0 0-.42-.67 1.07 1.07 0 0 0-.62-.23 1 1 0 0 0-.61.23 1.67 1.67 0 0 0-.44.67 3.81 3.81 0 0 0-.15 1.16Z"/>
        <path d="M48.58 268.98a4.36 4.36 0 0 1 .17-1.24 2.58 2.58 0 0 1 .47-.86 1.92 1.92 0 0 1 .66-.51 1.88 1.88 0 0 1 1.52 0 1.87 1.87 0 0 1 .67.51 2.68 2.68 0 0 1 .47.86 5 5 0 0 1 0 2.49 2.53 2.53 0 0 1-.47.85 1.74 1.74 0 0 1-.67.5 1.88 1.88 0 0 1-1.52 0 1.71 1.71 0 0 1-.66-.5 2.23 2.23 0 0 1-.47-.85 4.43 4.43 0 0 1-.17-1.25Zm.86 0a3.29 3.29 0 0 0 .16 1.16 1.55 1.55 0 0 0 .43.67 1 1 0 0 0 .61.21 1 1 0 0 0 .61-.21 1.41 1.41 0 0 0 .43-.67 4.28 4.28 0 0 0 0-2.32 1.46 1.46 0 0 0-.43-.67.89.89 0 0 0-.61-.23 1 1 0 0 0-.61.23 1.61 1.61 0 0 0-.43.67 3.54 3.54 0 0 0-.16 1.16Z"/>
        <path d="M53.31 268.98a4 4 0 0 1 .17-1.24 2.58 2.58 0 0 1 .47-.86 2 2 0 0 1 .67-.51 1.83 1.83 0 0 1 2.18.51 2.58 2.58 0 0 1 .47.86 4.58 4.58 0 0 1 0 2.49 2.53 2.53 0 0 1-.47.85 1.71 1.71 0 0 1-.66.5 1.89 1.89 0 0 1-1.52 0 1.74 1.74 0 0 1-.67-.5 2.53 2.53 0 0 1-.47-.85 4.1 4.1 0 0 1-.17-1.25Zm.87 0a3.28 3.28 0 0 0 .15 1.16 1.48 1.48 0 0 0 .44.67 1 1 0 0 0 1.22 0 1.61 1.61 0 0 0 .43-.67 4.56 4.56 0 0 0 0-2.32 1.61 1.61 0 0 0-.43-.67 1 1 0 0 0-.61-.23 1 1 0 0 0-.61.23 1.48 1.48 0 0 0-.44.67 3.28 3.28 0 0 0-.15 1.16Z"/>
        <path d="M51.18 156.57h-8.43a1.14 1.14 0 0 1-1.28-1.28v-11.72a1.13 1.13 0 0 1 1.27-1.26h.6v-3.23c0-.4.11-.52.51-.52h7.24c.38 0 .49.12.49.51v3.22h2.23v-.36h-.64c-.34 0-.47-.13-.47-.46v-1.31c0-.35.13-.47.48-.48h.64v-.3c0-.31.14-.44.45-.44h2.2a2.12 2.12 0 0 0 .66-.11l4.29-1.26c.45-.14.64 0 .64.48v1.71a1.29 1.29 0 0 1 1.24.41 1.1 1.1 0 0 1 .26.76c0 .67-.47 1-1.48 1.09v.36h.69a1.11 1.11 0 0 1 1.16 1.14v11.94a1.12 1.12 0 0 1-1.19 1.11h-8.53v1.13h2.21a.39.39 0 0 1 .44.43v1.33c0 .35-.13.48-.48.48h-7.29c-.35 0-.48-.12-.48-.48v-1.31c0-.32.13-.45.45-.45h2.15Zm-7.84-13.5h-.59c-.43 0-.54.11-.54.54v10.68h21v-10.72a.65.65 0 0 0 0-.14.36.36 0 0 0-.34-.33h-.78v.58c0 .47-.19.61-.65.47L57 142.79a3.56 3.56 0 0 0-.57-.09c-.12.79-.22 1.53-.33 2.27a.38.38 0 0 1-.42.37h-1a.37.37 0 0 1-.42-.42v-1.81h-2.68v1.73c0 .37-.12.5-.48.5h-7.29c-.34 0-.47-.13-.47-.48Zm.75 1.5h6.71v-5.22h-6.71Zm-1.86 10.5c0 .65 0 .74.65.74h19.7a2.09 2.09 0 0 0 .25 0 .35.35 0 0 0 .34-.3 3.09 3.09 0 0 0 0-.43Zm15-13 4.1 1.26v-5l-4.13 1.24Zm-7.86 17.11h6.72v-.72h-6.75Zm5.24-17.22h1.85v-2.22h-1.88Zm-2.64 14.61v1.1h1.46v-1.1Zm3-13.85v1.85h.41l.27-1.85Zm7.12-1.52c.26 0 .55.09.68-.21a.43.43 0 0 0 0-.38c-.16-.24-.42-.15-.65-.15Zm-8.61 0h.34v-.71h-.34Z"/>
        <path d="M48.2 146.82h4.73c.4 0 .52.12.52.51v5.71c0 .4-.12.52-.52.52h-9.45c-.4 0-.52-.12-.52-.52v-5.71c0-.4.12-.51.52-.51Zm-4.47 1.06v4.91h9v-4.91l-.22.13c-1.29.8-2.59 1.58-3.87 2.39a.63.63 0 0 1-.77 0c-1.29-.81-2.6-1.61-3.9-2.41Zm1-.3.07.07c1.1.67 2.19 1.35 3.29 2a.33.33 0 0 0 .29 0c1-.63 2.09-1.28 3.14-1.93l.2-.13Z"/>
        <path d="M55.32 151.31h-.7c-.28 0-.42-.14-.42-.42v-4.4a.37.37 0 0 1 .42-.42h6.64c.29 0 .42.14.42.44v1.06h.31a.38.38 0 0 1 .44.44v4.33c0 .34-.13.47-.46.47h-6.18c-.34 0-.47-.13-.47-.49Zm6.35-3h-5.58v3.72h5.58Zm-6.71-1.5v3.76h.36v-2.46c0-.41.11-.52.53-.52h5.07v-.74Z"/>
        <path d="M46.33 141.94v-1.06a.38.38 0 0 1 .59-.36c.72.35 1.44.71 2.15 1.08a.48.48 0 0 1 .24.35.5.5 0 0 1-.24.35c-.71.38-1.42.73-2.13 1.08-.35.17-.6 0-.61-.39Zm.77-.5v1l1-.51Z"/>
        <path d="M60.92 149.81h-2.59v-.73h2.59Z"/>
        <path d="M60.93 150.57v.72h-1.84v-.72Z"/>
        <path d="M58.3 150.57v.72h-1.47v-.72Z"/>
        <path d="M56.84 149.07h.71v.73h-.71Z"/>
        <path d="M198.73 81.5a.65.65 0 0 1 .63-.3h11.41l-.14-.22a4.37 4.37 0 0 1-.21-4.52 4 4 0 0 1 5.15-1.77 4.67 4.67 0 0 1 1.55 1c2.16 2.13 4.3 4.29 6.49 6.4a5.21 5.21 0 0 1-3.09 8.88 39.11 39.11 0 0 1-4.83.37h-10.54a.68.68 0 0 1-.59-.35q-3-4.35-5.68-9c0-.07-.1-.15-.15-.22Zm1.22.58.07.17q2.41 4.14 5.15 8.07a.44.44 0 0 0 .27.14h1.5a114.33 114.33 0 0 0 12.15-.19 10.31 10.31 0 0 0 2.13-.36 4.34 4.34 0 0 0 2.87-5.47 3.2 3.2 0 0 0-4.93-1.9 3.51 3.51 0 0 0-1.72 2.72 3.17 3.17 0 0 0 3.35 3.46.42.42 0 0 1 .5.37.43.43 0 0 1-.41.49 4 4 0 0 1-.85 0 3.94 3.94 0 0 1-2.41-1.29q-2.91-3-5.85-6a.59.59 0 0 0-.39-.18h-11.43Zm21.35-1-.18-.19c-1.56-1.54-3.1-3.1-4.68-4.61a3.36 3.36 0 0 0-3.72-.8 3.4 3.4 0 0 0-1 5.4c1.55 1.63 3.12 3.23 4.69 4.85l.19.17a4.34 4.34 0 0 1 1.32-3.44 4.39 4.39 0 0 1 3.38-1.38Z"/>
        <path d="M86.37 20.63h2.35a2 2 0 0 1 2 2.08v4.46a4 4 0 0 1-1.2 2.91q-3.58 3.57-7.16 7.15a2 2 0 0 1-3 0l-5.21-5.26a2 2 0 0 1 0-3l7.12-7.14a4 4 0 0 1 2.94-1.21Zm3 4.37v-2.25a.7.7 0 0 0-.79-.78h-4.35a2.72 2.72 0 0 0-2 .83c-.65.67-1.31 1.32-2 2l-5.14 5.14a.73.73 0 0 0-.26.57.75.75 0 0 0 .25.5l5.25 5.25a.69.69 0 0 0 1.11 0l7.14-7.14a2.64 2.64 0 0 0 .82-2Z"/>
        <path d="M87.89 25.44a2 2 0 1 1-2-2 2 2 0 0 1 2 2Zm-1.35 0a.69.69 0 0 0-.67-.68.68.68 0 1 0 .67.68Z"/>
    </g>
</svg>
