<svg id="Layer_1" data-name="Layer 1" xmlns="http://www.w3.org/2000/svg" viewBox="0 0 288 288"><path d="M57.57,154.88v-31.2h6.89V139a3.55,3.55,0,0,1,1.06-1.4,7.52,7.52,0,0,1,2.24-1.31,8.53,8.53,0,0,1,3.17-.56,8.27,8.27,0,0,1,4.71,1.34,8.94,8.94,0,0,1,3.09,3.57,11.91,11.91,0,0,1,0,9.91,8.84,8.84,0,0,1-3.09,3.56,8.27,8.27,0,0,1-4.71,1.33,7.65,7.65,0,0,1-2.83-.53,8.24,8.24,0,0,1-2.29-1.37,6,6,0,0,1-1.41-1.66v3Zm15.49-9.29a4.64,4.64,0,0,0-.56-2.28A4.22,4.22,0,0,0,71,141.72a4.16,4.16,0,0,0-2.16-.58,4.42,4.42,0,0,0-2.24.58A4.3,4.3,0,0,0,65,143.31a4.54,4.54,0,0,0-.57,2.28,4.59,4.59,0,0,0,.57,2.28,4.17,4.17,0,0,0,1.55,1.57,4.42,4.42,0,0,0,2.24.57,4.15,4.15,0,0,0,2.16-.57,4.1,4.1,0,0,0,1.52-1.57A4.69,4.69,0,0,0,73.06,145.59Z"/><path d="M97.46,154.88v-3a5.56,5.56,0,0,1-1,1.31,8,8,0,0,1-2.18,1.56,7,7,0,0,1-3.18.69,8.5,8.5,0,0,1-4.76-1.33,9.05,9.05,0,0,1-3.18-3.56,11.43,11.43,0,0,1,0-9.91,9.15,9.15,0,0,1,3.18-3.57,8.51,8.51,0,0,1,4.76-1.34,7.81,7.81,0,0,1,3.06.56,7.24,7.24,0,0,1,2.13,1.31,5.22,5.22,0,0,1,1.14,1.4v-2.72h6.84v18.61Zm-8.71-9.29a4.41,4.41,0,0,0,.59,2.28A4.27,4.27,0,0,0,93.1,150a4.19,4.19,0,0,0,2.2-.57,4.07,4.07,0,0,0,1.51-1.57,4.69,4.69,0,0,0,.55-2.28,4.63,4.63,0,0,0-.55-2.28,4.09,4.09,0,0,0-3.71-2.17,4.32,4.32,0,0,0-2.19.58,4.43,4.43,0,0,0-1.57,1.59A4.36,4.36,0,0,0,88.75,145.59Z"/><path d="M117,135.72a17.28,17.28,0,0,1,3.35.31,16.35,16.35,0,0,1,2.55.69,5.23,5.23,0,0,1,1.33.64l-2.25,4.06a8,8,0,0,0-1.6-.82,6.54,6.54,0,0,0-2.59-.5,4.55,4.55,0,0,0-1.84.33,1.08,1.08,0,0,0-.75,1,1.26,1.26,0,0,0,.83,1.12,9.72,9.72,0,0,0,2.39.74,14.66,14.66,0,0,1,2.77.86,5.91,5.91,0,0,1,2.35,1.74,4.69,4.69,0,0,1,.94,3.05,5.73,5.73,0,0,1-.84,3.22,5.79,5.79,0,0,1-2.22,2,10.69,10.69,0,0,1-3,1,18.86,18.86,0,0,1-3.13.28,15.5,15.5,0,0,1-3.7-.39,11.7,11.7,0,0,1-2.55-.88,8.81,8.81,0,0,1-1.36-.8l2.22-4.53a8.69,8.69,0,0,0,1.93,1.12,6.54,6.54,0,0,0,2.83.63,4.84,4.84,0,0,0,2.24-.43,1.3,1.3,0,0,0,.8-1.14,1.15,1.15,0,0,0-.39-.91,3.25,3.25,0,0,0-1.09-.58,12.27,12.27,0,0,0-1.7-.46,12,12,0,0,1-1.92-.57,7.56,7.56,0,0,1-1.93-1.05,5.24,5.24,0,0,1-1.48-1.69,5.09,5.09,0,0,1-.56-2.47,4.21,4.21,0,0,1,1.2-3.08,7.46,7.46,0,0,1,3.11-1.85A12.83,12.83,0,0,1,117,135.72Z"/><path d="M131.87,132.44a3.91,3.91,0,0,1-3.9-3.88,3.83,3.83,0,0,1,1.15-2.76,3.7,3.7,0,0,1,2.75-1.16,3.64,3.64,0,0,1,1.95.53,4.14,4.14,0,0,1,1.43,1.42,3.61,3.61,0,0,1,.55,2,3.71,3.71,0,0,1-1.16,2.73A3.81,3.81,0,0,1,131.87,132.44Zm-3.53,22.44V136.27h6.89v18.61Z"/><path d="M150.08,150a4.61,4.61,0,0,0,2.13-.44,6.41,6.41,0,0,0,1.14-.72l3.15,4.67a7.87,7.87,0,0,1-1.25.76,10.32,10.32,0,0,1-2.21.81,13.66,13.66,0,0,1-8.65-.87,9,9,0,0,1-3.77-3.44,10.75,10.75,0,0,1,0-10.43,9,9,0,0,1,3.77-3.41,12.4,12.4,0,0,1,5.62-1.22,12.21,12.21,0,0,1,5.24,1.15,5.84,5.84,0,0,1,1.27.76l-3.22,4.71a5.49,5.49,0,0,0-.58-.45,4.27,4.27,0,0,0-1.07-.52,4.86,4.86,0,0,0-1.57-.23,4,4,0,0,0-2.07.57,4.34,4.34,0,0,0-2.15,3.85,4.54,4.54,0,0,0,.59,2.31,4.43,4.43,0,0,0,1.56,1.57A4,4,0,0,0,150.08,150Z"/><path d="M174.44,154.88v-3.44a5.17,5.17,0,0,1-1,1.49,8,8,0,0,1-2.31,1.73,7.36,7.36,0,0,1-3.46.77,9,9,0,0,1-4.69-1.25,8.87,8.87,0,0,1-3.29-3.47,11.54,11.54,0,0,1,0-10.25,8.86,8.86,0,0,1,8-4.74,7.84,7.84,0,0,1,3.38.68,8.21,8.21,0,0,1,2.3,1.57,4.26,4.26,0,0,1,1.08,1.54v-3.24h4.81v18.61Zm-11.21-9.29a6,6,0,0,0,.8,3.13,5.57,5.57,0,0,0,4.83,2.79,5.24,5.24,0,0,0,4.77-2.83,6.35,6.35,0,0,0,.71-3.09,6.42,6.42,0,0,0-.71-3.1,5.43,5.43,0,0,0-1.95-2.08,5.23,5.23,0,0,0-2.82-.76,5.45,5.45,0,0,0-2.76.73,5.73,5.73,0,0,0-2.07,2.08A6,6,0,0,0,163.23,145.59Z"/><path d="M189.15,154.88h-4.87v-31.2h4.87Z"/><path d="M199.4,154.88h-4.88v-31.2h4.88Z"/><path d="M212.94,150.55l5.89-14.28h4.83l-12.65,28h-4.9l4.26-9.44-7.71-18.61h4.9Z"/><circle cx="227.04" cy="152.04" r="3.39"/></svg>